<svg width="450" height="391" viewBox="0 0 450 391" fill="none" xmlns="http://www.w3.org/2000/svg">
<g clip-path="url(#clip0_19_546)">
<path d="M433.954 112.639C432.837 112.374 433.164 112.846 432.851 113.246C427.62 119.999 420.119 126.372 413.486 131.873C400.803 142.399 386.987 151.537 374.049 161.735C372.835 165.41 373.519 169.273 373.336 173.055C372.844 183.277 372.218 193.585 371.852 203.817C371.606 210.783 372.324 218.687 371.418 225.518C371.288 226.506 369.342 229.43 368.499 229.829C366.332 230.851 364.988 227.821 363.687 226.467L364.174 168.464C363.436 168.281 363.128 168.768 362.593 169.042C357.651 171.605 351.789 176.123 346.697 179.129C323.247 192.969 299.393 206.134 275.385 218.981C274.469 227.204 274.546 235.499 274.18 243.765C273.482 259.715 274.118 277.75 272.273 293.353C272.08 294.99 269.498 299.042 267.725 298.887C266.805 298.647 263.703 296.098 263.366 295.496C262.802 294.485 263.082 286.146 263.096 284.176C263.135 279.759 263.732 275.144 263.096 270.741L263.115 225.73C255.186 229.55 247.407 233.876 239.695 238.158C209.154 255.119 178.951 272.706 148.589 289.981C147.591 291.185 148.208 299.677 148.121 302.028C147.389 321.653 146.96 341.548 146.638 361.182C146.517 368.524 147.596 378.933 146.681 385.769C146.406 387.831 142.413 391.241 140.289 390.711C139.768 390.581 135.38 387.648 135.072 387.224C134.089 385.875 134.739 369.714 134.643 366.476C134.378 357.252 133.386 347.863 133.159 338.605C132.74 321.345 133.309 304.095 132.461 286.845C118.178 277.851 101.525 273.988 86.3226 267.051C74.776 261.781 63.793 254.32 52.3379 248.582C39.481 242.142 25.9786 236.968 13.353 230.065C13.2422 240.591 13.8829 251.073 13.854 261.608C13.8058 276.377 14.5621 295.381 13.3434 309.702C13.1121 312.409 12.3221 316.86 9.06577 317.404C7.49539 317.665 3.66579 314.938 3.69951 313.103C2.82279 283.665 2.80834 254.199 2.5145 224.776C-1.04053 222.686 -0.149365 216.582 1.079 213.23C9.67754 189.814 49.2501 170.169 71.1102 161.027C101.357 148.372 133.323 139.889 165.102 131.951L165.896 133.338C133.925 141.04 101.959 149.803 71.5919 162.472C49.7896 171.566 21.412 185.584 7.17264 204.886C5.40958 207.281 1.4451 213.591 1.31985 216.409C1.25723 217.859 2.35553 218.398 3.39121 219.092C8.16015 222.305 16.3155 224.661 21.701 227.247C42.0822 237.036 62.0299 248.038 82.2184 258.168C94.8007 264.479 108.236 268.598 120.991 274.258C128.029 277.379 134.219 280.982 141.479 283.998C141.849 284.152 141.849 284.937 142.124 284.947C142.611 284.966 145.303 283.877 146.021 283.574C167.414 271.709 188.383 259.031 209.857 247.311C271.131 213.861 334.755 186.991 391.087 145.087C407.503 132.875 436.912 111.372 444.634 92.7585C455.207 67.276 444.566 52.921 422.735 40.8542L408.457 34.2065C420.673 36.803 437.846 46.7455 444.947 57.1456C451.72 67.0689 451.103 82.4788 446.561 93.2402C445.544 95.6488 441.994 100.403 441.686 102.32C441.098 105.962 441.845 111.372 441.681 115.307C441.488 119.893 440.847 124.638 440.679 129.224C440.399 136.724 441.156 144.774 440.091 152.216C439.913 153.459 439.277 155.954 437.952 156.354C437.027 157.057 433.983 155.063 433.694 154.514C433.492 154.129 433.959 153.897 433.959 153.786V112.639H433.954ZM438.246 153.994L440.207 104.459L437.572 107.35L437.297 108.52L436.835 153.738L438.246 153.989V153.994ZM435.399 110.958V131.893L436.387 124.455L436.358 110.235C436.054 110.221 435.443 110.794 435.399 110.958ZM426.256 118.419C425.356 118.207 425.11 118.92 424.57 119.378C420.673 122.658 416.964 126.247 413.009 129.47C394.94 144.2 375.812 157.722 356.245 170.401C349.77 174.596 342.93 178.33 336.745 182.896C340.811 181.23 344.659 178.816 348.441 176.552C369.482 163.96 390.566 148.733 409.637 133.319C415.403 128.656 421.295 123.925 426.252 118.419H426.256ZM372.353 163.175C367.088 164.452 369.02 167.443 368.027 171.6L367.546 228.139C368.369 229.165 369.882 225.244 369.964 224.545C371.264 213.615 370.335 201.413 370.893 190.344L372.353 163.175ZM367.059 166.542C364.67 166.846 365.681 171.957 365.614 173.994C365.46 178.643 365.71 183.238 365.638 187.974C365.45 199.954 364.275 212.531 365.113 224.555C365.171 225.378 365.065 226.144 365.864 226.693L367.064 166.542H367.059ZM324.712 189.645L222.681 241.843C198.537 254.623 175.203 268.915 151.31 282.119C149.682 283.02 144.634 284.923 143.767 285.64C142.774 286.459 143.487 289.383 143.29 290.694L324.717 189.64L324.712 189.645ZM2.44224 219.766C2.18212 219.583 2.53858 218.798 1.80638 218.996C0.915216 223.341 3.51164 224.092 6.76801 225.817C22.5633 234.189 39.8953 240.735 55.8833 248.891C66.0715 254.088 76.0573 260.866 86.3274 265.606C96.241 270.182 107.094 273.227 117.147 277.62C125.645 281.334 133.554 286.093 141.84 290.217C143.362 284.316 138.974 284.947 134.937 282.928C118.486 274.715 101.944 269.079 85.8505 261.271C63.7159 250.533 42.1111 238.255 19.938 227.565C14.6295 225.007 7.23527 223.167 2.44706 219.757L2.44224 219.766ZM267.932 296.956C272.205 293.767 271.044 286.657 271.3 281.801C272.186 264.927 272.764 247.715 273.241 230.802C273.342 227.194 273.13 223.558 273.217 219.954C271.969 221.279 268.241 221.9 267.928 223.562C267.884 236.723 267.981 249.883 267.952 263.048C267.942 266.174 267.441 269.956 267.427 273.111C267.398 281.069 268.25 288.993 267.937 296.956H267.932ZM266.483 296.474V225.007C266.483 224.873 267.446 224.034 266.719 223.798L264.84 224.237C264.349 247.672 264.411 271.521 264.806 295.019L266.483 296.474ZM8.5407 227.657L4.44616 225.744C3.75249 226.192 3.7814 226.669 3.70432 227.392C1.83528 244.56 5.82867 264.768 4.19085 282.297C5.87684 291.565 3.95 303.054 5.14946 312.139C5.36623 313.768 6.19959 314.273 7.56283 315.034L8.5407 314.524V227.662V227.657ZM9.98102 228.62V313.079C9.98102 313.161 8.95016 313.922 9.74016 314.278C10.2219 313.719 11.113 313.223 11.3298 312.496C11.5755 311.662 11.8597 307.183 11.9271 305.877C13.1362 283.189 12.6304 256.405 11.8645 233.673C11.7826 231.193 13.6854 230.22 9.98584 228.62H9.98102ZM137.938 289.311C136.748 289.677 133.612 286.633 133.646 288.545C133.964 307.722 134.561 327.111 135.101 346.288C135.303 353.504 135.857 360.758 136.088 367.917C136.185 370.913 135.534 384.921 136.517 386.26C136.95 386.853 138.771 387.696 139.436 388.389L137.943 289.306L137.938 289.311ZM146.652 291.185C145.27 291.354 144.643 292.25 143.054 292.177C141.339 292.105 140.9 290.901 139.436 290.703L140.881 388.871C142.741 388.63 145 386.583 145.236 384.81C146.151 377.98 145.072 367.56 145.193 360.224C145.361 349.747 146.026 338.98 146.194 328.503C146.397 316.051 145.877 303.584 146.652 291.19V291.185Z" fill="#65242E"/>
<path d="M307.833 43.6239C298.435 35.878 284.07 30.637 272.509 26.9711C258.828 22.6358 244.863 19.0181 230.701 16.5325V19.2252C239.82 20.9209 248.823 23.2138 257.797 25.5597V53.234C257.672 55.0742 259.209 55.1223 260.644 54.8285C261.983 45.7001 261.622 36.2778 261.67 26.9856C271.136 29.8084 281.873 32.2892 290.722 36.668C291.493 37.0485 296.093 39.4956 296.325 39.7317C297.857 41.2828 296.787 47.3861 296.777 49.3466C296.749 55.3439 296.368 62.2854 296.777 68.1574C296.946 70.5612 298.43 72.3242 300.212 70.1036C302.129 67.7191 300.814 47.7714 301.614 43.3541C301.985 42.9254 305.607 45.8301 306.161 46.2589C310.092 49.2936 318.392 56.9288 318.936 61.8759C321.041 80.9565 291.272 91.7083 277.707 98.1247C276.859 98.5245 274.84 98.9629 275.144 100.133C299.384 91.636 341.403 71.303 307.828 43.6287L307.833 43.6239ZM260.211 32.4916C260.018 38.5563 260.9 45.9795 260.249 51.7793C260.167 52.5018 260.148 53.2629 259.276 53.446L258.785 26.7399C262.128 25.738 260.273 30.6273 260.211 32.4916ZM300.193 55.1512C300.092 58.6388 300.077 63.9088 299.711 67.1796C299.629 67.9021 299.61 68.6632 298.738 68.8463L298.256 40.936L300.501 42.5882C299.812 46.7309 300.318 50.9748 300.198 55.1512H300.193ZM296.643 38.4455C286.276 32.8962 274.985 29.3797 263.698 26.1522L231.351 17.8379C248.038 20.5933 265.591 25.1406 281.517 30.9453C291.503 34.5822 302.399 39.4667 309.788 47.1837L296.638 38.4455H296.643Z" fill="#65242E"/>
<path d="M124.507 214.197V215.623C119.753 214.202 114.714 214.679 109.839 215.146C100.817 216.009 79.4962 220.195 74.8477 228.76C71.3601 235.19 79.0675 239.28 84.2604 240.72C94.5786 243.587 108.982 242.146 118.852 238.114C120.09 237.609 128.929 232.522 129.324 232.95C129.753 233.418 129.387 234.078 128.717 234.516C124.931 236.997 120.442 238.331 116.338 240.171C116.236 241.067 117.349 240.571 117.879 240.508C124.724 239.733 134.349 236.395 139.667 231.973C150.303 223.114 140.616 217.28 130.774 217.54C132.86 215.402 138.135 216.953 140.577 218.085C144.383 219.848 146.497 222.396 145.582 226.818C143.106 238.745 126.15 243.481 115.856 246.173C107.874 248.259 90.7586 250.244 83.6341 245.672C81.4761 244.285 80.4019 241.395 78.764 239.954C76.6686 238.119 74.236 238.129 73.0028 234.651C69.5826 225.017 85.6573 219.034 92.5554 217.097C102.845 214.212 113.886 212.714 124.512 214.188L124.507 214.197ZM137.509 235.841L129.329 240.162C132.186 239.559 135.461 237.907 137.509 235.841ZM128.848 239.213C125.384 239.921 121.959 241.048 118.443 241.554C108.004 243.066 95.3108 244.555 84.9444 242.445C83.4993 242.151 82.1408 240.884 80.7246 241.371C90.8646 249.979 107.012 247.358 118.842 243.88L128.843 239.213H128.848Z" fill="#65242E"/>
<path d="M172.265 181.359C172.433 181.644 173.686 181.817 174.211 183.021C175.328 185.594 174.534 187.569 174.548 189.862C174.572 194.664 175.203 202.169 174.457 206.611C173.614 211.635 169.77 212.112 165.887 214.019L165.959 217.989C167.298 218.201 170.271 218.88 170.656 220.306C172.371 226.631 155.082 226.592 156.845 220.783C157.606 218.278 162.659 219.463 162.563 215.898C162.443 211.596 158.652 213.123 156.277 210.59C155.439 209.694 154.784 207.728 154.576 206.514C153.213 198.561 155.352 188.628 154.09 180.463C154.379 178.912 160.882 177.376 162.539 177.617L155.333 181.22C157.197 183.773 160.593 183.855 163.507 183.869C163.252 180.728 163.869 177.116 163.464 174.042C162.896 169.741 159.475 166.465 161.503 161.889C164.052 156.142 166.046 164.052 167.443 166.214C168.291 167.529 170.381 169.182 170.776 170.097C171.778 172.404 171.908 180.752 172.27 181.359H172.265ZM161.576 192.044L163.464 191.249L163.502 185.786C160.877 185.536 157.982 185.507 155.81 183.859C157.38 189.736 153.724 205.035 157.235 209.617C158.372 211.1 162.433 212.203 164.249 212.266C167.534 212.377 173.127 210.108 173.127 206.24V183.623C173.127 183.344 172.014 182.477 171.465 182.448C169.712 182.352 167.424 184.804 165.429 184.341C167.939 182.463 168.31 179.736 168.32 176.648C170.68 176.359 168.146 181.229 168.801 181.937C171.388 181.971 170.839 179.934 170.719 177.853C170.608 175.969 169.909 169.649 168.069 168.951C166.759 168.454 167.886 170.569 166.879 170.386L166.012 166.677L163.271 161.73C161.041 162.756 162.818 169.606 163.748 171.349C164.582 172.91 164.288 170.275 164.952 171.113L164.398 199.915C163.729 201.933 159.615 200.156 160.14 197.819L163.021 199.26V195.893C160.092 197.868 157.312 195.517 156.773 192.525L159.172 194.452L157.736 186.755C158.628 186.75 159.071 188.527 159.23 188.619C159.389 188.71 161.494 188.031 162.539 189.173L161.58 192.049L160.14 189.163V195.416L161.099 193.975L163.016 194.939V192.535L161.58 193.494V192.049L161.576 192.044ZM165.906 221.881H158.208C161.537 226.761 176.379 221.823 165.164 219.015L164.702 213.215C163.565 212.887 164.042 214.265 163.989 214.906C163.864 216.505 163.82 218.071 163.536 219.651C164.129 220.884 164.914 220.123 165.906 219.954V221.876V221.881Z" fill="#65242E"/>
<path d="M96.602 165.583C97.9893 167.043 93.1096 166.022 92.5315 166.051C82.8154 166.532 62.9015 171.431 56.0756 178.57C49.7941 185.146 60.9265 188.253 66.0519 188.667C77.2565 189.582 92.0209 187.458 100.446 179.529C99.3333 183.83 92.8398 186.249 88.9042 187.472C81.0042 189.934 71.5434 190.772 63.3928 189.635C63.7204 190.618 65.2089 190.912 66.0808 191.032C75.898 192.381 96.5634 190.305 104.266 183.58C104.743 183.166 110.702 175.887 110.971 175.372C112.956 171.614 108.491 169.052 105.258 168.931C104.863 167.529 106.472 167.842 107.392 168.006C109.204 168.329 111.848 170.299 112.513 172.029C112.893 173.006 113.544 177.727 113.428 178.753C113.25 180.357 111.872 181.644 111.029 182.886C111.492 183.257 113.722 181.456 113.39 183.079C112.956 185.179 111.265 186.042 109.334 186.591L107.643 183.874C104.685 183.623 104.786 187.357 103.168 188.985C97.9989 194.197 75.7005 195.55 68.499 194.866C66.9767 194.722 58.5564 192.954 58.5853 191.316L59.78 190.131C61.0469 191.576 62.8581 192.439 64.7127 192.882C72.6898 194.794 81.9772 194.014 89.9447 192.371C94.5981 191.413 101.039 190.338 103.331 185.791C101.173 186.783 99.0924 187.872 96.8428 188.681C86.8666 192.27 76.1389 193.47 65.5942 192C64.1539 191.798 56.0034 187.491 54.7413 186.49C47.3518 180.598 60.0546 173.753 64.5056 171.744C74.0579 167.433 86.1103 164.234 96.5924 165.578L96.602 165.583ZM112.002 177.13C111.183 176.508 106.781 182.482 107.2 182.901C109.151 182.997 114.064 178.7 112.002 177.13Z" fill="#65242E"/>
<path d="M214.212 133.164C214.371 133.405 215.046 133.386 215.267 134.243C215.532 135.269 215.137 138.487 216.669 138.145C218.581 136.56 222.088 133.771 219.81 131.411C219.978 132.909 219.761 134.759 217.878 134.773L218.837 132.856C216.871 133.588 214.154 128.506 217.892 129.209C225.87 130.707 221.467 138.082 215.922 139.402C215.378 146.994 215.903 154.49 212.661 161.58C212.57 162.467 215.113 164.186 215.378 165.453C215.73 167.125 213.942 168.45 213.644 169.769C213.48 170.492 214.362 177.38 214.607 178.233C214.973 179.51 218.162 180.974 217.575 183.281C216.736 186.562 208.918 186.292 206.447 184.963C203.6 183.431 208.509 179.505 208.725 178.32C208.913 177.299 209.78 171.349 209.727 170.636C209.593 168.777 207.762 167.501 207.868 166.373C207.984 165.126 210.498 163.502 210.59 161.508C210.734 158.358 208.567 153.834 208.258 150.409C207.868 146.079 208.152 141.117 207.767 136.705C204.433 136.474 199.669 135.982 200.074 131.652C200.267 129.566 204.679 128.092 206.51 128.569C207.064 128.713 207.55 129.335 206.818 129.73C205.676 130.337 203.123 129.431 202.483 130.919C204.448 131.131 207.242 130.072 208.253 132.365L202.001 131.411C201.851 132.336 202.381 132.697 203.205 132.851C203.961 132.991 205.777 132.384 205.845 133.328L201.519 133.569C202.28 134.869 208.75 136.319 209.217 135.014L208.249 134.532L208.263 133.819C211.645 132.528 208.721 129.185 208.383 126.709C208.167 125.129 208.634 119.05 209.467 117.942C209.674 117.663 211.914 116.56 212.266 116.579C215.518 116.762 215.696 124.517 215.416 126.782C215.123 129.19 213.032 131.363 214.207 133.164H214.212ZM210.662 133.814L212.95 133.116C211.712 130.178 214.405 127.923 214.453 124.864C214.472 123.766 213.355 118.66 212.334 118.419C210.089 117.894 207.945 129.754 212.097 130.693C210.469 131.324 210.508 132.172 210.657 133.819L210.662 133.814ZM212.097 160.761C213.09 155.4 214.313 150.144 214.53 144.663C214.598 142.977 215.021 134.725 213.34 134.46L210.166 134.999C208.008 136.368 210.05 148.531 209.761 151.32L212.102 160.761H212.097ZM213.547 178.57C214.718 177.058 211.64 171.022 211.784 169.659C211.886 168.719 215.426 167.197 213.504 164.422C212.545 163.04 212.131 163.57 211.221 164.446C207.988 167.563 211.182 168.098 211.192 171.109C211.197 173.599 209.188 176.359 209.708 179.047C211.462 179.143 211.197 177.323 211.153 176.167C211.833 176.027 212.242 176.403 212.642 176.879C213.456 177.848 211.717 178.835 213.552 178.57H213.547ZM214.39 180.15C213.788 179.89 213.21 179.996 212.589 180.02L214.029 181.456C212.348 181.788 210.209 181.094 208.682 181.253C207.801 181.345 207.613 181.523 207.772 182.424C210.623 182.689 213.104 183.31 215.951 182.424C216.24 182.111 214.516 180.213 214.39 180.16V180.15ZM215.956 183.387C212.868 184.052 209.761 184.226 206.818 182.901C205.484 184.144 210.893 184.861 211.389 184.861C212.68 184.871 215.262 184.645 215.961 183.383L215.956 183.387Z" fill="#65242E"/>
<path d="M195.257 187.232C196.943 186.668 199.852 188.311 198.157 189.886C195.541 191.268 192.049 192.058 189.337 190.512C186.837 189.086 190.729 187.607 190.946 186.003C191.167 184.317 189.679 180.41 189.496 178.32C189.163 174.51 189.597 170.174 189.51 166.277C189.356 159.485 188.46 149.364 189.52 142.746C189.842 140.737 191.846 140.106 191.933 137.895C192 136.161 190.844 135.014 190.57 133.463C189.895 129.624 191.615 125.467 193.58 122.278C194.635 122.263 196.842 131.04 196.678 132.562C196.476 134.475 195.021 136.194 195.218 138.396C195.368 140.048 196.591 140.294 196.977 141.488C197.791 144.012 197.762 167.573 197.69 172.096C197.608 177.193 196.085 182.255 195.262 187.232H195.257ZM192.858 140.549L194.149 139.85C192.718 136.926 195.146 134.662 195.286 132.114C195.406 129.85 194.173 127.374 193.817 125.158L191.899 130.688C191.562 134.128 193.475 137.018 192.863 140.554L192.858 140.549ZM193.821 183.383C194.664 183.171 194.896 182.284 195.127 181.567C196.745 176.489 196.288 165.304 196.244 159.581C196.196 153.68 195.989 147.852 195.531 141.965L191.731 141.498C191.22 141.618 191.037 142.765 190.979 143.237C190.695 145.525 190.493 149.461 190.43 151.84C190.29 156.942 190.864 161.947 190.931 167.024H195.266L193.826 183.383H193.821ZM190.449 167.982V175.439C190.449 176.364 191.341 180.781 191.634 181.952C191.784 182.544 192.131 184.264 192.848 184.336C192.848 179.163 190.907 174.115 192.376 168.941C193.947 169.432 192.853 170.261 192.853 170.627V178.084L193.812 173.508C193.937 170.198 194.544 167.978 190.449 167.978V167.982Z" fill="#65242E"/>
<path d="M281.4 159.321C281.718 160.574 280.49 160.526 279.661 160.733C274.815 161.956 254.897 163.132 262.156 173.031C270.668 184.63 304.031 186.668 315.25 178.97C319.171 176.278 318.781 173.773 315.318 170.882C310.775 167.096 293.241 163.132 286.94 162.197C286.102 162.072 286.131 162.452 286.218 161.248C290.852 161.378 295.341 162.621 299.792 163.787C304.937 165.136 318.55 168.416 319.398 174.519C320.005 178.864 316.748 178.787 314.928 181.774C305.375 191.326 282.908 190.156 271.598 184.765C265.658 181.938 267.229 180.627 264.411 176.793C263.808 175.974 261.833 174.914 260.793 173.435C256.626 167.501 261.549 163.82 266.983 161.99C271.41 160.501 276.776 159.875 281.4 159.326V159.321ZM310.274 182.906C295.635 186.076 279.57 186.287 266.487 178.089C265.133 179.833 272.836 183.734 274.054 184.231C280.543 186.856 296.386 188.152 303.155 186.605C305.621 186.042 308.603 184.876 310.274 182.906Z" fill="#65242E"/>
<path d="M255.49 114.98C256.029 115.543 257.927 114.907 257.792 118.13C257.657 121.266 254.844 121.56 254.083 123.092C252.281 126.714 252.021 138.545 252.517 142.731C252.614 143.526 253.548 146.517 253.953 147.071C255.027 148.56 262.951 151.696 255.928 153.81C253.558 154.523 242.382 155.294 242.411 151.859C243.081 149.388 246.881 148.738 247.835 146.681C248.529 145.188 248.987 140.717 249.16 138.863C249.338 136.95 249.796 129.932 249.541 128.395C249.073 125.64 244.483 120.664 244.362 118.616C244.251 116.694 246 116.189 246.27 114.792C247.166 110.124 245.374 102.763 246.385 98.0618C246.53 97.3922 246.983 96.4577 247.72 96.2747C246.963 98.2449 248.254 99.2757 250.128 99.6418C249.714 97.7583 250.215 95.8459 248.211 95.0752L251.337 90.5038C252.951 90.1569 252.778 94.0443 253.259 94.8295C253.741 95.6147 255.451 95.5232 256.039 96.8864C256.521 99.1601 254.868 114.329 255.494 114.98H255.49ZM252.122 95.7255C251.713 95.0608 252.556 93.1676 251.323 92.4306C249.613 94.8295 249.873 97.0936 251.125 99.6274C258.987 97.8402 252.628 96.5444 252.122 95.7255ZM247.715 99.1649V114.806C247.715 115.047 248.881 116.03 249.401 116.025C250.152 116.02 250.836 114.874 251.072 115.047C251.217 115.153 251.337 117.186 252.537 116.261C254.223 115.413 254.362 110.567 254.473 108.573C254.637 105.62 254.309 102.6 254.444 99.6466C251.463 102.055 250.345 101.554 247.71 99.1649H247.715ZM255.889 116.01C254.411 115.013 252.426 119.941 249.651 118.66C248.987 118.351 245.774 114.035 245.754 118.159C245.725 123.698 259.102 122.441 255.889 116.006V116.01ZM250.128 127.075C252.19 127.451 252.325 125.327 252.937 123.848L252.238 122.769L248.678 123.226L250.128 127.07V127.075ZM256.376 151.142C256.241 150.987 256.284 150.26 255.678 149.696C255.071 149.133 251.111 146.387 251.111 146.093C251.111 145.958 251.911 145.53 251.925 144.754C251.968 142.981 251.154 140.183 251.087 138.381C250.971 135.341 251.207 132.278 251.087 129.238C251.063 128.655 251.448 127.451 250.61 127.562C250.475 130.346 250.778 133.188 250.6 135.977C250.422 138.766 250.109 143.93 249.545 146.469C248.982 149.008 246.144 149.359 244.834 151.137C248.789 151.609 252.421 151.85 256.386 151.137C254.647 153.006 250.384 152.779 247.97 152.572C246.554 152.452 245.273 151.594 243.876 151.854C247.065 153.96 254.382 153.926 257.344 151.373C257.388 150.867 256.492 151.257 256.386 151.137L256.376 151.142Z" fill="#65242E"/>
<path d="M346.278 50.6422C346.938 51.9235 345.305 52.8677 345.469 54.0575C345.614 55.1173 346.803 55.7002 347.102 56.3601C347.916 58.1858 344.708 70.8355 344.877 73.904C344.867 74.8578 345.98 74.7856 346.601 75.5852C348.88 78.514 344.987 79.6364 342.526 79.4389C341.842 86.3707 342.429 93.4422 342.059 100.388C341.88 103.794 340.093 106.607 342.03 109.955C341.032 111.675 335.753 111.497 335.753 109.522C335.753 108.13 337.545 108 337.694 107.797C337.863 107.571 336.37 103.78 336.244 102.315C335.869 97.9751 335.7 81.332 336.866 77.883C337.121 77.1315 338.104 76.775 338.099 75.9272C338.094 75.0794 337.044 73.7691 336.856 72.8298C335.151 64.2843 344.901 67.1986 339.872 73.6535C338.585 72.5938 339.308 70.7536 339.149 69.3326C336.683 69.3181 338.142 73.8559 338.701 75.2287C338.923 75.7827 339.785 75.4551 339.636 75.8212C336.798 78.4321 337.925 82.0594 337.704 85.4458C337.54 87.9507 335.464 97.3344 339.631 95.3161L339.149 97.2381L341.061 97.0069L341.081 75.1035L341.794 76.0621C342.873 75.6237 342.665 69.0725 342.478 67.6851C341.977 63.9422 339.978 62.2514 340.719 57.6607C340.96 56.1626 341.981 54.8716 342.083 53.6866C342.155 52.8629 340.739 45.1073 343.711 45.748C346.196 46.2827 344.062 50.3676 346.278 50.6374V50.6422ZM344.274 64.371C345.541 62.4682 347.502 54.5152 343.745 54.8668C339.231 55.2907 343.152 65.1947 343.441 67.6851C343.667 69.6216 343.354 71.7026 343.484 73.6584C344.294 73.6584 344.4 72.0543 344.443 71.4955C344.578 69.7902 345.031 65.686 343.47 65.2332C343.234 64.1735 344.091 64.6359 344.27 64.371H344.274ZM340.112 107.826L340.589 98.2015C338.87 98.9096 340.252 100.808 340.156 102.291C340.045 103.944 339.53 105.596 339.26 107.224C339.106 108.154 339.279 107.807 340.112 107.826ZM338.667 105.418C338.359 103.091 340.358 100.249 337.713 98.6832L337.766 101.752L338.667 105.418Z" fill="#65242E"/>
<path d="M306.426 104.459L307.597 89.5069C308.208 88.5965 314.938 88.794 316.094 90.2151C317.019 91.429 316.287 94.2084 316.638 95.9282C316.937 97.4022 318.156 98.8329 318.401 100.899C319.211 107.648 317.722 111.487 312.895 116.025C312.235 116.647 311.296 115.235 311.783 117.384C313.334 117.889 317.207 119.778 315.834 121.801C313.854 123.347 306.084 123.323 305.482 120.539C305.087 118.713 310.863 119.089 310.704 116.242C310.574 113.857 305.694 111.569 305.901 108.337L299.692 108.785C299.841 109.633 302.197 109.325 302.847 109.291C303.825 109.243 304.538 108.833 305.463 108.785C303.362 111.064 295.824 109.806 292.924 109.05C289.552 108.168 288.969 107.138 287.177 104.69C285.385 102.243 283.54 101.227 287.206 98.4716C289.027 97.1035 294.851 95.3116 297.037 95.3116H305.217C305.299 95.3116 305.973 95.9619 305.939 96.275H296.074C294.889 96.275 288.569 98.857 287.48 99.7096C284.759 101.839 287.398 103.751 289.677 104.599L300.164 106.381H290.539C294.374 109.951 300.867 107.711 305.646 107.855C306.074 107.745 306.782 105.134 305.713 105.004C302.12 106.155 298.42 104.955 294.87 104.45C294.46 102.369 297.307 104.454 297.996 104.454H306.416L306.426 104.459ZM308.353 90.5089C308.839 92.9753 310.472 94.6324 313.045 93.51C318.464 91.1399 311.306 89.0204 308.353 90.5089ZM313.652 103.496L315.569 92.9078C311.421 95.0322 312.992 96.9879 312.683 100.842C312.645 101.323 312.303 103.414 311.951 103.51C308.151 104.546 310.896 100.451 311.132 99.2905C311.826 95.8703 311.031 94.6902 307.876 93.3847C309.008 97.7635 304.316 112.653 311.479 112.682C317.39 112.711 317.448 105.664 317.014 101.328C316.961 100.822 316.133 96.9205 315.583 97.7105C315.636 99.7096 315.752 102.378 313.657 103.486L313.652 103.496ZM314.61 121.3C315.02 119.349 313.074 119.325 311.961 118.419L312.207 120.336L310.323 120.283L310.275 118.896L307.394 119.869C307.1 122.47 314.167 121.835 314.61 121.305V121.3Z" fill="#65242E"/>
<path d="M392.089 53.9277C392.079 54.3516 392.532 54.9971 392.508 55.6282C392.46 56.8662 391.111 60.1225 389.69 60.4886C389.401 60.5609 384.184 59.1109 383.919 58.976C381.929 57.9355 382.445 55.5703 384.868 55.8642L385.345 57.7862C384.921 53.2485 388.63 56.7939 389.198 56.3363C385.422 51.2638 388.707 43.9129 389.242 38.1035L396.405 39.0428C395.253 43.9515 395.393 48.9179 395.461 53.9373L396.414 51.0567C396.4 52.6849 396.034 55.6474 398.336 55.8642C399.685 54.1445 399.574 50.5991 400.152 49.2647C401.097 47.0874 401.993 46.808 402.18 43.5902C402.465 38.7586 400.085 37.3135 399.777 33.4887C399.685 32.376 400.061 27.8142 400.331 26.8218C400.422 26.4895 400.875 25.8584 401.26 26.2245L406.8 27.4481C406.487 30.7622 406.834 35.5793 405.283 38.513C404.97 39.1055 404.117 39.486 403.881 39.9966C403.505 40.8059 403.414 46.5142 403.707 47.3716C404.035 48.3302 406.126 48.3351 405.557 50.0885L401.246 50.5943C401.824 53.0125 398.635 56.081 398.351 57.5646C397.99 59.4337 398.515 62.2324 398.409 64.2267C398.804 65.3973 402.185 65.3298 403.187 66.6642C405.788 70.1277 395.388 70.1614 394.232 67.907C392.874 65.2576 396.776 64.8144 396.915 64.2074C397.084 63.4704 397.46 59.7757 397.426 58.9905C397.33 56.4133 394.834 55.5703 394.194 53.4605C393.866 52.3814 394.492 52.0394 394.492 51.7793V42.8773C391.318 44.5633 394.42 52.0346 392.084 53.947C392.127 51.7648 392.513 45.2858 392.084 43.7058C392.04 43.5468 390.041 41.909 389.68 41.4369C389.309 43.5757 387.498 54.3324 389.964 54.8719C390.306 54.9489 391.751 54.2167 392.079 53.947L392.089 53.9277ZM405.567 29.3845L401.236 28.9076C400.923 32.4675 401.342 35.271 402.681 38.5274C404.719 40.0352 406.01 30.5406 405.567 29.3845ZM395.456 39.9774L390.48 38.9754C387.835 39.5631 394.17 45.6182 395.456 39.9774ZM401.415 67.3048C401.284 67.0158 401.559 66.5678 401.448 66.4377L398.346 65.9657L399.786 67.4012L395.461 67.8829C396.684 68.3839 401.752 68.9426 402.195 67.6468C402.291 67.2133 401.511 67.512 401.419 67.3096L401.415 67.3048Z" fill="#65242E"/>
<path d="M270.433 140.457C270.659 140.842 272.745 141.286 272.755 142.721C272.774 145.713 264.301 145.26 264.046 142.707C263.872 140.977 265.438 141.146 266.04 140.351C267.138 138.901 265.187 132.119 265.023 129.744C264.426 121.025 266.286 111.622 265.524 102.773C265.067 100.885 267.629 98.765 267.87 97.8594C268.087 97.0453 266.319 93.8997 266.507 91.7658C266.57 91.0721 268.762 84.7183 269.137 84.7231C270.236 84.7424 271.604 89.7185 271.738 90.7831C272.186 94.2947 270.289 95.5087 270.356 97.4307C270.414 99.1504 272.042 100.355 272.278 102.277C273.184 109.801 272.37 123.766 271.801 131.666C271.681 133.342 269.985 139.696 270.438 140.457H270.433ZM269.85 88.0951C268.607 87.8976 269.104 88.2252 268.848 88.7743C267.88 90.8505 267.21 94.0876 269.132 95.7881C271.324 93.6974 270.033 90.6193 269.85 88.0951ZM270.799 101.101C267.066 101.646 266.738 102.036 266.469 105.644C266.064 111 266.811 116.853 266.483 122.263C268.593 121.81 270.525 123.959 270.838 121.083C271.324 116.598 270.688 110.817 270.794 106.121C270.833 104.377 271.791 102.932 270.794 101.101H270.799ZM266.483 123.226V133.092C266.483 133.511 267.095 136.55 267.923 136.7C267.596 132.374 268.4 128.063 268.333 123.785L266.483 123.226ZM270.814 123.226L269.542 123.939C269.494 127.673 269.301 131.7 268.882 135.495C268.704 137.095 268.015 138.781 267.918 140.317C267.87 141.074 267.832 141.136 268.641 141.03L269.287 140.231L270.814 130.206V123.226ZM271.295 141.999C269.065 142.572 267.23 142.158 265.043 142.235C265.924 143.805 271.079 144.436 271.295 141.999Z" fill="#65242E"/>
<path d="M330.01 134.291C323.54 135.448 310.549 138.054 319.677 146.31C328.892 154.649 349.538 155.887 360.786 151.84C364.284 150.583 368.359 148.444 365.348 144.427C361.543 139.349 348.671 137.784 342.602 135.867C341.788 135.611 341.335 136.069 341.556 134.773C343.141 134.932 344.832 135.125 346.383 135.476C350.719 136.459 361.181 139.446 364.399 142.004C368.123 144.961 369.52 147.654 365.358 151.122C363.672 152.524 361.923 152.698 360.613 153.598C359.765 154.181 359.394 155.386 358.363 156.161C352.597 160.501 331.518 159.148 325.699 155.193C321.556 152.38 320.901 150.838 318.463 147.028C317.813 146.012 316.291 145.323 315.669 144.046C313.323 139.224 317.36 136.435 321.431 135.106C324.629 134.06 329.292 134.874 329.523 130.443L330 134.287L330.01 134.291ZM358.397 153.545C348.705 156.638 338.276 155.549 328.666 152.722L320.38 148.738C322.519 151.084 325.53 153.651 328.391 154.923C335.044 157.876 351.099 159.287 357.289 155.087C357.911 154.668 358.609 154.552 358.392 153.55L358.397 153.545Z" fill="#65242E"/>
<path d="M356.471 37.0869C356.717 38.4598 357.324 39.77 357.435 41.1814C357.555 42.7229 356.828 46.3068 357.006 46.8704C357.237 47.5882 358.543 47.8339 359.101 48.6576C360.161 50.2232 359.313 56.1048 359.342 58.523C359.376 61.1917 360.479 64.1831 359.631 66.9482C359.188 68.3981 357.493 68.8846 356.992 70.5658C356.182 73.2971 356.047 85.1954 357.223 87.5895C357.844 88.8612 364.058 91.1301 360.484 93.3074C357.497 95.1283 350.026 94.6754 347.439 92.1898C347.237 90.7832 351.698 89.3766 352.372 88.0808C353.673 85.5952 354.024 73.9715 353.562 71.0379C353.201 68.7498 350.763 68.0513 350.32 66.0955C349.352 61.8083 351.081 58.5134 351.596 54.5826C351.861 52.5643 351.1 49.7463 352.406 48.1759C352.806 47.6942 353.745 47.5641 353.986 46.8704C354.511 45.3531 353.962 41.8462 354.684 39.3847C354.814 38.9415 355.609 36.2487 356.462 37.0821L356.471 37.0869ZM351.861 59.8815C350.951 61.8757 350.667 64.4047 351.929 66.4231C353.292 68.6052 356.857 70.1564 358.162 67.4106C358.586 66.5194 358.644 52.5691 358.427 50.7771C358.047 47.6219 355.248 49.3127 353.109 48.6383L353.427 50.0883L357.917 50.3195C356.418 51.991 354.54 51.6105 352.627 51.0469C352.367 51.3552 352.81 57.7378 352.656 59.0096C352.55 59.9055 351.919 59.7369 351.857 59.8815H351.861ZM355.513 69.3326C354.92 68.5523 354.641 69.3423 354.554 70.0456C354.072 73.8366 354.814 78.6297 354.573 82.5845C354.501 83.7936 354.227 87.3534 353.976 88.2398C353.49 89.9739 350.195 90.5135 349.265 91.9393L360.33 92.421C361.255 91.5684 356.462 89.3092 356.139 88.919C355.084 87.6473 355.566 83.4612 355.518 81.6018C355.494 80.7829 355.026 79.9592 355.021 79.1692C355.007 77.5554 356.197 70.2238 355.518 69.3278L355.513 69.3326Z" fill="#65242E"/>
<path d="M376.207 105.423L374.762 108.062L376.207 109.267C374.323 108.375 373.379 109.874 372.011 110.129C368.856 110.717 356.746 111.131 359.91 117.147C363.884 124.705 383.35 126.69 390.904 126.131C403.293 125.216 412.696 119.021 395.176 113.641C390.075 112.075 384.145 110.726 378.856 110.235V109.262C384.906 110.273 402.503 112.489 405.76 117.976C408.187 122.066 403.313 123.52 401.101 125.134C400.509 125.568 400.393 126.406 399.483 127.008C391.708 132.167 375.065 131.387 367.213 126.685C363.952 124.734 364.569 124.32 362.945 121.81C362.343 120.881 359.751 119.676 358.947 118.111C355.166 110.774 366.731 109.137 371.577 109.19L376.211 105.423H376.207ZM396.414 126.117C386.087 128.487 374.901 127.292 365.142 123.231L367.873 125.553C374.747 129.099 384.034 130.404 391.636 128.79C392.118 128.689 397.652 127.345 396.414 126.117Z" fill="#65242E"/>
<path d="M181.191 124.787C181.89 125.351 180.479 132.678 180.348 134.06C180.064 137.061 180.363 139.937 179.732 143.068C179.424 144.605 179.265 146.71 177.694 147.288C177.747 145.294 178.711 143.328 178.894 141.267C179.241 137.379 178.976 132.967 179.38 129.002C177.781 129.209 176.548 129.652 174.857 129.441C173.306 129.253 172.578 128.304 171.201 128.039C171.543 134.754 169.65 142.37 170.218 148.988C170.522 152.529 172.126 155.829 176.191 155.443C184.674 154.644 179.987 140.53 180.845 135.515C180.941 134.946 181.129 134.378 181.779 134.291C181.89 135.024 182.203 135.698 182.27 136.454C182.56 139.73 183.012 145.867 182.767 148.988C182.593 151.161 182.217 152.972 180.604 154.523C178.556 156.489 175.613 155.925 176.519 159.779L179.395 160.506C182.651 166.104 169.659 164.75 169.245 162.871C168.518 159.586 174.462 160.607 174.616 158.603C174.818 155.988 172.208 156.368 170.714 154.615C167.251 150.544 169.573 141.58 169.775 136.478C169.876 133.93 169.809 131.295 169.775 128.737C169.756 127.254 168.561 125.861 170.261 124.932C173.797 122.99 177.627 122.933 181.187 124.782L181.191 124.787ZM178.899 125.158C178.398 124.623 175.324 124.585 174.433 124.778C173.985 124.874 170.488 126.223 171.201 127.066C172.27 127.162 172.945 128.183 173.942 128.419C175.873 128.867 179.881 128.578 180.334 126.112C178.229 127.331 176.403 127.812 173.961 127.432C173.537 127.364 172.511 127.225 172.646 126.598C174.496 126.55 176.456 126.83 178.234 126.165C178.74 125.977 179.616 125.914 178.899 125.158ZM175.527 160.284L171.206 161.966C172.766 163.998 176.196 163.257 178.378 162.645L178.412 161.248L175.045 161.72L175.527 160.284Z" fill="#65242E"/>
<path d="M323.753 74.6219C322.737 75.595 320.28 76.6981 320.406 78.2444L323.272 81.838C312.515 77.965 328.07 68.8607 332.578 73.7789C332.708 76.1056 332.106 78.8851 332.159 81.1395C332.203 82.8688 333.248 84.55 332.853 87.3343C332.265 91.4963 328.383 96.0388 329.052 100.605L330.006 98.6834C329.153 103.558 330.102 108.342 330.112 113.26C330.719 115.317 336.567 116.945 333.349 119.103C331.523 120.327 322.472 120.38 321.88 118.092C321.6 116.502 323.657 116.213 324.51 115.071C325.512 113.732 326.21 108.896 326.205 107.104C326.205 105.548 325.358 104.281 325.362 103.727C325.362 103.081 326.49 102.219 326.663 100.866C327.448 94.8345 323.753 92.9221 323.753 89.7766V74.6171V74.6219ZM326.986 73.2876C326.417 73.4225 325.411 73.856 325.242 74.4293C324.283 77.6278 331.446 75.0844 331.446 74.3811C330.473 72.9071 328.575 72.9167 326.991 73.2876H326.986ZM331.451 76.0671C329.312 76.9679 327.593 77.1895 325.247 77.0787C325.15 77.8012 324.852 78.519 324.775 79.2464C324.466 82.1029 324.751 87.368 325.237 90.2246C325.618 92.4453 327.308 93.6351 327.583 95.0995C327.891 96.7517 327.41 98.8857 327.612 100.61C329.414 99.4686 328.238 96.6121 328.667 94.6948C329.351 91.6649 333.07 87.5414 331.841 83.6203C331.639 82.9748 330.748 82.5991 330.671 82.0981C330.517 81.048 332.169 77.7242 331.451 76.0671ZM324.235 117.451H331.215C333.836 117.451 328.744 114.537 328.551 114.334C327.511 113.226 328.089 113.125 328.089 112.398V103.977C327.217 104.156 327.183 104.922 327.106 105.644C326.817 108.318 327.077 111.386 326.422 114.103L323.277 118.414C326.451 119.127 329.741 119.122 332.901 118.414C332.887 117.615 333.209 117.374 332.28 117.547C330.844 117.812 329.428 118.636 327.848 118.458L324.24 117.456L324.235 117.451Z" fill="#65242E"/>
<path d="M141.363 160.771L145.236 161.465C149.99 162.953 145.929 171.027 142.239 171.99C140.062 172.559 134.696 173.021 133.549 170.743L131.738 165.579L135.322 165.607L135.852 164.1C137.48 164.341 139.6 163.531 140.881 164.856C139.816 165.786 135.785 163.97 136.074 166.055L144.73 165.097C145.101 165.473 141.555 169.938 144.243 169.904L146.108 163.955C145.602 161.229 137.687 162.341 135.775 163.078C134.392 163.608 134.787 165.983 132.711 163.411C134.046 161.725 136.55 161.942 138.472 161.238L134.628 160.757C135.356 158.916 137.254 160.285 138.607 160.179C140.375 160.039 147.423 157.211 146.43 154.995C144.263 150.154 124.864 147.433 120.187 150.886C119.151 151.72 120.037 152.996 120.196 154.017L123.077 152.582L121.868 154.504C125.76 156.97 131.295 156.956 135.587 155.703C136.242 155.511 139.32 153.242 138.487 155.703C138.386 156.007 133.135 157.765 132.408 157.842C129.426 158.151 122.378 156.831 119.955 154.976C117.778 153.309 117.407 150.655 120.187 149.446C122.966 148.237 129.758 147.972 132.885 148.304C135.784 148.613 148.348 151.917 148.006 155.631C146.816 158.107 144.089 160.453 141.372 160.766L141.363 160.771ZM140.399 167.024L133.66 166.547C134.537 170.685 135.361 171.889 139.908 171.349L140.394 167.028L140.399 167.024Z" fill="#65242E"/>
<path d="M209.559 209.024C211.009 210.782 209.723 220.508 207.897 221.895C204.457 224.506 198.292 224.786 194.438 222.95C190.377 221.014 192.318 214.448 190.599 210.643C190.965 204.506 206.408 205.194 209.559 209.024ZM196.095 207.555C194.592 207.829 192.896 208.971 191.914 210.137C193.166 212.892 198.918 214.448 201.707 214.149C204.212 213.884 211.645 211.722 206.982 208.957C204.289 207.357 199.13 207.001 196.095 207.555ZM194.216 213.788C194.168 213.721 193.171 213.417 192.863 213.22C192.448 213.793 193.359 219.28 193.682 220.359C193.927 221.192 193.513 221.611 194.78 221.399C194.741 220.084 194.741 214.583 194.216 213.788ZM205.363 221.881L206.326 213.701C204.838 214.482 204.515 217.647 204.414 219.241C204.351 220.2 203.87 222.314 205.363 221.881ZM197.184 222.363C197.073 219.906 197.555 216.081 195.748 214.183C195.835 216.563 195.445 219 196.085 221.322C196.321 222.175 195.931 222.57 197.184 222.363ZM202.955 222.849L203.436 214.665C202.632 215.248 200.363 214.935 200.189 215.845L200.556 222.844H202.955V222.849ZM198.147 215.147V222.844C199.409 222.945 198.947 222.912 199.096 222.117C199.52 219.834 199.684 217.464 199.592 215.142H198.152L198.147 215.147Z" fill="#65242E"/>
<path d="M123.072 188.2C130.457 188.132 131.006 193.513 123.265 194.404C114.016 195.464 111.656 190.652 121.073 187.641L121.141 177.385C120.837 175.776 119.045 175.377 118.053 174.216C114.864 170.492 116.449 164.996 115.413 160.588L117.302 159.812L116.911 160.959C117.33 163.151 124.672 162.091 126.425 161.474C128.651 160.689 129.402 159.572 126.579 158.95C124.229 158.43 119.079 159.548 119.224 156.445C121.825 157.274 129.253 157.592 129.797 160.545C131.04 167.269 129.498 173.642 123.135 176.957L123.068 188.205L123.072 188.2ZM117.306 162.688C117.316 166.455 116.68 171.133 119.686 174.018C122.099 176.34 123.92 175.242 125.963 173.031C128.867 169.89 128.848 165.275 128.848 161.243C125.548 163.411 121.054 164.418 117.306 162.688ZM117.542 193.007C118.8 193.364 123.487 193.007 125.24 193.007C125.654 193.007 128.318 191.601 127.403 190.603C127.061 190.228 125.886 191.427 125.226 191.552C123.598 191.861 121.42 191.369 119.705 191.562L121.584 190.555L121.382 189.154C119.484 189.496 117.542 190.257 116.348 191.808C116.348 191.894 117.446 192.983 117.538 193.012L117.542 193.007Z" fill="#65242E"/>
<path d="M173.604 228.143C173.325 231.51 170.521 236.501 167.799 238.457C165.285 240.258 162.332 240.181 160.164 241.41C158.594 242.301 157.144 244.598 154.981 245.851C151.71 247.749 147.5 248.818 144.229 250.495C142.582 251.342 138.319 254.975 137.249 255.081C134.61 255.341 136.079 253.308 137.273 252.2C139.725 249.931 149.427 243.23 152.438 241.858C154.861 240.754 157.038 240.836 159.423 238.726C160.641 237.647 159.206 237.59 159.37 236.776C159.625 235.499 164.283 233.379 165.675 232.479C168.146 230.884 170.353 228.374 173.599 228.138L173.604 228.143ZM161.576 239.685C166.224 238.962 170.632 234.56 171.677 230.065C170.617 230.879 169.929 232.397 169.052 233.461C168.368 234.295 167.303 235.639 166.667 236.352C165.203 237.994 162.857 238.038 161.571 239.685H161.576ZM155.795 242.58C151.739 241.597 148.285 245.673 145.694 248.346C146.705 248.332 157.346 244.141 155.795 242.58Z" fill="#65242E"/>
<path d="M53.1524 196.957C58.4031 196.379 58.1815 203.162 55.7103 206.254C53.2391 209.347 43.4893 211.346 39.6886 210.7C36.596 210.175 30.406 204.949 33.1036 201.938C33.7684 201.196 36.702 199.765 37.7569 199.375C42.5307 197.617 48.3257 197.492 53.1428 196.962L53.1524 196.957ZM44.6358 204.554C46.4566 204.51 56.5533 202.752 56.1487 200.531C55.8259 198.768 52.6225 198.296 51.134 198.311C47.7043 198.344 37.8292 200.088 35.0593 201.957C30.2037 205.238 38.9949 206.524 41.5095 206.524C43.788 206.524 46.5867 205.373 48.9663 205.527C48.7833 206.278 46.8613 206.717 46.2061 206.851C43.0124 207.507 39.1635 207.666 35.9746 206.972C37.5691 210.021 42.7908 209.674 45.7871 209.323C48.7833 208.971 54.8866 206.957 55.7055 203.605C54.2941 204.313 53.0609 204.038 51.7555 204.221C49.0193 204.612 41.495 206.375 39.3273 205.291L37.4197 203.123C40.9121 201.403 45.0597 199.905 48.9615 201.196C49.0145 201.702 49.0097 202.193 48.7399 202.651C47.8921 204.101 45.3969 203.345 44.6358 204.554Z" fill="#65242E"/>
<path d="M294.397 148.252C295.992 147.818 299.537 149.297 299.026 151.151C297.706 155.973 278.621 152.577 292.494 147.457L292.383 139.441C291.492 138.059 289.84 137.625 288.886 136.199C286.613 132.789 288.231 128.005 287.422 124.161C288.433 121.921 300.476 122.389 301.098 124.494C300.081 128.27 301.637 133.362 298.737 136.474C297.774 137.505 296.006 137.702 295.36 138.391C293.776 140.077 294.619 145.92 294.397 148.252ZM288.621 124.195C289.508 126.743 299.667 126.42 299.681 124.913C296.666 122.803 292.037 123.728 288.621 124.195ZM299.205 126.599C295.592 127.432 292.123 127.259 288.621 126.117C288.568 130.187 288.082 134.537 291.752 137.182C293.294 137.028 291.907 134.802 292.904 133.535C293.564 132.692 295.447 132.124 296.078 133.328C297.177 133.184 295.828 130.419 297.042 130.462C298.997 130.529 296.468 136.122 295.356 136.705C299.961 136.633 299.166 129.86 299.205 126.608V126.599ZM292.952 148.738L288.626 150.183C287.234 152.023 296.859 153.334 297.764 150.891C298.068 150.072 295.606 149.282 295.124 149.205C293.573 148.955 295.11 150.501 294.879 150.655H292.475L292.952 148.738Z" fill="#65242E"/>
<path d="M409.888 79.4341L409.561 80.8696C405.794 81.2839 402.051 82.1847 399.854 85.547C399.166 88.2061 405.962 91.0963 407.986 91.6888C415.004 93.7602 426.734 94.2082 433.468 91.2119C445.819 85.7156 421.599 81.0767 418.188 80.5228C415.775 80.1326 412.215 80.913 410.38 78.9524C416.469 79.6123 433.059 80.7781 437.062 85.7108C440.183 89.5549 435.718 91.0385 433.786 92.4885C433.117 92.9895 432.876 93.8228 432.211 94.2804C427.297 97.6476 410.794 98.0763 406.304 94.3382C405.201 93.4182 404.739 92.2283 403.886 91.4624C402.147 89.9113 398.684 88.8756 398.795 85.942C398.968 81.4188 406.531 80.3734 409.898 79.4293L409.888 79.4341ZM429.624 93.8758C421.869 94.7911 414.05 94.661 406.526 92.4307C410.688 96.9106 421.175 96.3951 426.753 95.0897C427.418 94.9356 429.393 94.5357 429.624 93.8758Z" fill="#65242E"/>
<path d="M341.557 164.62L340.762 165.998C335.247 166.002 331.6 160.843 326.162 161.725C324.813 162.871 332.896 167.081 333.146 167.486C333.614 168.242 333.195 169.398 332.66 169.408C331.345 169.442 324.495 161.59 321.349 162.688C321.817 163.753 326.046 163.931 323.108 165.516C321.166 165.193 320.116 162.182 318.835 161.595C317.081 160.79 315.497 161.542 313.016 160.193C309.894 158.493 309.938 157.414 309.803 154.027C312.717 153.762 315.183 154.191 317.833 155.381C321.475 157.019 321.248 157.597 325.598 158.685C331.465 160.154 336.181 161.869 341.567 164.62H341.557ZM325.675 162.202C323.748 158.902 320.526 159.788 317.712 158.863C316.667 158.517 311.494 154.711 311.243 154.991C311.267 158.974 317.852 159.808 320.998 160.872C322.66 161.436 323.864 162.958 325.675 162.202ZM320.381 158.353C318.777 156.489 316.079 155.212 313.642 154.995C315.371 156.513 318.064 158.367 320.381 158.353Z" fill="#65242E"/>
<path d="M323.754 23.1318C323.778 23.1463 323.624 23.5846 324.023 23.6376C332.41 24.7504 329.606 14.856 330.714 9.63908C332.429 8.46852 334.332 8.32882 335.84 9.87993L336.162 10.4291C335.132 14.514 336.331 19.2733 335.743 23.3438C335.401 25.733 333.34 25.0972 333.335 27.2167C333.33 29.4856 336.35 29.0906 335.093 30.8536C334.072 32.2795 330.42 31.8797 329.544 30.1022L331.957 28.58C332.771 25.2899 330.358 25.6222 330.006 23.1222C329.284 23.7339 327.665 23.8736 327.135 24.3361C326.422 24.9575 326.947 25.8294 325.493 26.5423C324.399 27.077 315.545 28.2909 315.097 27.9296L315.695 26.8458L321.832 26.0124C318.662 26.1184 316.2 26.2677 313.416 24.5625C312.742 24.1482 310.762 22.6308 310.772 21.677C315.006 22.7079 319.375 23.4835 323.763 23.1174C322.439 22.3418 322.106 22.862 320.685 22.5875C318.166 22.1009 314.139 21.5518 311.918 20.7618C309.283 19.8273 315.194 18.4207 316.311 18.3099C319.731 17.963 324.481 18.0353 327.559 19.5816C328.315 19.9621 329.351 20.0874 329.057 21.1857C327.506 21.2772 326.605 20.0199 325.199 19.5142C322.434 18.5266 316.966 17.9775 314.625 19.991L319.197 21.1809L327.612 21.1905C326.784 22.9198 325.406 22.9728 323.763 23.1125L323.754 23.1318ZM334.823 12.0573L331.456 11.5804C331.895 14.5766 330.83 17.6114 330.946 20.492C331.013 22.1539 331.548 25.9161 333.879 24.3553C335.551 23.2378 334.529 14.2828 334.819 12.0573H334.823ZM316.774 25.0538C319.187 25.391 322.222 24.8082 324.712 25.0538L317.756 24.0711L315.574 24.1C315.396 24.5866 316.576 25.0297 316.774 25.0586V25.0538Z" fill="#65242E"/>
<path d="M94.6803 205.994L97.084 205.277C94.0396 210.19 89.2706 209.424 85.0942 211.091C83.2348 211.833 80.9563 214.265 79.1403 215.243C76.9099 216.443 74.4966 216.635 72.3578 217.604C69.4964 218.895 67.295 221.905 64.0145 222.739C60.9942 223.505 63.0511 220.951 64.1253 219.959C65.951 218.278 79.8869 210.763 82.2569 210.18C85.4892 209.386 90.0847 209.954 92.7582 207.449L84.0971 209.366L85.0557 206.967C84.4728 206.433 72.7624 210.811 71.1101 211.544C66.7651 213.47 62.1262 217.001 57.5403 218.186C56.4228 218.475 55.1125 219.015 54.2695 217.796C54.862 217.069 55.5461 216.529 56.3313 216.019C61.7409 212.502 74.9494 207.146 81.202 205.277C82.9699 204.747 85.2676 204.886 86.997 204.332C88.7263 203.778 90.2919 202.044 92.1657 201.317C93.1918 200.917 97.1852 199.669 97.5561 200.999C97.5127 203.118 95.8171 204.462 94.6899 205.999L94.6803 205.994ZM96.1206 201.673C95.6678 201.24 92.4644 203.441 91.7563 203.798C90.3256 204.511 87.7774 204.236 87.4642 206.963C90.9326 207.242 94.7766 204.857 96.1206 201.673ZM66.2834 212.743C62.9355 213.817 58.8651 215.296 56.1819 217.546L60.6859 216.038L66.2834 212.743Z" fill="#65242E"/>
<path d="M158.204 230.547C156.889 238.414 150.27 238.775 144.547 241.67C142.076 242.922 139.08 244.483 136.705 245.861C134.205 247.311 121.844 256.651 119.705 254.604C119.566 253.857 119.778 253.486 120.163 252.899C122.388 249.459 138.636 241.863 143.126 239.29C144.812 238.322 157.404 229.748 158.199 230.547H158.204ZM137.514 244.016L154.836 235.114L156.763 231.992C155.27 232.686 154.88 234.391 153.57 235.292C150.304 237.537 144.489 239.377 140.867 241.357C139.696 241.997 138.193 242.826 137.519 244.021L137.514 244.016ZM132.697 247.378L132.466 246.429C129.07 248.626 124.821 250.105 122.114 253.159C126.175 252.47 128.949 248.838 132.697 247.378Z" fill="#65242E"/>
<path d="M438.135 58.4074C438.8 59.1348 439.349 60.5703 438.911 61.4952C438.256 62.8729 432.841 66.3942 431.189 66.8037C422.725 68.9184 415.557 67.4251 409.406 61.3989C406.328 58.3833 407.922 56.6106 411.492 55.2859C416.94 53.2628 427.889 54.4478 433.487 56.0904C434.652 56.4324 437.388 57.5837 438.14 58.4123L438.135 58.4074ZM417.494 55.0355C415.157 55.2281 405.851 57.0538 409.916 60.4065C414.579 64.2506 432.215 65.6572 436.83 61.8517C437.687 61.1435 438.27 60.3439 437.576 59.2215C435.808 56.3698 420.948 54.7512 417.499 55.0355H417.494ZM432.99 64.5203C427.109 65.4741 421.02 65.1514 415.186 64.0386C418.703 67.136 425.842 66.611 430.235 65.8451C430.837 65.7391 432.836 65.2477 432.99 64.5155V64.5203Z" fill="#65242E"/>
<path d="M348.884 35.5407C349.067 35.8586 350.671 36.1862 350.7 37.0822L348.778 37.3327L349.732 38.7633L348.311 40.6468L350.695 43.0987C349.881 44.6788 344.231 44.7992 343.961 43.5805L347.15 40.2229L345.888 38.0649L346.846 37.7758C346.567 35.3817 347.863 32.9828 347.314 30.1263C347.005 28.5174 344.881 27.7033 344.9 24.8515C344.91 23.1029 346.085 20.5499 346.143 19.0614C346.206 17.385 344.496 15.7279 347.781 14.6971C355.503 12.2692 347.872 22.0287 353.586 23.8785C353.812 24.8226 349.843 28.1368 349.38 29.2833C348.966 30.3093 348.412 34.7411 348.879 35.5551L348.884 35.5407ZM347.367 17.7993C348.841 20.0874 353.865 14.8319 347.617 16.3541C347.145 16.4601 347.251 17.6259 347.367 17.7993ZM350.132 20.3283L346.851 19.283L346.369 24.5721C346.504 24.7167 348.489 24.1145 348.778 23.8544C349.467 23.233 348.85 22.101 349.732 22.1732L350.695 26.499C352.28 23.5365 351.119 24.1434 350.32 22.2936C350.079 21.7445 350.411 20.7955 350.136 20.3331L350.132 20.3283ZM348.744 25.5645L345.888 25.7909L348.055 28.8979C349.115 28.1079 348.812 26.7206 348.744 25.5693V25.5645Z" fill="#65242E"/>
<path d="M253.327 189.476C250.341 192.463 241.241 193.499 237.628 191.307C236.188 190.435 233.49 185.69 233.837 184.235C235.196 178.599 249.994 178.05 253.462 181.244C255.784 183.383 255.447 187.352 253.322 189.476H253.327ZM240.499 186.75C240.427 186.726 239.897 185.705 239.565 185.546C239.531 183.985 247.643 183.176 249.16 183.864C248.086 186.461 242.71 187.545 240.499 186.745C243.828 187.631 245.047 187.882 248.544 186.894C250.235 186.417 254.127 185.358 253.399 183.248C252.672 181.138 250.692 180.844 249.647 182.896L250.605 180.497C245.451 179.861 238.211 179.269 235.297 184.592C235.398 185.868 239.43 186.466 240.499 186.75ZM237.402 187.453C237.031 187.212 236.626 186.817 236.173 186.75C235.388 187.776 238.804 190.372 239.661 190.714C242.436 191.827 253 191.143 253.009 186.75C248.972 188.518 245.21 189.024 240.807 188.609C239.083 188.445 238.621 188.229 237.407 187.448L237.402 187.453Z" fill="#65242E"/>
<path d="M395.869 76.6162C395.971 79.4487 396.077 84.5211 394.497 86.8959C393.716 88.0665 392.151 88.3844 391.558 89.7332C390.657 91.7805 391.337 95.3644 390.686 97.6766C400.643 100.278 387.989 104.459 385.32 100.88C383.461 98.3847 388.046 98.245 389.463 97.2575C389.843 96.6843 389.81 92.1948 389.694 91.2121C389.371 88.4952 388.23 89.0925 387.054 87.5944C385.474 85.5857 384.665 79.6028 385.431 77.3436C386.245 74.9447 393.87 75.7058 395.874 76.6114L395.869 76.6162ZM394.492 77.0305C391.818 77.175 389.101 75.5709 386.804 77.7482C386.794 78.5623 394.704 79.5113 394.492 77.0305ZM394.487 78.9525C392.107 79.8533 389.241 79.5547 386.794 78.9525C385.209 91.2699 395.807 90.9182 394.487 78.9525ZM389.679 98.6882C389.304 98.3799 385.44 99.6517 386.317 100.605C387.049 101.405 392.261 101.198 393.533 100.605C393.702 98.9243 391.809 99.3819 390.884 98.6882L391.129 100.124H388.726C388.441 99.512 390.768 99.5842 389.684 98.6882H389.679Z" fill="#65242E"/>
<path d="M382.565 33.8161C382.44 34.0328 381.977 38.4983 382.04 38.7392C382.266 39.6062 384.95 39.6014 384.844 41.1236C383.75 43.2913 378.702 43.7345 378.124 41.1622C377.657 39.0908 380.344 40.0157 380.571 39.1968C380.287 37.6938 380.884 35.3864 380.552 34.0569C380.426 33.5463 378.355 33.132 378.605 31.7929C377.714 32.8526 376.356 33.2621 375.296 34.0087C374.752 34.3941 374.646 35.3335 373.971 35.5695C371.115 36.5715 363.08 35.2756 359.867 34.6591L359.804 32.8093C357.434 32.2842 355.247 31.3979 352.872 30.8198C352.347 30.6898 351.952 31.1715 352.14 30.1069C352.752 26.6578 358.191 26.2291 361.057 26.0268C366.042 25.6751 374.145 25.8727 376.693 30.8295C374.742 30.8102 373.808 28.9315 371.992 28.0789C368.605 26.4844 360.011 26.5278 356.466 27.6935C349.833 29.8709 359.26 31.6435 361.683 32.1301C367.55 33.3055 372.343 33.7631 378.114 31.7784L378.615 17.8425C380.094 17.7558 387.002 17.462 386.722 19.9235C384.93 23.0113 386.188 28.2186 385.253 31.4653C384.873 32.7852 382.767 33.4789 382.565 33.8257V33.8161ZM385.349 19.2877C377.729 15.9783 379.092 22.809 384.757 20.3667C385.436 20.0728 385.484 20.2511 385.349 19.2877ZM380.532 32.7563C380.985 30.6512 380.07 27.6983 380.21 25.8389C380.335 24.1385 382.382 22.0334 379.583 20.7232C380.412 24.4179 377.189 30.2177 380.537 32.7563H380.532ZM384.868 21.2049L381.505 21.6866V32.7515C385.894 32.3998 384.107 24.5142 384.868 21.2049ZM373.316 34.2014L361.288 33.238C363.562 35.3431 368.605 35.4394 371.592 35.1119C372.059 35.0589 373.403 34.8999 373.316 34.1966V34.2014Z" fill="#65242E"/>
<path d="M317.973 129.966C317.713 132.336 314.481 131.541 312.583 132.032C311.86 132.22 307.578 133.622 307.39 133.82C306.547 134.72 310.319 135.746 310.882 135.66C311.229 135.607 315.42 133.752 315.936 133.444C317.039 132.784 316.668 131.652 317.973 131.888C317.896 134.836 314.606 135.819 312.202 136.223C312.328 137.505 314.813 135.939 315.083 136.223C315.059 137.991 312.554 139.359 314.596 140.795L314.124 141.276C310.502 142.49 301.961 143.372 304.505 137.187C306.027 137.004 305.208 139.33 306.894 137.428C301.682 131.782 314.481 130.664 317.968 129.971L317.973 129.966Z" fill="#65242E"/>
<path d="M385.832 136.218C379.757 134.643 374.02 131.705 367.551 131.893C367.44 132.586 368.365 132.519 368.871 132.726C369.641 133.029 380.899 136.127 380.056 137.177C377.975 138.28 377.633 136.955 376.207 136.454C373.187 135.395 369.203 133.68 366.308 132.88C363.712 132.167 361.279 132.62 358.764 131.762C356.891 131.122 355.619 129.388 353.634 128.954L353.591 125.635C357.531 125.481 360.6 128.135 364.068 129.349C370.166 131.483 376.862 131.392 383.414 134.065C384.334 134.441 385.976 134.932 385.827 136.218H385.832ZM362.734 131.406C361.033 128.752 358.051 127.268 355.036 126.599C353.976 127.74 359.217 130.63 360.06 130.953C360.903 131.276 361.794 131.493 362.729 131.406H362.734Z" fill="#65242E"/>
<path d="M291.598 23.2137C291.81 22.8476 293.342 22.8909 292.952 21.6915C290.645 21.6289 283.597 19.6057 287.995 16.9707C290.592 15.4148 302.48 15.3425 303.02 18.6278C302.186 21.1712 299.686 21.2628 297.774 22.4044L299.128 24.9045C299.359 26.7928 293.742 27.13 292.962 26.7446C292.085 26.3111 291.083 24.0952 291.598 23.2137ZM298.246 17.8282C298.063 16.8647 297.23 17.043 296.56 16.8744C295.072 16.4986 287.663 16.5564 288.145 18.5459C290.047 20.1404 300.563 21.2676 301.613 19.0276C302.061 18.069 299.527 17.5247 298.723 18.069C298.4 18.2858 298.419 19.1529 297.914 19.2829C296.493 19.649 293.954 19.1721 292.475 18.7868L298.246 17.8233V17.8282Z" fill="#65242E"/>
<path d="M127.885 223.813C127.923 224.689 128.126 224.815 127.172 224.771C125.014 224.665 122.393 223.5 119.965 223.307C110.326 222.546 99.7432 224.747 90.8893 228.427L86.9875 231.019C85.2581 228.822 93.4135 225.296 94.9068 224.747C104.589 221.163 118.275 219.627 127.89 223.813H127.885Z" fill="#65242E"/>
<path d="M261.188 179.534L260.268 182.857C263.832 183.517 266.675 186.591 269.854 187.949C273.948 189.698 280.312 190.642 284.146 192.906C284.801 193.291 285.442 193.474 285.249 194.443C281.27 195.888 277.609 192.848 273.958 191.543C270.721 190.382 259.502 187.52 258.51 184.36C257.864 182.303 259.006 179.948 261.188 179.529V179.534ZM266.959 187.241C264.656 186.692 263.235 184.062 260.706 184.351C261.554 185.719 263.996 186.947 265.499 187.491C265.952 187.655 267.065 188.127 266.954 187.236L266.959 187.241Z" fill="#65242E"/>
<path d="M98.0528 173.763L97.8216 174.712C91.0391 172.843 82.3972 173.979 75.7978 176.287C72.1031 177.578 66.9247 179.784 65.8023 183.864C61.3176 182.202 67.3004 177.958 69.5115 176.735C73.9143 174.302 88.6306 170.338 93.1635 171.677C94.7917 172.159 96.1356 173.902 98.0577 173.763H98.0528Z" fill="#65242E"/>
<path d="M313.161 8.21818C314.283 9.75002 307.896 11.0025 306.932 10.646L306.431 14.9477C308.503 13.7819 308.295 12.8763 310.873 12.4139C311.504 12.2983 311.822 11.5083 311.716 12.7752C310.632 14.3166 307.573 14.3118 307.009 16.2483C306.325 18.599 307.645 21.7687 306.431 24.0857L308.353 23.6088L308.286 25.4634C307.265 26.3209 302.491 26.3739 303.772 24.5578C306.942 23.2283 304.923 18.2378 305.477 15.2849L300.126 12.8282L298.738 8.96001C299.263 6.34914 311.085 7.70756 313.166 8.20854L313.161 8.21818ZM300.651 9.65368H310.034C310.145 9.65368 310.916 8.82032 310.757 8.69507L303.059 9.16715L307.385 8.68544C307.24 7.83763 304.895 8.15555 304.239 8.18446C303.368 8.22299 300.313 8.13629 300.651 9.64886V9.65368ZM305.945 10.6219L300.174 10.1402C300.521 12.9052 303.642 12.515 305.227 13.9843L305.945 10.6219Z" fill="#65242E"/>
<path d="M330.488 138.627C330.242 143.352 334.693 145.727 338.547 147.177C344.751 149.514 348.812 148.998 355.031 147.524C357.305 146.985 357.589 148.28 355.055 148.998C347.304 151.2 337.4 149.056 331.215 143.921L329.293 140.077L327.607 141.753C328.657 146.464 339.014 150.487 343.321 150.631C346.197 150.727 349.992 149.648 353.109 150.188L342.767 151.667C336.384 150.901 327.728 148.107 326.379 141.055C327.627 139.875 328.489 138.251 330.493 138.632L330.488 138.627Z" fill="#65242E"/>
<path d="M259.267 14.9523L260.712 15.4292V16.8695C257.817 16.277 254.098 17.7125 251.444 17.2405C250.741 17.1152 247.345 15.7279 248.192 14.9475L249.638 14.4706C247.985 14.0371 245.249 13.6662 245.76 11.378C246.073 9.98108 255.49 9.51864 257.09 9.65833C262.788 10.1641 268.439 13.6614 259.267 14.9475V14.9523ZM262.634 13.0207C263.559 11.7345 257.022 10.1449 256.15 10.1352C255.163 10.1256 249.715 10.959 248.544 11.2046C247.846 11.3491 247.229 11.773 246.757 12.3077C251.82 14.5766 257.35 14.302 262.634 13.0207Z" fill="#65242E"/>
<path d="M312.679 28.4256L310.761 29.3794C312.115 29.4516 313.767 30.6318 314.976 30.7522C316.253 30.8823 316.739 29.7503 317.833 29.4805C319.938 28.9699 321.605 29.8803 323.267 31.075C324.196 32.7562 319.731 31.075 319.452 31.0557C318.816 31.0075 317.997 31.9132 317.019 31.3062V36.605L318.459 36.6002C318.522 34.8757 316.817 34.8227 317.501 32.7562C318.637 33.4161 321.094 31.1761 321.349 32.5201C321.658 34.1338 319.639 40.5743 316.773 38.0502L316.055 33.233C312.794 33.3005 308.695 33.3679 306.445 30.5885C308.117 28.1317 309.904 28.2233 312.683 28.4304L312.679 28.4256ZM316.051 31.311C313.141 31.7638 310.752 29.5961 307.871 29.8707C309.629 31.8072 312.905 31.9276 315.371 32.2407C316.325 32.3612 316.065 32.1299 316.051 31.3158V31.311Z" fill="#65242E"/>
<path d="M394.251 120.823C394.589 120.712 394.959 119.811 394.984 119.378C396.332 119.961 397.214 121.425 395.21 121.781C390.253 122.668 382.729 121.324 377.647 120.828C377.782 121.647 378.586 121.685 379.198 121.921C383.519 123.588 389.608 123.559 394.01 122.273C392.262 124.296 386.819 124.32 384.208 124.127C379.988 123.819 371.63 121.131 369.535 117.152C367.878 114.002 371.842 111.304 372.834 114.565H370.431C370.002 117.224 373.451 119.079 375.619 119.724C376.741 120.062 380.296 120.823 381.26 120.823C383.707 120.823 392.758 121.314 394.251 120.823Z" fill="#65242E"/>
<path d="M428.179 101.569C424.07 100.09 420.082 99.2805 415.674 99.6514C416.074 100.885 418.256 100.172 419.133 100.278C421.686 100.591 424.21 101.135 426.734 101.573C426.85 102.412 425.641 102.026 425.058 102.05C418.786 102.296 409.272 100.475 403.159 98.9096C402.649 98.7795 401.285 98.8663 401.714 97.9703C402.205 96.9539 404.368 97.1851 405.337 97.2236C408.246 97.3392 411.912 98.3364 414.947 98.6784C418.873 99.1264 422.977 98.6013 426.97 100.133C427.717 100.417 428.357 100.543 428.174 101.569H428.179Z" fill="#65242E"/>
<path d="M412.783 84.7282C412.639 83.8081 413.174 83.4276 413.997 83.2782C414.759 83.1433 419.638 83.6829 420.611 83.8804C422.408 84.2416 428.497 86.6213 429.648 87.8352C430.698 88.9431 429.826 89.2273 428.661 89.6705C422.692 91.9442 414.951 92.0598 409.445 88.3073C407.403 86.9151 405.404 84.6896 409.412 84.733L409.132 86.6598C411.126 87.9026 413.236 88.9383 415.553 89.42C418.092 89.9451 425.125 90.0511 427.341 88.948C427.991 88.6252 428.333 88.4422 428.179 87.6281C427.914 87.2716 420.269 84.733 419.759 84.733H412.779L412.783 84.7282Z" fill="#65242E"/>
<path d="M270.332 0.0287893C270.823 4.35937 272.244 9.98576 270.929 14.3404C270.549 15.5977 268.959 15.3038 271.291 17.1151C269.976 18.9938 267.027 18.6999 265.534 17.1151L267.447 15.9012C266.045 13.483 265.963 2.52405 267.408 0.708002C268.097 -0.159078 269.349 0.00470378 270.342 0.0287893H270.332ZM270.337 3.87766L267.451 4.35937V13.7431L268.656 14.4801C269.147 14.5138 270.337 13.4782 270.337 13.2614V3.87766Z" fill="#65242E"/>
<path d="M284.205 6.3586C286.849 9.22478 285.635 13.5168 282.326 15.2558L283.28 17.6066C282.519 19.1384 278.723 19.201 278.612 17.6066C278.574 17.0526 279.971 16.0603 279.956 15.1932C279.946 14.5573 279.036 13.8974 278.954 12.7943C278.737 9.86064 280.799 5.97323 284.21 6.3586H284.205ZM284.287 10.6217L280.443 10.1352C280.052 11.8549 280.11 13.3001 281.642 14.461C282.697 13.3819 284.238 12.2836 284.287 10.6217Z" fill="#65242E"/>
<path d="M277.524 165.603C278.973 175.94 291.864 177.385 300.405 176.639C302.568 176.451 304.36 175.574 306.214 175.222C306.908 175.092 307.597 174.929 307.39 175.916C306.325 177.992 293.815 177.804 291.281 177.602C283.603 176.976 278.473 173.512 275.64 166.292C275.192 165.155 277.129 165.612 277.528 165.608L277.524 165.603Z" fill="#65242E"/>
<path d="M302.096 111.68C302.52 112.879 300.699 112.966 299.88 113.062C295.039 113.645 287.611 111.863 282.851 110.471C282.302 110.312 280.033 109.907 280.448 109.035C280.915 108.053 282.625 108.236 283.526 108.342C287.187 108.77 291.961 110.36 295.737 111.058C297.693 111.42 300.087 111.516 302.096 111.675V111.68ZM298.242 112.166L288.622 110.24C288.507 110.914 289.432 110.89 289.937 111.078C291.831 111.781 294.615 112.393 296.624 112.581C297.163 112.634 298.353 113.024 298.242 112.166Z" fill="#65242E"/>
<path d="M274.186 167.506C272.384 170.709 277.818 175.064 280.279 176.567C282.741 178.069 285.848 178.831 288.695 179.698L296.797 180.969C293.093 182.01 288.073 180.81 284.393 179.669C280.154 178.349 272.037 174.071 272.861 168.825C272.991 168.007 273.102 167.221 274.181 167.51L274.186 167.506Z" fill="#65242E"/>
<path d="M242.903 110.717C243.149 112.08 242.576 111.507 241.848 111.8C240.466 112.354 238.924 112.778 237.498 113.25C231.01 115.389 224.039 117.6 217.402 118.896C217.156 117.533 217.729 118.106 218.456 117.812C220.306 117.07 222.344 116.492 224.247 115.88C230.278 113.949 236.713 111.8 242.898 110.717H242.903Z" fill="#65242E"/>
<path d="M325.675 44.3077L326.161 45.2615C324.899 45.1025 323.213 45.565 323.276 47.1883C323.777 47.6411 329.109 45.3338 329.35 44.274L331.451 44.7942C330.304 47.0101 327.356 46.8897 325.193 47.198L326.152 48.6335C324.813 48.5853 322.259 49.0959 321.547 47.6749C321.041 43.2142 329.765 42.694 330.439 40.1313C330.983 38.0647 324.822 36.0223 323.266 35.6417L324.032 34.7024C330.786 36.4895 335.926 43.0938 325.67 44.3173L325.675 44.3077Z" fill="#65242E"/>
<path d="M407.49 44.7845C407.398 43.5417 407.403 43.9752 408.212 43.8355C411.632 43.243 417.389 40.6273 419.518 43.3346L416.151 45.2614C417.48 45.4974 419.292 43.9415 420 45.7431L410.38 46.7065C410.028 44.2883 415.544 47.2075 415.192 44.7845H407.495H407.49Z" fill="#65242E"/>
<path d="M339.153 56.336L338.869 57.8196C337.973 58.4796 333.541 58.364 332.226 58.205C328.31 57.7329 321.576 53.2 327.356 50.0737C327.563 50.8445 326.349 51.4707 326.219 52.3522C326.06 53.4313 327.029 54.3321 327.905 54.8234C328.257 55.0209 331.032 56.3312 331.21 56.3312H339.149L339.153 56.336Z" fill="#65242E"/>
<path d="M437.321 68.8509C437.133 69.7565 436.372 69.7228 435.649 69.8192C430.215 70.5562 424.3 70.0504 418.77 69.8192C418.182 69.7951 414.728 69.7084 414.714 69.0821L420.716 68.321C424.155 69.1544 427.503 69.5831 431.063 69.3134L426.497 67.873L437.321 68.8461V68.8509Z" fill="#65242E"/>
<path d="M378.605 90.0222C380.392 92.2477 377.969 94.295 378.119 96.0002C378.143 96.2941 378.967 96.2218 379.068 96.5831C379.135 96.824 378.812 97.7103 379 98.4859C379.636 101.092 381.048 101.901 378.133 104.218C379.901 104.478 379.082 105.899 377.873 105.755C377.228 105.678 376.587 103.775 374.761 104.931L376.678 103.25C376.072 102.831 375.344 101.574 374.781 101.342C374.121 101.073 373.099 102.238 373.321 100.851C374.809 99.6757 376.674 98.5967 378.61 98.6786C379.275 98.139 376.799 96.2845 376.235 96.7324L376.206 95.3162L377.642 96.2796C378.09 94.9501 376.067 94.6755 375.792 94.2565C375.686 94.0975 376.221 92.161 375.238 91.477L378.6 90.027L378.605 90.0222Z" fill="#65242E"/>
<path d="M116.333 156.917L109.372 157.9L104.791 156.431C104.569 157.669 104.988 157.293 105.75 157.606C108.664 158.796 111.419 158.329 114.411 157.876C113.351 160.829 103.355 158.377 103.351 157.149C106.294 153.314 112.219 157.216 116.333 156.913V156.917Z" fill="#65242E"/>
<path d="M377.171 24.5818L376.067 25.4441L353.591 19.2878C361.684 19.8563 369.444 22.3997 377.171 24.5818Z" fill="#65242E"/>
<path d="M166.388 138.15V139.59L164.466 140.067L166.87 140.563L166.846 141.965C164.249 143.155 160.097 143.805 160.179 139.908C160.637 138.487 164.982 137.899 166.388 138.15Z" fill="#65242E"/>
<path d="M398.707 33.8355C399.449 35.4589 399.343 37.6025 398.11 38.9995C396.39 37.4917 389.82 38.0746 389.227 35.3674C388.789 33.3731 397.291 32.4868 398.712 33.8404L398.707 33.8355ZM391.145 36.0948C392.985 36.3597 395.123 37.1208 396.886 37.3809C397.672 37.4966 397.811 37.5833 398.341 36.8414C397.754 32.771 393.919 34.6207 391.12 34.6882L391.145 36.0996V36.0948Z" fill="#65242E"/>
<path d="M345.406 38.5273C343.946 39.9243 341.022 33.2526 340.801 32.3036C339.341 26.1522 345.767 24.6589 344.89 31.9905C344.77 32.9828 344.11 33.8306 344.12 34.8278C344.134 36.297 345.194 37.2122 345.411 38.5225L345.406 38.5273ZM343.479 27.9441C340.574 28.6522 341.827 32.1928 342.525 34.1967C344.139 33.6235 344.206 28.474 343.479 27.9441Z" fill="#65242E"/>
<path d="M332.752 128.178C333.485 129.065 333.446 131.146 334.54 131.926C335.908 132.909 338.018 131.546 337.709 133.328L330.488 134.287L334.332 132.374C332.439 132.268 332.969 129.961 331.702 128.949C330.898 128.309 329.361 129.036 328.566 128.28C329.674 126.844 331.635 126.82 332.752 128.174V128.178Z" fill="#65242E"/>
<path d="M326.157 59.6983C325.44 59.0191 326.22 58.8216 326.875 58.7349C328.128 58.5711 336.736 59.3611 336.736 60.4257C333.884 63.21 329.611 59.5442 326.157 59.6983Z" fill="#65242E"/>
<path d="M238.572 119.373C240.263 119.931 241.713 120.225 243.143 118.91C243.967 119.561 244.049 119.724 243.09 120.293C241.091 121.483 236.746 121.068 236.611 118.217C238.023 117.104 239.767 116.526 241.544 116.333C242.368 116.246 242.671 115.654 243.37 116.733C241.876 117.995 239.458 117.152 238.567 119.373H238.572Z" fill="#65242E"/>
<path d="M304.5 99.1748C304.765 99.4494 304.842 100.201 303.893 100.023C299.62 99.2374 296.392 99.9504 292.462 101.583L292.948 103.014C291.46 103.231 290.935 101.232 291.985 100.369C293.44 99.1748 303.295 97.9079 304.5 99.1796V99.1748Z" fill="#65242E"/>
<path d="M257.774 6.81149L257.61 8.72389C256.921 9.71621 254.97 8.93584 253.973 8.68535H256.146L256.377 7.73156C254.676 8.1651 250.201 6.68625 250.115 8.68535C249.705 8.98401 248.472 7.1246 249.469 6.76332C252.147 6.12265 255.134 5.91069 257.774 6.80668V6.81149Z" fill="#65242E"/>
<path d="M315.088 84.2514C316.595 83.1531 322.125 85.1763 321.827 86.8863C321.648 87.8931 320.569 87.2573 320.097 87.1995C318.122 86.9586 314.717 86.843 315.088 84.2514Z" fill="#65242E"/>
<path d="M396.843 89.1263C396.886 89.1455 396.824 89.5935 397.31 89.9644C397.503 90.1089 398.105 89.95 398.38 90.3161C399.709 92.108 398.187 94.0542 396.212 94.3384C394.381 93.5243 395.128 88.2977 396.848 89.1214L396.843 89.1263Z" fill="#65242E"/>
<path d="M114.411 160.761C111.285 161.441 108.366 161.628 105.365 160.405C104.647 160.111 104.059 160.694 104.305 159.326C106.42 158.974 108.838 160.217 110.803 160.188C112.311 160.169 114.368 158.401 114.406 160.761H114.411Z" fill="#65242E"/>
<path d="M327.601 15.9063C323.685 15.3668 319.287 15.1644 315.448 14.3263C314.595 14.1384 313.858 14.1721 314.128 13.0256C317.832 14.042 322.302 13.9264 325.935 14.9284C326.595 15.1114 327.428 14.991 327.597 15.9063H327.601Z" fill="#65242E"/>
<path d="M399.305 31.7882C395.798 30.4394 392.199 29.423 388.615 28.2765C388.11 28.1175 387.161 28.1512 387.276 27.4624C390.412 27.7803 394.646 28.633 397.513 29.9721C398.336 30.3575 399.473 30.5502 399.305 31.7882Z" fill="#65242E"/>
<path d="M315.569 36.61C315.034 38.2045 311.86 38.3924 310.367 38.4261C307.785 38.4839 308.758 35.8682 310.598 35.743C311.556 35.6803 313.946 37.3326 315.569 36.6052V36.61Z" fill="#65242E"/>
<path d="M206.808 123.227C203.325 123.227 200.17 125.25 196.706 125.635C196.48 124.392 196.928 124.783 197.66 124.45C198.503 124.07 205.657 121.786 206.095 121.839C206.5 121.887 206.972 122.735 206.803 123.227H206.808Z" fill="#65242E"/>
<path d="M68.6917 200.233C68.764 202.006 66.4951 201.572 66.0086 203.123L62.916 202.632L65.3246 201.668C65.5751 200.984 63.4025 201.269 64.366 200.238C65.0066 199.554 67.762 199.785 68.6917 200.238V200.233Z" fill="#65242E"/>
<path d="M370.917 37.0868C371.211 38.45 370.243 38.0936 369.217 38.0647C367.015 38.002 363.913 37.4673 361.774 36.8459C364.212 35.2563 368.099 37.3373 370.917 37.0868Z" fill="#65242E"/>
<path d="M336.504 48.1519C337.198 48.2483 338.889 49.0046 339.664 49.3321C339.997 49.4718 341.1 49.626 340.348 50.0884C337.925 49.6645 335.074 48.7348 332.636 48.6288C331.191 48.5662 327.737 49.9439 328.084 48.1567C330.719 48.4217 333.956 47.7955 336.504 48.1567V48.1519Z" fill="#65242E"/>
<path d="M148.715 221.741C150.102 222.762 150.979 221.727 150.512 224.766L151.942 222.844L152.429 225.248L150.044 225.229L149.293 222.849L148.103 223.803L147.135 220.441C148.329 220.118 148.243 221.399 148.71 221.741H148.715Z" fill="#65242E"/>
<path d="M331.451 55.3678C333.286 53.5036 337.265 54.6501 339.626 53.4458C338.768 56.4806 333.826 55.0451 331.451 55.3678Z" fill="#65242E"/>
<path d="M343.485 21.21L341.101 22.9297C340.927 25.1215 343.948 24.6397 343.962 26.4991C339.574 25.5598 337.555 21.6387 343.485 21.2148V21.21Z" fill="#65242E"/>
<path d="M343.243 139.109C343.624 139.157 344.264 139.797 344.929 139.595L344.447 140.327C344.11 140.549 343.84 140.072 343.725 140.072H335.786V139.109C338.151 139.32 340.945 138.815 343.243 139.109Z" fill="#65242E"/>
<path d="M294.638 10.6172C294.975 10.6509 297.986 11.2964 297.519 12.0671L287.658 10.6172C289.903 10.7906 292.432 10.3811 294.638 10.6172Z" fill="#65242E"/>
<path d="M263.593 103.5C264.58 104.401 258.703 106.815 257.822 106.381C257.576 105.1 258.096 105.543 258.785 105.206C259.416 104.897 263.366 103.293 263.593 103.496V103.5Z" fill="#65242E"/>
<path d="M376.688 115.047C376.293 113.284 378.827 114.353 379.838 114.06L383.904 115.047H376.683H376.688Z" fill="#65242E"/>
<path d="M189.485 127.552L183.715 128.997C183.483 127.668 183.989 128.183 184.765 127.914C185.873 127.528 189.119 125.987 189.485 127.552Z" fill="#65242E"/>
<path d="M324.712 189.645L143.285 290.698C143.483 289.383 142.77 286.464 143.762 285.645C144.629 284.927 149.682 283.02 151.306 282.124C175.203 268.92 198.533 254.628 222.676 241.848L324.707 189.65L324.712 189.645Z" fill="white"/>
<path d="M146.653 291.185C145.877 303.579 146.397 316.046 146.195 328.498C146.026 338.975 145.362 349.742 145.193 360.219C145.077 367.555 146.152 377.975 145.236 384.805C145 386.578 142.746 388.63 140.882 388.866L139.437 290.698C140.901 290.901 141.339 292.1 143.054 292.172C144.644 292.24 145.27 291.349 146.653 291.18V291.185Z" fill="white"/>
<path d="M2.44287 219.766C7.23108 223.177 14.6253 225.017 19.9338 227.575C42.1118 238.264 63.7117 250.543 85.8463 261.28C101.945 269.089 118.487 274.725 134.933 282.938C138.969 284.951 143.358 284.32 141.836 290.226C133.55 286.103 125.64 281.343 117.143 277.629C107.09 273.236 96.2417 270.192 86.3232 265.616C76.0531 260.875 66.0673 254.093 55.8791 248.9C39.8911 240.745 22.5591 234.198 6.76382 225.826C3.50745 224.102 0.91103 223.35 1.8022 219.005C2.5344 218.808 2.17793 219.588 2.43805 219.776L2.44287 219.766Z" fill="white"/>
<path d="M8.54117 227.657V314.519L7.5633 315.03C6.20006 314.273 5.3667 313.763 5.14993 312.135C3.95047 303.05 5.87731 291.561 4.19132 282.293C5.83396 264.763 1.83576 244.56 3.7048 227.387C3.78187 226.665 3.75297 226.188 4.44663 225.74L8.54117 227.652V227.657Z" fill="white"/>
<path d="M137.938 289.311L139.431 388.394C138.766 387.701 136.945 386.858 136.512 386.265C135.534 384.931 136.184 370.918 136.083 367.921C135.852 360.763 135.303 353.509 135.096 346.293C134.551 327.116 133.959 307.722 133.641 288.55C133.607 286.638 136.743 289.682 137.933 289.316L137.938 289.311Z" fill="white"/>
<path d="M267.933 296.955C268.246 288.993 267.394 281.069 267.423 273.111C267.432 269.955 267.938 266.174 267.948 263.048C267.977 249.887 267.885 236.727 267.924 223.562C268.237 221.9 271.965 221.279 273.213 219.954C273.126 223.557 273.338 227.194 273.237 230.802C272.76 247.715 272.182 264.922 271.296 281.801C271.04 286.652 272.196 293.766 267.928 296.955H267.933Z" fill="white"/>
<path d="M372.352 163.175L370.893 190.344C370.334 201.413 371.264 213.615 369.963 224.545C369.881 225.244 368.369 229.165 367.545 228.139L368.027 171.6C369.014 167.443 367.087 164.452 372.352 163.175Z" fill="white"/>
<path d="M9.981 228.62C13.6854 230.219 11.7778 231.192 11.8597 233.673C12.6304 256.405 13.1314 283.188 11.9223 305.877C11.8549 307.182 11.5706 311.662 11.325 312.496C11.113 313.218 10.217 313.714 9.73533 314.278C8.95014 313.917 9.97618 313.16 9.97618 313.079V228.62H9.981Z" fill="white"/>
<path d="M266.482 296.474L264.806 295.019C264.411 271.521 264.348 247.672 264.84 224.236L266.718 223.798C267.446 224.034 266.482 224.872 266.482 225.007V296.474Z" fill="white"/>
<path d="M438.246 153.994L436.835 153.748L437.302 108.525L437.572 107.354L440.207 104.464L438.246 153.994Z" fill="white"/>
<path d="M426.257 118.419C421.295 123.925 415.409 128.655 409.643 133.318C390.572 148.733 369.487 163.96 348.446 176.552C344.664 178.816 340.811 181.229 336.75 182.896C342.935 178.329 349.775 174.596 356.25 170.4C375.817 157.722 394.946 144.205 413.014 129.469C416.969 126.242 420.683 122.658 424.576 119.378C425.115 118.925 425.361 118.212 426.262 118.419H426.257Z" fill="white"/>
<path d="M367.059 166.542L365.86 226.693C365.06 226.149 365.166 225.378 365.108 224.554C364.27 212.531 365.45 199.958 365.633 187.973C365.705 183.233 365.455 178.643 365.609 173.994C365.676 171.956 364.665 166.845 367.054 166.542H367.059Z" fill="white"/>
<path d="M435.399 110.957C435.443 110.794 436.055 110.22 436.358 110.235L436.387 124.455L435.399 131.893V110.957Z" fill="white"/>
<path d="M309.798 47.1884L296.648 38.4501C286.281 32.9008 274.99 29.3843 263.703 26.1569L231.356 17.8425C248.043 20.5979 265.596 25.1453 281.522 30.9499C291.508 34.5868 302.404 39.4714 309.793 47.1884H309.798Z" fill="white"/>
<path d="M298.733 68.8461L298.251 40.9358L300.496 42.5881C299.807 46.7308 300.313 50.9746 300.192 55.1511C300.091 58.6387 300.077 63.9086 299.711 67.1794C299.629 67.902 299.609 68.6631 298.737 68.8461H298.733Z" fill="white"/>
<path d="M259.271 53.4459L258.779 26.7399C262.122 25.7379 260.268 30.6273 260.205 32.4915C260.012 38.5562 260.894 45.9794 260.244 51.7792C260.162 52.5018 260.143 53.2629 259.271 53.4459Z" fill="white"/>
<path d="M128.848 239.213L118.847 243.881C107.016 247.359 90.8743 249.979 80.7295 241.371C82.1505 240.884 83.5042 242.151 84.9493 242.445C95.3109 244.555 108.004 243.067 118.447 241.554C121.964 241.043 125.384 239.921 128.852 239.213H128.848Z" fill="white"/>
<path d="M137.51 235.841C135.462 237.908 132.187 239.565 129.33 240.162L137.51 235.841Z" fill="white"/>
<path d="M161.575 192.044L162.534 189.168C161.488 188.026 159.378 188.705 159.224 188.614C159.07 188.522 158.622 186.745 157.731 186.75L159.167 194.447L156.768 192.521C157.312 195.512 160.087 197.868 163.015 195.888V199.255L160.135 197.815C159.605 200.151 163.723 201.928 164.393 199.91L164.947 171.109C164.282 170.27 164.576 172.91 163.743 171.345C162.813 169.601 161.036 162.751 163.266 161.725L166.007 166.672L166.874 170.381C167.881 170.564 166.753 168.45 168.064 168.946C169.904 169.644 170.598 175.964 170.713 177.848C170.838 179.929 171.383 181.966 168.796 181.933C168.141 181.22 170.675 176.354 168.314 176.643C168.305 179.731 167.934 182.463 165.424 184.336C167.418 184.799 169.711 182.347 171.46 182.443C172.009 182.472 173.122 183.339 173.122 183.619V206.235C173.122 210.108 167.529 212.377 164.244 212.261C162.428 212.199 158.367 211.095 157.23 209.612C153.718 205.031 157.375 189.727 155.804 183.855C157.977 185.502 160.872 185.531 163.497 185.782L163.459 191.244L161.57 192.039V193.484L163.011 192.525V194.929L161.093 193.966L160.13 195.406V189.153L161.57 192.039L161.575 192.044Z" fill="white"/>
<path d="M165.907 221.881V219.959C164.914 220.128 164.129 220.884 163.537 219.655C163.821 218.075 163.864 216.51 163.99 214.911C164.038 214.27 163.561 212.892 164.702 213.22L165.165 219.02C176.379 221.828 161.538 226.765 158.209 221.886H165.907V221.881Z" fill="white"/>
<path d="M112.003 177.13C114.065 178.7 109.151 182.997 107.2 182.901C106.786 182.477 111.189 176.509 112.003 177.13Z" fill="white"/>
<path d="M212.098 160.761L209.757 151.32C210.046 148.536 208.004 136.368 210.162 134.999L213.336 134.46C215.017 134.72 214.593 142.972 214.526 144.663C214.314 150.144 213.086 155.4 212.093 160.761H212.098Z" fill="white"/>
<path d="M210.662 133.815C210.513 132.167 210.474 131.319 212.103 130.688C207.95 129.754 210.094 117.889 212.339 118.414C213.36 118.655 214.477 123.757 214.458 124.86C214.41 127.919 211.717 130.173 212.955 133.111L210.667 133.81L210.662 133.815Z" fill="white"/>
<path d="M213.547 178.57C211.707 178.84 213.451 177.848 212.637 176.88C212.237 176.403 211.823 176.032 211.148 176.167C211.192 177.328 211.457 179.144 209.703 179.047C209.183 176.355 211.192 173.599 211.187 171.109C211.182 168.098 207.984 167.563 211.216 164.447C212.131 163.565 212.541 163.04 213.499 164.423C215.426 167.192 211.881 168.715 211.779 169.659C211.635 171.022 214.713 177.058 213.542 178.57H213.547Z" fill="white"/>
<path d="M214.39 180.15C214.516 180.203 216.24 182.106 215.951 182.414C213.099 183.301 210.619 182.679 207.772 182.414C207.613 181.514 207.801 181.335 208.682 181.244C210.209 181.085 212.348 181.783 214.029 181.446L212.589 180.011C213.21 179.987 213.788 179.885 214.39 180.141V180.15Z" fill="white"/>
<path d="M215.956 183.387C215.258 184.649 212.676 184.876 211.385 184.866C210.889 184.866 205.479 184.144 206.814 182.906C209.757 184.23 212.869 184.057 215.952 183.392L215.956 183.387Z" fill="white"/>
<path d="M193.822 183.383L195.262 167.024H190.927C190.859 161.946 190.291 156.941 190.426 151.84C190.493 149.46 190.696 145.525 190.975 143.237C191.033 142.765 191.216 141.618 191.727 141.498L195.527 141.965C195.98 147.847 196.192 153.68 196.24 159.581C196.288 165.304 196.746 176.484 195.123 181.567C194.891 182.284 194.66 183.175 193.817 183.383H193.822Z" fill="white"/>
<path d="M192.858 140.549C193.47 137.013 191.557 134.128 191.895 130.684L193.812 125.154C194.173 127.369 195.406 129.845 195.281 132.109C195.146 134.658 192.714 136.927 194.144 139.846L192.853 140.544L192.858 140.549Z" fill="white"/>
<path d="M190.449 167.982C194.544 167.982 193.937 170.203 193.812 173.512L192.853 178.089V170.632C192.853 170.266 193.946 169.437 192.376 168.946C190.907 174.124 192.848 179.168 192.848 184.341C192.13 184.264 191.779 182.545 191.634 181.957C191.34 180.781 190.449 176.369 190.449 175.444V167.987V167.982Z" fill="white"/>
<path d="M310.275 182.906C308.603 184.876 305.621 186.042 303.155 186.605C296.387 188.152 280.543 186.856 274.055 184.23C272.831 183.734 265.129 179.832 266.487 178.089C279.57 186.287 295.635 186.075 310.275 182.906Z" fill="white"/>
<path d="M247.715 99.165C250.35 101.554 251.467 102.055 254.449 99.6468C254.314 102.6 254.642 105.62 254.478 108.573C254.367 110.567 254.228 115.413 252.542 116.261C251.342 117.186 251.222 115.148 251.077 115.047C250.841 114.874 250.157 116.02 249.406 116.025C248.885 116.025 247.72 115.042 247.72 114.806V99.165H247.715ZM251.082 102.537L250.123 103.25C250.615 107.075 248.837 110.851 250.133 114.565C251.371 114.71 250.894 114.565 251.101 113.867C252.31 109.825 251.217 106.583 251.082 102.537Z" fill="white"/>
<path d="M256.375 151.142C256.481 151.267 257.382 150.877 257.334 151.378C254.367 153.931 247.054 153.964 243.865 151.859C245.262 151.599 246.544 152.457 247.96 152.577C250.373 152.784 254.636 153.006 256.375 151.142C252.411 151.85 248.783 151.609 244.824 151.142C246.134 149.364 249 148.892 249.535 146.474C250.099 143.935 250.412 138.762 250.59 135.982C250.768 133.203 250.469 130.356 250.6 127.567C251.438 127.456 251.052 128.66 251.076 129.243C251.202 132.283 250.966 135.346 251.076 138.386C251.144 140.188 251.963 142.981 251.915 144.759C251.895 145.535 251.101 145.963 251.101 146.098C251.101 146.387 255.031 149.104 255.667 149.701C256.303 150.299 256.231 150.992 256.366 151.146L256.375 151.142Z" fill="white"/>
<path d="M255.889 116.011C259.107 122.446 245.73 123.699 245.754 118.164C245.773 114.04 248.986 118.356 249.651 118.665C252.426 119.946 254.41 115.018 255.889 116.015V116.011Z" fill="white"/>
<path d="M252.124 95.7256C252.63 96.5445 258.988 97.8451 251.127 99.6274C249.874 97.0936 249.619 94.8296 251.324 92.4307C252.557 93.1629 251.714 95.0608 252.124 95.7256Z" fill="white"/>
<path d="M250.129 127.076L248.679 123.232L252.239 122.774L252.937 123.853C252.325 125.332 252.19 127.456 250.129 127.08V127.076Z" fill="white"/>
<path d="M344.273 64.3709C344.095 64.6359 343.238 64.1734 343.474 65.2332C345.03 65.686 344.582 69.7902 344.447 71.4954C344.403 72.0542 344.298 73.6535 343.488 73.6583C343.358 71.7026 343.671 69.6216 343.445 67.6851C343.151 65.1947 339.235 55.2907 343.748 54.8668C347.506 54.5151 345.54 62.4682 344.278 64.3709H344.273Z" fill="white"/>
<path d="M338.667 105.418L337.766 101.752L337.713 98.6833C340.353 100.249 338.354 103.096 338.667 105.418Z" fill="white"/>
<path d="M340.112 107.826C339.274 107.802 339.105 108.154 339.259 107.224C339.529 105.596 340.049 103.944 340.155 102.292C340.252 100.808 338.869 98.91 340.589 98.2019L340.112 107.826Z" fill="white"/>
<path d="M313.652 103.495C315.748 102.387 315.632 99.7188 315.579 97.7197C316.133 96.9248 316.962 100.832 317.01 101.337C317.448 105.673 317.385 112.715 311.475 112.691C304.317 112.658 309.004 97.7678 307.872 93.3939C311.027 94.6993 311.822 95.8795 311.128 99.2997C310.892 100.456 308.146 104.55 311.947 103.519C312.299 103.423 312.641 101.332 312.679 100.851C312.987 96.9923 311.417 95.0413 315.565 92.917L313.647 103.505L313.652 103.495Z" fill="white"/>
<path d="M308.354 90.5089C311.306 89.0156 318.465 91.1351 313.045 93.5099C310.473 94.6323 308.84 92.9752 308.354 90.5089Z" fill="white"/>
<path d="M314.611 121.3C314.168 121.834 307.101 122.47 307.395 119.864L310.275 118.891L310.323 120.278L312.207 120.331L311.961 118.414C313.074 119.32 315.02 119.339 314.611 121.295V121.3Z" fill="white"/>
<path d="M405.568 29.3844C406.011 30.5453 404.72 40.0398 402.682 38.5272C401.343 35.2709 400.924 32.4625 401.237 28.9075L405.568 29.3844Z" fill="white"/>
<path d="M395.456 39.9773C394.17 45.6181 387.835 39.5678 390.48 38.9753L395.456 39.9773Z" fill="white"/>
<path d="M401.415 67.3047C401.506 67.507 402.287 67.2083 402.19 67.6419C401.747 68.9425 396.68 68.3789 395.456 67.8779L399.782 67.3962L398.341 65.9607L401.444 66.4328C401.555 66.5677 401.28 67.0108 401.41 67.2999L401.415 67.3047Z" fill="white"/>
<path d="M270.798 101.101C271.79 102.932 270.831 104.377 270.798 106.121C270.692 110.817 271.332 116.598 270.841 121.083C270.528 123.959 268.591 121.815 266.486 122.263C266.809 116.853 266.067 110.996 266.472 105.644C266.746 102.036 267.074 101.646 270.802 101.101H270.798Z" fill="white"/>
<path d="M270.814 123.227V130.207L269.287 140.231L268.642 141.031C267.832 141.137 267.871 141.074 267.919 140.318C268.015 138.781 268.704 137.095 268.882 135.496C269.301 131.705 269.494 127.678 269.542 123.94L270.814 123.227Z" fill="white"/>
<path d="M266.482 123.227L268.332 123.785C268.4 128.063 267.595 132.374 267.923 136.7C267.094 136.551 266.482 133.506 266.482 133.092V123.227Z" fill="white"/>
<path d="M269.85 88.0955C270.028 90.6197 271.319 93.6978 269.132 95.7884C267.21 94.0928 267.88 90.8509 268.848 88.7747C269.103 88.2207 268.607 87.898 269.85 88.0955Z" fill="white"/>
<path d="M271.295 141.999C271.078 144.436 265.924 143.805 265.042 142.235C267.229 142.158 269.064 142.572 271.295 141.999Z" fill="white"/>
<path d="M358.398 153.545C358.614 154.547 357.911 154.663 357.294 155.082C351.1 159.283 335.049 157.871 328.397 154.918C325.535 153.647 322.525 151.079 320.386 148.733L328.671 152.717C338.281 155.545 348.706 156.633 358.402 153.541L358.398 153.545Z" fill="white"/>
<path d="M351.86 59.8816C351.928 59.737 352.554 59.9056 352.66 59.0097C352.814 57.7379 352.371 51.3505 352.631 51.047C354.543 51.6154 356.422 51.996 357.92 50.3196L353.431 50.0884L353.113 48.6384C355.251 49.3128 358.05 47.6172 358.431 50.7772C358.648 52.5692 358.59 66.5195 358.166 67.4107C356.86 70.1565 353.291 68.6102 351.932 66.4232C350.67 64.4048 350.955 61.8758 351.865 59.8816H351.86ZM356.475 59.7081C354.018 58.8122 354.905 63.1957 354.553 63.5522H352.631L354.394 65.9752C356.191 66.0956 357.79 64.8239 356.957 63.0705L356.003 63.557L355.56 60.3874L356.475 59.713V59.7081Z" fill="white"/>
<path d="M355.512 69.3328C356.192 70.2239 355.002 77.5604 355.016 79.1741C355.021 79.9641 355.488 80.7927 355.512 81.6068C355.565 83.4662 355.084 87.6522 356.134 88.924C356.457 89.3093 361.245 91.5686 360.325 92.426L349.26 91.9443C350.189 90.5184 353.484 89.9741 353.971 88.2447C354.221 87.3536 354.496 83.7986 354.568 82.5895C354.809 78.6298 354.062 73.8416 354.549 70.0505C354.64 69.3472 354.915 68.5572 355.508 69.3376L355.512 69.3328Z" fill="white"/>
<path d="M396.414 126.117C397.652 127.345 392.113 128.689 391.636 128.79C384.034 130.404 374.742 129.094 367.873 125.553L365.142 123.231C374.906 127.292 386.086 128.487 396.414 126.117Z" fill="white"/>
<path d="M178.898 125.158C179.616 125.919 178.734 125.977 178.233 126.165C176.455 126.83 174.495 126.55 172.645 126.598C172.515 127.225 173.536 127.369 173.96 127.432C176.402 127.812 178.228 127.331 180.333 126.112C179.88 128.573 175.873 128.867 173.941 128.419C172.944 128.188 172.269 127.162 171.2 127.066C170.487 126.223 173.984 124.874 174.432 124.778C175.323 124.585 178.392 124.623 178.898 125.158Z" fill="white"/>
<path d="M175.526 160.284L175.044 161.72L178.411 161.248L178.378 162.645C176.2 163.257 172.766 163.998 171.205 161.966L175.526 160.284Z" fill="white"/>
<path d="M331.451 76.0671C332.169 77.7242 330.512 81.048 330.671 82.0982C330.743 82.5943 331.639 82.9701 331.841 83.6204C333.07 87.5415 329.356 91.6601 328.667 94.6949C328.233 96.6121 329.414 99.4687 327.612 100.61C327.414 98.881 327.891 96.7518 327.583 95.0995C327.313 93.64 325.618 92.4453 325.237 90.2246C324.751 87.3681 324.466 82.1078 324.775 79.2464C324.852 78.5239 325.15 77.8013 325.247 77.0787C327.593 77.1895 329.312 76.9679 331.451 76.0671Z" fill="white"/>
<path d="M324.235 117.451L327.843 118.453C329.418 118.631 330.839 117.807 332.275 117.542C333.209 117.369 332.882 117.61 332.896 118.41C329.736 119.118 326.441 119.122 323.271 118.41L326.417 114.098C327.072 111.381 326.817 108.313 327.101 105.639C327.178 104.917 327.207 104.151 328.084 103.973V112.393C328.084 113.12 327.506 113.222 328.546 114.329C328.739 114.537 333.831 117.446 331.21 117.446H324.23L324.235 117.451Z" fill="white"/>
<path d="M326.985 73.2876C328.57 72.9166 330.473 72.907 331.441 74.381C331.441 75.0795 324.278 77.6278 325.237 74.4292C325.405 73.8608 326.412 73.4224 326.981 73.2876H326.985Z" fill="white"/>
<path d="M140.399 167.024L139.913 171.345C135.361 171.884 134.542 170.685 133.665 166.542L140.404 167.019L140.399 167.024Z" fill="white"/>
<path d="M196.095 207.555C199.13 207.001 204.289 207.357 206.982 208.957C211.645 211.722 204.212 213.885 201.707 214.15C198.918 214.448 193.167 212.887 191.914 210.137C192.897 208.971 194.597 207.83 196.095 207.555ZM201.996 209.853C200.787 209.766 194.101 208.461 195.267 211.047C195.835 212.314 200.696 212.343 201.996 212.252C202.126 211.288 200.773 212.343 201.033 211.057C201.134 210.546 202.444 211.24 202.001 209.853H201.996Z" fill="white"/>
<path d="M202.954 222.849H200.556L200.189 215.845C200.368 214.935 202.632 215.248 203.436 214.665L202.954 222.849Z" fill="white"/>
<path d="M194.216 213.788C194.741 214.583 194.741 220.084 194.78 221.399C193.513 221.611 193.932 221.192 193.682 220.359C193.359 219.28 192.444 213.793 192.863 213.22C193.171 213.412 194.173 213.716 194.216 213.788Z" fill="white"/>
<path d="M198.147 215.146H199.588C199.679 217.464 199.515 219.838 199.092 222.122C198.942 222.912 199.405 222.945 198.143 222.849V215.151L198.147 215.146Z" fill="white"/>
<path d="M205.363 221.881C203.87 222.314 204.352 220.195 204.414 219.241C204.516 217.647 204.838 214.482 206.327 213.701L205.363 221.881Z" fill="white"/>
<path d="M197.183 222.363C195.935 222.57 196.321 222.175 196.085 221.322C195.444 219 195.834 216.563 195.748 214.183C197.554 216.076 197.072 219.906 197.183 222.363Z" fill="white"/>
<path d="M117.306 162.688C121.053 164.417 125.548 163.411 128.847 161.243C128.847 165.275 128.867 169.89 125.962 173.03C123.92 175.241 122.099 176.34 119.685 174.018C116.679 171.128 117.32 166.455 117.306 162.688Z" fill="white"/>
<path d="M117.542 193.007C117.451 192.983 116.357 191.889 116.353 191.803C117.547 190.252 119.488 189.495 121.386 189.148L121.589 190.55L119.71 191.557C121.425 191.364 123.602 191.856 125.23 191.547C125.89 191.422 127.061 190.227 127.408 190.598C128.323 191.596 125.659 193.002 125.245 193.002C123.487 193.002 118.804 193.359 117.547 193.002L117.542 193.007Z" fill="white"/>
<path d="M155.796 242.58C157.347 244.141 146.706 248.332 145.694 248.346C148.291 245.673 151.74 241.593 155.796 242.58Z" fill="white"/>
<path d="M161.576 239.685C162.858 238.038 165.203 237.999 166.673 236.352C167.304 235.639 168.368 234.295 169.057 233.461C169.934 232.397 170.623 230.879 171.682 230.065C170.637 234.555 166.229 238.958 161.581 239.685H161.576Z" fill="white"/>
<path d="M44.6356 204.554C45.3967 203.345 47.892 204.096 48.7398 202.651C49.0095 202.193 49.0144 201.702 48.9614 201.196C45.0595 199.905 40.912 201.403 37.4196 203.123L39.3271 205.291C41.4948 206.374 49.0144 204.611 51.7553 204.221C53.0559 204.038 54.2939 204.313 55.7053 203.605C54.8864 206.957 48.9036 208.952 45.7869 209.323C42.6702 209.693 37.5641 210.021 35.9744 206.972C39.1634 207.665 43.0122 207.511 46.206 206.851C46.8563 206.716 48.7831 206.278 48.9662 205.527C46.5865 205.373 43.7878 206.524 41.5093 206.524C38.9948 206.524 30.2035 205.238 35.0592 201.957C37.829 200.088 47.7041 198.344 51.1339 198.311C52.6224 198.296 55.8306 198.768 56.1485 200.531C56.5531 202.747 46.4565 204.51 44.6356 204.554Z" fill="white"/>
<path d="M299.205 126.599C299.167 129.855 299.966 136.628 295.356 136.695C296.464 136.117 298.998 130.52 297.042 130.452C295.828 130.414 297.177 133.174 296.079 133.318C295.448 132.114 293.564 132.683 292.904 133.526C291.907 134.797 293.294 137.018 291.753 137.172C288.082 134.527 288.569 130.178 288.622 126.107C292.124 127.249 295.592 127.422 299.205 126.589V126.599Z" fill="white"/>
<path d="M288.622 124.195C292.033 123.723 296.662 122.803 299.682 124.913C299.668 126.42 289.508 126.743 288.622 124.195Z" fill="white"/>
<path d="M292.953 148.738L292.476 150.655H294.88C295.111 150.506 293.575 148.955 295.126 149.205C295.608 149.282 298.064 150.072 297.766 150.891C296.865 153.328 287.235 152.023 288.628 150.183L292.953 148.738Z" fill="white"/>
<path d="M429.624 93.8758C429.393 94.5357 427.418 94.9307 426.753 95.0897C421.175 96.3951 410.688 96.9154 406.526 92.4307C414.051 94.661 421.869 94.791 429.624 93.8758Z" fill="white"/>
<path d="M325.674 162.202C323.858 162.958 322.659 161.436 320.997 160.872C317.851 159.808 311.266 158.974 311.242 154.99C311.493 154.711 316.666 158.517 317.712 158.863C320.53 159.793 323.747 158.902 325.674 162.202Z" fill="white"/>
<path d="M320.382 158.353C318.07 158.367 315.372 156.513 313.643 154.995C316.075 155.217 318.778 156.489 320.382 158.353Z" fill="white"/>
<path d="M334.823 12.0572C334.534 14.2827 335.555 23.2377 333.884 24.3553C331.548 25.916 331.018 22.1539 330.95 20.492C330.835 17.6065 331.899 14.5717 331.461 11.5803L334.828 12.0572H334.823Z" fill="white"/>
<path d="M316.773 25.0539C316.576 25.025 315.396 24.5818 315.574 24.0953L317.756 24.0664L324.712 25.0491C322.217 24.8034 319.182 25.3863 316.773 25.0491V25.0539Z" fill="white"/>
<path d="M96.1212 201.673C94.7772 204.857 90.9332 207.242 87.4648 206.962C87.778 204.241 90.3262 204.515 91.7569 203.798C92.4698 203.441 95.6732 201.24 96.1212 201.673Z" fill="white"/>
<path d="M66.2831 212.743L60.6856 216.038L56.1816 217.546C58.8648 215.296 62.9401 213.817 66.2831 212.743Z" fill="white"/>
<path d="M137.515 244.016C138.189 242.826 139.697 241.992 140.862 241.352C144.485 239.372 150.299 237.532 153.565 235.287C154.875 234.386 155.261 232.681 156.759 231.987L154.832 235.109L137.51 244.011L137.515 244.016Z" fill="white"/>
<path d="M132.697 247.378C128.95 248.838 126.175 252.47 122.114 253.159C124.821 250.105 129.07 248.626 132.466 246.429L132.697 247.378Z" fill="white"/>
<path d="M417.495 55.0355C420.949 54.7513 435.81 56.3699 437.573 59.2216C438.266 60.344 437.684 61.1436 436.826 61.8517C432.211 65.6573 414.576 64.2555 409.913 60.4066C405.847 57.0539 415.159 55.2282 417.49 55.0355H417.495ZM418.078 58.2486C417.591 56.8275 416.339 57.3863 415.241 57.8246C415.048 58.4557 415.154 59.106 415.443 59.6937C416.932 62.714 429.533 64.7372 431.99 61.3122C433.204 57.5453 423.695 57.0539 421.676 57.2803C420.954 57.3622 420.193 57.3815 420.01 58.2534C423.488 58.3642 429.75 57.5453 431.075 61.6253C426.253 62.6321 420.795 62.3768 416.642 59.4576L418.083 58.2486H418.078Z" fill="white"/>
<path d="M432.991 64.5204C432.836 65.2526 430.837 65.7439 430.235 65.8499C425.842 66.6158 418.703 67.1409 415.187 64.0435C421.02 65.1562 427.109 65.479 432.991 64.5252V64.5204Z" fill="white"/>
<path d="M350.132 20.3285C350.407 20.7909 350.079 21.7399 350.315 22.289C351.12 24.1388 352.276 23.5318 350.691 26.4944L349.728 22.1686C348.846 22.0963 349.463 23.2332 348.774 23.8498C348.49 24.1099 346.5 24.7072 346.365 24.5675L346.847 19.2783L350.127 20.3236L350.132 20.3285Z" fill="white"/>
<path d="M348.744 25.5644C348.807 26.7157 349.115 28.103 348.055 28.893L345.888 25.786L348.744 25.5596V25.5644Z" fill="white"/>
<path d="M347.367 17.7994C347.251 17.6212 347.14 16.4554 347.617 16.3543C353.865 14.832 348.846 20.0875 347.367 17.7994Z" fill="white"/>
<path d="M240.499 186.75C239.43 186.466 235.398 185.868 235.297 184.592C238.211 179.269 245.451 179.861 250.606 180.497L249.647 182.896C250.692 180.844 252.682 181.172 253.4 183.248C254.117 185.324 250.235 186.417 248.544 186.894C245.042 187.882 243.823 187.631 240.499 186.745C242.715 187.545 248.086 186.456 249.161 183.864C247.648 183.171 239.531 183.985 239.565 185.546C239.892 185.7 240.427 186.721 240.499 186.75Z" fill="white"/>
<path d="M237.402 187.453C238.616 188.233 239.079 188.45 240.803 188.614C245.211 189.028 248.973 188.523 253.005 186.755C252.995 191.148 242.427 191.832 239.657 190.719C238.799 190.372 235.384 187.776 236.169 186.755C236.627 186.822 237.027 187.217 237.397 187.458L237.402 187.453Z" fill="white"/>
<path d="M394.488 78.9524C395.808 90.9181 385.21 91.2697 386.795 78.9524C389.242 79.5497 392.108 79.8532 394.488 78.9524Z" fill="white"/>
<path d="M394.493 77.0303C394.71 79.5111 386.795 78.5669 386.805 77.748C389.102 75.5707 391.819 77.1748 394.493 77.0303Z" fill="white"/>
<path d="M389.68 98.6882C390.764 99.5842 388.437 99.5167 388.721 100.124H391.125L390.879 98.6882C391.804 99.377 393.697 98.9194 393.529 100.605C392.257 101.198 387.05 101.4 386.313 100.605C385.436 99.6516 389.299 98.3799 389.675 98.6882H389.68Z" fill="white"/>
<path d="M384.868 21.2051C384.107 24.5144 385.894 32.4 381.506 32.7517V21.6868L384.868 21.2051Z" fill="white"/>
<path d="M380.532 32.7563C377.184 30.2225 380.407 24.4227 379.578 20.7231C382.382 22.0334 380.335 24.1337 380.205 25.8389C380.065 27.6983 380.985 30.6464 380.527 32.7563H380.532Z" fill="white"/>
<path d="M385.349 19.2878C385.484 20.2512 385.431 20.073 384.757 20.3668C379.097 22.8139 377.728 15.9784 385.349 19.2878Z" fill="white"/>
<path d="M362.734 131.406C361.799 131.493 360.932 131.281 360.065 130.953C359.198 130.625 353.981 127.74 355.041 126.598C358.052 127.268 361.038 128.747 362.739 131.406H362.734Z" fill="white"/>
<path d="M298.247 17.8279L292.476 18.7914C293.95 19.1767 296.494 19.6584 297.915 19.2875C298.42 19.1575 298.396 18.2904 298.724 18.0736C299.533 17.5293 302.067 18.0736 301.614 19.0322C300.564 21.2722 290.048 20.145 288.145 18.5505C287.664 16.561 295.077 16.5032 296.561 16.879C297.231 17.0476 298.064 16.8693 298.247 17.8328V17.8279Z" fill="white"/>
<path d="M266.959 187.241C267.07 188.127 265.952 187.66 265.504 187.496C264.001 186.947 261.559 185.719 260.711 184.356C263.24 184.062 264.661 186.697 266.964 187.246L266.959 187.241Z" fill="white"/>
<path d="M305.944 10.6218L305.226 13.9842C303.641 12.515 300.525 12.9052 300.173 10.1401L305.944 10.6218Z" fill="white"/>
<path d="M300.651 9.65355C300.309 8.13616 303.367 8.22769 304.239 8.18915C304.899 8.16025 307.24 7.8375 307.385 8.69013L303.059 9.17184L310.757 8.69976C310.916 8.82501 310.145 9.65837 310.034 9.65837H300.651V9.65355Z" fill="white"/>
<path d="M373.315 34.2015C373.402 34.9048 372.058 35.0638 371.591 35.1168C368.604 35.4443 363.561 35.3432 361.287 33.2429L373.315 34.2063V34.2015Z" fill="white"/>
<path d="M262.633 13.0208C257.349 14.3021 251.823 14.5767 246.756 12.3079C247.223 11.778 247.84 11.3541 248.543 11.2047C249.714 10.9591 255.167 10.1257 256.149 10.1353C257.021 10.145 263.558 11.7394 262.633 13.0208Z" fill="white"/>
<path d="M316.051 31.3113C316.065 32.1254 316.325 32.3566 315.371 32.2362C312.905 31.923 309.629 31.8074 307.871 29.8661C310.752 29.5916 313.141 31.7641 316.051 31.3064V31.3113Z" fill="white"/>
<path d="M270.337 3.87793V13.2617C270.337 13.4784 269.147 14.5141 268.655 14.4804L267.451 13.7434V4.35964L270.337 3.87793Z" fill="white"/>
<path d="M284.287 10.6218C284.239 12.2837 282.697 13.382 281.642 14.461C280.106 13.3049 280.048 11.855 280.443 10.1353L284.287 10.6218Z" fill="white"/>
<path d="M298.242 112.166C298.353 113.029 297.163 112.634 296.623 112.581C294.615 112.393 291.83 111.781 289.937 111.078C289.431 110.89 288.507 110.914 288.622 110.24L298.242 112.166Z" fill="white"/>
<path d="M391.145 36.0944L391.121 34.683C393.92 34.6156 397.759 32.7658 398.342 36.8363C397.812 37.5781 397.672 37.4914 396.887 37.3758C395.124 37.1157 392.985 36.3546 391.145 36.0896V36.0944Z" fill="white"/>
<path d="M343.48 27.9441C344.212 28.474 344.14 33.6235 342.526 34.1967C341.827 32.1928 340.57 28.6522 343.48 27.9441Z" fill="white"/>
<path d="M251.082 102.537C251.212 106.583 252.306 109.821 251.101 113.867C250.894 114.565 251.371 114.71 250.133 114.565C248.842 110.851 250.615 107.075 250.124 103.25L251.082 102.537Z" fill="#65242E"/>
<path d="M356.476 59.7081L355.561 60.3825L356.004 63.5521L356.958 63.0656C357.791 64.819 356.192 66.0859 354.395 65.9703L352.632 63.5521H354.554C354.906 63.1957 354.019 58.8121 356.476 59.7033V59.7081Z" fill="#65242E"/>
<path d="M201.996 209.853C202.439 211.24 201.134 210.546 201.028 211.057C200.768 212.338 202.121 211.288 201.991 212.251C200.691 212.343 195.83 212.319 195.262 211.047C194.101 208.456 200.787 209.766 201.991 209.853H201.996Z" fill="#65242E"/>
<path d="M418.076 58.2487L416.636 59.4578C420.788 62.3769 426.251 62.6322 431.068 61.6255C429.743 57.5454 423.481 58.3643 420.003 58.2535C420.186 57.3768 420.947 57.3575 421.67 57.2804C423.688 57.054 433.197 57.5454 431.983 61.3123C429.531 64.7373 416.925 62.7141 415.437 59.6938C415.148 59.1061 415.042 58.4558 415.234 57.8248C416.337 57.3864 417.59 56.8276 418.072 58.2487H418.076Z" fill="#65242E"/>
</g>
<defs>
<clipPath id="clip0_19_546">
<rect width="450" height="390.769" fill="white"/>
</clipPath>
</defs>
</svg>
