<svg width="1440" height="319" viewBox="0 0 1440 319" fill="none" xmlns="http://www.w3.org/2000/svg">
<g clip-path="url(#clip0_4006_2)">
<path d="M739.932 194.057H739.824C739.689 194.165 722.4 208.487 700.311 222.728C670.615 241.877 646.935 251.695 629.943 251.884H629.592C617.185 251.884 615.324 244.467 615.324 240.07C615.324 229.956 624.791 215.796 628.864 210.159L629.511 209.269L630.59 209.053C652.41 204.927 680.109 196.431 686.421 185.993C687.392 184.401 687.877 182.675 687.877 180.868C687.877 172.507 678.006 163.957 668.296 163.957C667.082 163.957 665.895 164.092 664.736 164.362C650.468 167.706 630.779 185.75 619.505 201.016L619.289 201.312L619.019 201.528C601.542 215.553 557.632 248.189 527.829 248.189C526.103 248.189 524.404 248.081 522.785 247.865C516.016 246.948 511.97 242.282 511.97 235.377C511.97 230.387 514.209 224.238 517.553 222.97C517.85 222.836 518.173 222.728 518.47 222.62C546.305 211.993 576.081 195.594 576.081 181.461C576.081 173.64 567.099 163.687 557.039 163.687C556.338 163.687 555.637 163.741 554.908 163.849C545.172 165.279 529.636 177.227 517.985 192.223L517.445 192.924L516.582 193.167C510.46 195.001 494.708 198.777 485.053 198.777C481.061 198.777 478.418 198.157 476.745 196.835L475.801 196.08L475.694 194.893C475.532 193.14 475.478 191.792 475.478 190.632C475.478 186.775 476.233 184.752 477.582 181.057C477.932 180.113 478.31 179.061 478.768 177.793C478.876 174.854 477.123 172.48 476.044 171.293C473.833 168.866 471.001 167.571 469.463 167.571C469.355 167.571 469.274 167.571 469.193 167.571L468.303 169.621C467.467 172.831 466.334 178.872 466.227 179.897L466.173 180.383L465.957 180.868C462.585 187.773 457.11 196.673 450.502 205.951C447.859 209.674 424.205 242.498 408.184 248.728L405.11 249.915L404.462 246.678C403.977 244.278 403.761 241.527 403.761 238.479C403.761 214.151 418.595 175.851 419.243 174.233C419.27 174.152 419.296 174.044 419.296 173.936C419.296 171.239 413.255 166.061 410.18 166.223C409.641 167.598 405.406 178.683 401.495 192.547L401.334 193.113L400.956 193.572C392.217 203.956 349.171 237.913 329.617 237.913C327.054 237.913 324.87 237.346 323.144 236.213C320.932 234.757 319.907 231.655 319.907 226.423C319.907 211.669 328.214 181.515 329.994 176.175L330.21 175.555L330.48 175.285C330.345 172.588 325.328 166.735 321.849 166.735C321.337 166.735 320.716 166.87 320.042 167.814C318.316 170.295 277.238 229.039 254.205 237.103L251.157 238.182L250.564 235C250.321 233.624 250.186 232.114 250.186 230.522C250.186 212.182 267.583 182.513 277.859 167.868C277.832 165.575 271.305 159.803 267.879 159.803C267.825 159.803 267.771 159.803 267.744 159.803C262.134 167.787 254.286 179.978 248.541 192.897L248.109 193.868L247.138 194.3C242.311 199.505 125.147 323.6 51.2995 323.6C46.6065 323.6 42.1023 323.088 37.9487 322.09C19.2036 317.613 9.30511 302.59 9.30511 278.612C9.30511 239.558 36.3574 176.229 78.1899 117.297C122.369 54.9659 170.594 14.374 207.059 8.76397C221.327 6.55232 231.441 7.49632 237.105 11.515C241.016 14.2931 243.012 19.4446 243.012 26.8348C243.012 39.2686 237.537 54.4265 235.433 59.2004C231.414 68.3167 225.507 78.6197 217.632 89.5431C218.468 89.8129 219.304 90.0826 220.14 90.3523C222.594 91.1614 225.076 91.9436 227.557 92.6718C229.418 93.2112 231.441 92.456 232.493 90.8378C237.968 82.5576 242.257 74.7359 245.385 67.6424C250.321 56.4493 252.802 46.362 252.802 37.6772C252.802 25.0547 247.759 15.345 237.348 7.95483C229.877 2.66845 220.41 -0.0286865 209.19 -0.0286865C205.252 -0.0286865 201.044 0.321941 196.675 0.969253C162.583 6.20169 114.385 45.9305 70.8807 104.647C27.1601 163.66 0 226.153 0 267.77C0 272.247 0.296685 276.508 0.917026 280.473C4.63907 304.747 22.2514 324.059 45.7973 329.669C50.1127 330.694 54.7788 331.233 59.6606 331.233C118.863 331.233 203.067 255.552 236.512 223.024L240.665 219.006L241.205 224.75C241.717 230.226 243.551 234.622 246.734 238.182C251.939 243.954 258.844 246.732 264.076 245.114C273.058 242.363 288.216 228.823 305.693 208.001L311.034 201.663L310.602 209.943C310.548 210.941 310.521 211.939 310.521 212.91C310.521 225.56 314.863 234.568 323.818 240.448C327.675 242.983 332.341 244.251 337.708 244.251C357.829 244.251 381.537 227.043 390.788 219.653L396.02 215.472L395.292 222.107C394.914 225.398 394.753 228.446 394.753 231.143C394.753 233.624 394.914 235.917 395.211 237.939C396.398 246.031 402.628 257.413 412.661 257.413H412.931C428.305 257.17 457.218 219.383 469.301 199.209L471.054 196.269L473.563 198.615C479.2 203.848 486.725 206.383 496.596 206.383C498.97 206.383 501.586 206.221 504.337 205.898L509.219 205.331L507.196 209.808C504.256 216.281 502.773 222.215 502.773 227.502C502.773 230.576 503.285 233.462 504.31 235.998C508.302 245.896 519.63 253.987 531.821 255.66C548.192 257.871 572.521 248.755 601.758 229.578L606.208 226.665L606.046 231.979C605.857 238.29 608.231 244.197 612.924 249.025C619.343 255.633 629.565 259.759 639.571 259.759H639.895C680.163 259.328 745.704 205.439 748.455 203.146C748.401 200.234 742.629 194.111 739.959 194.111L739.932 194.057ZM648.607 188.42C657.831 180.221 666.785 174.557 673.852 172.453L679.543 170.781L677.169 176.229C674.526 182.325 665.841 188.016 651.358 193.113L638.061 197.806L648.607 188.447V188.42ZM528.18 200.234C536.406 189.607 550.296 175.905 562.352 172.291L567.018 170.889L565.832 175.609C563.135 186.424 545.738 197.24 531.632 204.387L520.628 209.97L528.18 200.234Z" fill="#2F1418" fill-opacity="0.2"/>
<path d="M1430.29 190.55C1430.29 190.55 1430.08 190.55 1429.97 190.55C1429.32 190.631 1414.84 192.276 1396.34 195.593L1392.61 196.268L1393.1 192.518C1393.37 190.415 1393.53 188.338 1393.53 186.342C1393.53 175.527 1389.46 161.501 1370.04 156.161C1369.77 156.08 1369.45 156.053 1369.12 156.053C1357.6 156.053 1331.17 195.971 1313.67 222.403C1311.05 226.314 1308.52 230.144 1306.12 233.758L1294.87 250.723L1301.18 231.357C1322.97 164.441 1372.41 35.5992 1374.52 30.151C1374.57 29.9892 1374.57 29.2879 1373.71 28.0203C1371.52 24.8377 1366.67 21.8708 1364.51 21.8708V21.9248C1360.36 32.4706 1323.59 127.005 1300.34 194.676L1300.16 195.27L1299.72 195.701C1289.23 206.544 1249.07 237.911 1230.3 237.911C1227.74 237.911 1225.55 237.345 1223.83 236.212C1221.62 234.756 1220.59 231.627 1220.59 226.421C1220.59 211.668 1228.9 181.514 1230.68 176.174L1230.89 175.554L1231.16 175.284C1231.03 172.587 1226.01 166.734 1222.53 166.734C1222.02 166.734 1221.4 166.869 1220.73 167.813C1219 170.294 1177.92 229.038 1154.89 237.102L1151.84 238.181L1151.25 234.998C1151 233.623 1150.87 232.112 1150.87 230.521C1150.87 212.181 1168.27 182.512 1178.54 167.867C1178.51 165.574 1171.99 159.802 1168.56 159.802C1168.51 159.802 1168.45 159.802 1168.43 159.802C1163.01 167.543 1155.35 179.356 1149.66 191.898L1149.25 192.815L1148.33 193.247C1135.63 205.384 1120.93 222.511 1106.74 239.071C1085.71 263.588 1065.86 286.756 1050.19 297.275L1045.79 300.242L1045.87 294.956C1046.44 255.092 1096.31 134.611 1123.09 69.9068C1125.71 63.5955 1128.4 57.6348 1130.78 52.3754C1135.28 42.396 1139.19 33.7652 1139.19 29.9622C1139.19 27.319 1132.45 21.8978 1129.16 21.8708C1126.89 28.3439 1121.12 42.2612 1113.19 61.4108L1113.06 61.7614C1098.84 96.1499 1077.35 148.097 1060.89 194.002L1060.7 194.541L1060.3 194.973C1047.84 208.135 936.42 323.599 865.054 323.599C860.361 323.599 855.857 323.087 851.703 322.089C832.958 317.612 823.06 302.589 823.06 278.611C823.06 239.557 850.112 176.228 891.945 117.295C936.205 54.9377 984.429 14.3458 1020.89 8.73577C1035.16 6.52412 1045.28 7.46812 1050.94 11.4869C1054.85 14.2649 1056.85 19.4164 1056.85 26.8066C1056.85 39.2404 1051.37 54.3983 1049.27 59.1722C1043.82 71.5251 1034.87 86.1435 1022.27 101.409C1027.72 100.223 1033.22 99.0358 1038.78 98.3076C1040.42 98.0918 1041.91 97.2287 1042.88 95.8802C1050.05 85.739 1055.5 76.1372 1059.22 67.6142C1064.16 56.4211 1066.64 46.3338 1066.64 37.6491C1066.64 25.0265 1061.59 15.3168 1051.18 7.92663C1043.71 2.64025 1034.25 -0.0568848 1023.03 -0.0568848C1019.11 -0.0568848 1014.88 0.293743 1010.51 0.941055C976.419 6.1735 928.221 45.9023 884.716 104.619C840.996 163.605 813.862 226.098 813.862 267.715C813.862 272.192 814.186 276.453 814.78 280.418C818.502 304.692 836.114 324.004 859.66 329.614C863.975 330.639 868.641 331.178 873.523 331.178C897.015 331.178 950.31 317.989 1043.36 229.712L1051.08 222.403L1047.92 232.544C1040.02 257.951 1036.03 276.372 1036.03 287.296C1036.03 301.779 1041.64 308.549 1053.26 307.956C1060.43 307.605 1088.59 275.671 1109.17 252.341C1118.72 241.525 1128.56 230.332 1137.11 221.216L1141.62 216.415L1141.91 222.996C1142.18 229.173 1144.1 234.243 1147.58 238.1C1152.78 243.872 1159.66 246.65 1164.92 245.032C1173.9 242.281 1189.06 228.768 1206.54 207.919L1211.82 201.608L1211.42 209.834C1211.37 210.859 1211.34 211.83 1211.34 212.801C1211.34 225.451 1215.68 234.459 1224.64 240.339C1228.49 242.874 1233.16 244.142 1238.53 244.142C1255.49 244.142 1275.13 231.735 1285.32 224.318L1292.09 219.409L1289.61 227.392C1282.54 250.048 1281.06 258.679 1281.06 261.943C1281.06 268.578 1284.78 272.084 1291.85 272.084C1296.14 271.895 1311.78 248.538 1316.93 240.851L1318.69 238.235L1321.06 240.285C1328.29 246.542 1335.84 249.698 1343.53 249.698C1358.44 249.698 1379.02 235.052 1389.46 207.083L1390.02 205.6L1391.59 205.33C1415.57 201.176 1437.47 198.587 1440.11 198.263C1439.38 195.755 1434.23 190.442 1430.4 190.442L1430.29 190.55ZM1372.06 213.853C1367.07 221.998 1361.06 228.957 1354.69 233.973C1351.35 236.59 1342.58 242.685 1333.87 242.685C1328.96 242.685 1324.78 240.662 1321.81 236.886L1320.6 235.322L1329.74 221.54L1330.42 221.216C1338.37 217.359 1351.4 213.502 1369.15 209.726L1375.46 208.378L1372.09 213.88L1372.06 213.853ZM1379.91 197.454L1379.4 198.911L1377.89 199.234C1365.08 201.985 1353.91 205.006 1344.69 208.162L1336.81 210.859L1341.5 203.981C1364.54 170.186 1371.9 163.389 1376.35 163.389C1376.78 163.389 1377.19 163.443 1377.56 163.551C1381.61 164.657 1383.69 168.865 1383.69 176.039C1383.69 184.103 1381.1 194.11 1379.94 197.427L1379.91 197.454Z" fill="#2F1418" fill-opacity="0.2"/>
<path d="M519.793 145.56L574.706 122.338C575.597 121.852 576.756 118.966 576.675 117.645C575.3 116.997 571.767 116.242 570.742 116.566L518.525 142.755C518.148 143.079 517.446 144.319 517.069 145.29C518.04 145.479 519.253 145.641 519.793 145.533V145.56Z" fill="#2F1418" fill-opacity="0.2"/>
</g>
<defs>
<clipPath id="clip0_4006_2">
<rect width="1440" height="331.208" fill="white"/>
</clipPath>
</defs>
</svg>
