<svg width="580" height="347" viewBox="0 0 580 347" fill="none" xmlns="http://www.w3.org/2000/svg">
<g clip-path="url(#clip0_22_746)">
<path d="M261.155 280.024C247.472 280.024 235.158 278.168 228.212 275.056C224.654 273.461 221.637 271.826 220.704 267.908C220.47 266.921 222.064 263.94 223.186 262.588C226.83 258.206 238.122 254.868 244.292 254.499C244.711 254.472 245.738 254.431 246.932 254.431C249.742 254.431 251.089 254.652 251.715 254.828C251.499 254.927 251.228 254.967 250.855 254.967C250.602 254.967 250.35 254.949 250.098 254.931C249.814 254.913 249.53 254.895 249.26 254.895C248.783 254.895 248.4 254.954 248.058 255.076C247.103 255.413 246.927 256.283 246.837 256.747C246.828 256.796 246.814 256.864 246.801 256.922C245.747 257.319 243.391 257.67 241.297 257.981C239.468 258.251 237.743 258.512 236.586 258.814C232.586 259.872 228.451 260.962 225.528 264.764C224.722 265.813 224.447 266.831 224.708 267.795C225.181 269.534 227.235 270.493 229.302 271.326C238.554 275.06 250.247 277.119 262.227 277.119C275.668 277.119 288.162 274.524 297.413 269.813C300.445 268.268 302.269 265.912 302.174 263.66C302.12 262.318 301.373 260.435 298.143 259.116L297.463 258.836L296.504 260.269C295.603 259.994 293.58 258.927 292.306 258.255C290.864 257.494 289.617 256.837 288.865 256.598C284.838 255.323 280.32 255.13 275.951 254.945C274.726 254.891 273.569 254.841 272.429 254.769L271.974 254.742L270.781 256.175L270.749 256.44C270.628 257.481 271.479 258.688 272.465 260.08C273.019 260.863 274.172 262.498 274.037 262.94C274.033 262.94 273.794 263.147 272.785 263.147C272.497 263.147 272.163 263.129 271.803 263.097C269.911 262.922 269.686 262.066 269.326 259.971C269.2 259.237 269.056 258.404 268.763 257.584C268.385 256.517 267.835 255.625 267.304 254.76C266.894 254.094 266.506 253.468 266.263 252.846C265.277 250.328 265.236 245.432 265.209 241.856C265.205 240.982 265.196 240.167 265.178 239.451C265.079 235.591 265.137 231.668 265.191 227.875C265.25 223.984 265.308 219.957 265.196 216.002C265.155 214.521 265.002 213.151 264.858 211.827C264.416 207.85 264.07 204.706 266.84 200.864L267.308 200.216L266.718 199.675C266.182 199.18 265.56 198.932 264.876 198.932C264.245 198.932 263.664 199.139 263.106 199.333C262.642 199.499 262.2 199.653 261.777 199.675C261.714 199.675 261.655 199.68 261.592 199.68C261.029 199.68 260.421 199.558 259.773 199.427C259.088 199.292 258.381 199.148 257.678 199.148C256.638 199.148 255.805 199.463 255.124 200.108L254.422 200.779L255.142 201.432C258.363 204.337 258.228 207.147 258.057 210.701C258.003 211.841 257.944 213.016 257.994 214.286C258.165 219.056 258.674 223.966 259.165 228.713C259.953 236.356 260.768 244.257 260.264 252.017C260.002 256.035 259.538 257.629 256.971 260.458L256.57 260.899L256.818 261.44C257.584 263.102 259.142 263.192 260.282 263.255C261.038 263.295 261.466 263.35 261.732 263.521C261.128 263.827 260.273 264.003 259.336 264.003C257.39 264.003 255.332 263.219 255.255 261.913C255.224 261.354 255.417 260.755 255.62 260.12C255.8 259.562 255.985 258.985 256.039 258.373C256.944 247.964 256.282 237.163 255.642 226.718C255.525 224.79 255.408 222.871 255.3 220.957C255.188 218.998 255.142 216.984 255.093 215.043C254.989 210.827 254.881 206.467 254.152 202.197L254.134 202.085L254.089 201.981C252.814 199.117 248.008 198.229 244.143 197.518C242.81 197.27 241.549 197.04 240.707 196.77C233.879 194.581 223.497 188.721 218.632 183.069C215.385 179.294 212.745 173.434 211.034 167.448C212.007 168.998 213.178 170.331 214.394 171.714L214.75 172.124C215.853 173.385 216.925 174.7 217.826 175.821C218.195 176.344 218.578 176.871 218.97 177.389C220.038 179.407 221.146 181.492 222.497 183.352C225.226 187.109 229.266 190.433 233.897 192.734C234.392 193.694 235.207 194.401 236.279 194.788C241.923 196.842 247.936 197.883 254.161 197.878C254.989 197.878 255.832 197.86 256.665 197.819C257.111 198.018 257.615 198.229 258.201 198.261C258.259 198.261 258.327 198.265 258.394 198.265C261.628 198.265 278.253 193.946 280.726 192.216L280.771 192.185L283.541 189.685C288.207 186.829 292.653 182.996 296.4 178.6C301.796 172.263 304.539 166.345 304.782 160.499C304.832 159.336 304.471 158.323 303.746 157.562C303.345 157.062 302.832 156.688 302.246 156.454L304.165 155.765L304.296 155.328C304.557 154.436 304.377 153.468 303.782 152.594C303.093 151.585 301.945 150.873 300.859 150.783C300.805 150.779 300.755 150.774 300.701 150.774C299.895 150.774 299.431 151.288 299.12 151.625C299.048 151.707 298.945 151.819 298.877 151.869C298.58 151.765 297.801 151.414 297.215 151.153C296.224 150.707 295.202 150.243 294.598 150.063C286.568 147.653 274.776 146.324 261.39 146.324C245.04 146.324 229.284 148.283 219.249 151.567C219.146 151.598 219.02 151.639 218.876 151.68C217.515 152.089 215.236 152.774 215.218 154.404V155.022L215.786 155.251C216.029 155.35 216.277 155.445 216.52 155.544C216.443 155.544 216.367 155.544 216.295 155.544C215.655 155.544 215.015 155.589 214.385 155.67C213.408 155.801 212.534 156.386 211.921 157.31C211.268 158.301 211.002 159.544 211.201 160.629C210.552 161.129 210.079 161.751 209.809 162.422C209.034 158.503 208.71 154.769 208.926 151.792C209.647 141.874 212.633 126.984 215.871 117.147C217.191 113.147 219.375 109.03 221.492 105.053C223.096 102.035 224.758 98.9185 226.014 95.8783C226.253 95.3423 226.947 95.1441 227.469 95.1441C227.695 95.1441 227.915 95.1801 228.104 95.2432C228.149 95.3062 228.203 95.4594 228.24 95.554C228.348 95.8467 228.604 96.5404 229.357 96.5494C230.311 96.5494 232.036 96.1035 233.861 95.635C235.126 95.3107 236.437 94.9729 237.248 94.8513C245.134 93.6893 251.512 93.446 258.656 93.4415C259.642 93.4415 260.588 93.2253 261.592 92.9956C262.61 92.7614 263.664 92.5227 264.777 92.5227H264.952C271.037 92.6623 290.202 95.4504 294.81 98.5087C294.99 98.6258 295.103 98.7203 295.179 98.7879C295.175 98.7969 295.166 98.8014 295.161 98.8104C294.95 99.0491 294.63 99.405 294.607 99.9364C294.594 100.247 294.688 100.427 295.206 101.427C295.504 101.995 295.95 102.855 296.049 103.175C296.995 106.265 297.949 109.282 298.868 112.201C302.575 123.943 306.075 135.037 308.282 147.95C310.151 158.859 308.336 169.471 303.03 178.637C297.229 188.663 280.676 195.657 271.326 198.936L271.037 199.04L270.871 199.297C270.664 199.617 270.429 199.936 270.186 200.27C269.272 201.522 268.236 202.941 268.312 204.832C268.511 210.48 268.457 216.399 268.403 222.119C268.33 229.681 268.258 237.505 268.767 244.946C268.902 246.95 269.33 249.27 270.11 252.256L270.15 252.405L270.236 252.535C270.56 253.013 271.109 253.256 271.871 253.256C272.479 253.256 273.168 253.107 273.834 252.968C274.33 252.864 274.839 252.751 275.136 252.751H275.19C280.1 253.098 287.365 254.071 291.72 255.382C294.085 256.093 300.377 258.503 302.377 259.724C303.908 260.656 304.904 262.165 305.178 263.967C305.48 265.917 304.899 267.899 303.584 269.403C300.801 272.592 289.243 276.533 283.96 277.839C278.294 279.24 269.974 280.046 261.137 280.046L261.155 280.024ZM224.749 105.963C224.798 107.382 223.326 109.805 222.227 111.616C221.641 112.579 221.132 113.417 220.821 114.111C218.15 120.065 215.043 133.123 214.16 139.145C213.894 140.946 213.898 142.721 213.903 144.441C213.903 146.572 213.907 148.585 213.439 150.59L213.412 150.711V150.833C213.439 151.274 213.777 151.747 214.475 151.747C215.277 151.747 217.65 151.076 221.745 149.833C222.528 149.594 223.267 149.373 223.443 149.328C235.865 146.387 251.526 144.703 266.412 144.703C272.799 144.703 278.789 145.013 284.212 145.621C290.747 146.356 297.13 148.099 302.76 149.639L303.899 149.95V139.095C303.899 136.384 298.476 115.845 297.328 112.476C297.013 111.553 296.423 110.499 295.905 109.571C295.495 108.837 295.071 108.08 294.977 107.72C294.896 107.4 294.882 106.918 294.873 106.449C294.842 105.229 294.783 102.95 292.517 102.95C292.216 102.95 291.891 102.995 291.531 103.085L291.486 103.098L291.441 103.116C289.86 103.693 288.225 104.445 286.491 105.242C283.253 106.733 279.901 108.274 276.906 108.616C276.546 108.656 276.19 108.679 275.825 108.679C275.028 108.679 274.321 108.584 273.569 108.481C272.799 108.377 272.001 108.269 271.096 108.269C271.001 108.269 270.907 108.269 270.812 108.269C268.907 108.319 266.718 108.778 264.601 109.228C262.899 109.589 261.286 109.927 259.903 110.044C259.502 110.08 259.011 110.093 258.444 110.093C252.278 110.093 238.847 108.116 234.955 106.337C234.207 105.994 233.698 105.733 233.248 105.499C232.406 105.062 231.676 104.688 229.924 104.062C229.717 103.99 229.235 103.688 228.816 103.418C227.74 102.738 226.523 101.972 225.497 101.972C224.839 101.972 224.438 102.274 224.213 102.526C223.762 103.04 223.618 103.814 223.767 104.959C223.853 105.625 224.438 105.855 224.758 105.954L224.749 105.963ZM263.457 94.8063C261.538 94.8063 259.507 94.8423 257.413 94.9099C257.174 94.9189 233.181 95.9098 229.694 99.0536C229.451 99.2743 229.208 99.5221 228.956 99.8103L228.451 100.391L228.947 100.981C229.613 101.774 230.293 102.288 231.091 102.603C238.887 105.661 249.539 107.346 261.083 107.346C264.434 107.346 267.736 107.202 270.889 106.918C273.871 106.648 283.162 105.612 286.653 104.427C287.694 104.071 288.495 103.197 289.202 102.427C289.509 102.094 289.802 101.774 290.072 101.54L290.761 100.945L290.162 100.261C287.685 97.4457 284.852 96.644 282.163 96.198C276.537 95.2657 270.42 94.8108 263.457 94.8108V94.8063ZM254.489 162.359C249.805 162.359 245.544 162.003 241.563 161.278C245.184 161.616 248.931 161.782 252.818 161.782C262.588 161.782 273.006 160.787 286.59 158.548C287.293 158.431 288.482 158.147 289.865 157.814C292.328 157.224 295.706 156.409 297.139 156.409C297.301 156.409 297.391 156.418 297.431 156.427C297.436 156.436 297.44 156.445 297.445 156.454C293.824 156.94 290.346 157.877 286.959 158.791C285.383 159.215 283.757 159.656 282.131 160.048C276.906 161.3 271.276 161.904 264.421 161.949C264.331 161.944 264.241 161.94 264.151 161.94C264.025 161.94 263.898 161.944 263.768 161.953C260.39 162.224 257.354 162.354 254.485 162.354L254.489 162.359Z" fill="#65242E"/>
<path d="M551.359 282.11C549.175 282.11 546.99 281.461 544.279 280.006C543.396 279.533 542.675 278.885 541.919 278.2C540.923 277.299 539.892 276.371 538.473 275.88L538.058 275.736L537.689 275.975C536.743 276.587 535.824 277.29 534.933 277.966C532.478 279.826 530.158 281.587 527.235 281.92C526.83 281.965 526.393 281.988 525.933 281.988C521.709 281.988 516.484 280.123 514.043 277.741C513.691 277.398 513.331 276.853 512.953 276.277C512.155 275.07 511.255 273.705 509.863 273.493C509.786 273.48 509.705 273.475 509.62 273.475C508.849 273.475 507.886 273.993 506.557 274.714C505.147 275.475 503.39 276.425 502.048 276.529C501.837 276.547 501.616 276.551 501.391 276.551C495.729 276.551 486.207 272.092 484.221 267.53C484.09 267.228 483.973 266.521 483.87 265.899C483.586 264.197 483.32 262.584 482.145 262.219L481.987 262.17L481.82 262.179C480.748 262.251 479.879 262.692 479.037 263.125C478.402 263.449 477.798 263.755 477.168 263.863C476.713 263.94 476.199 263.981 475.636 263.981C473.645 263.981 471.321 263.494 469.457 263.102L469.105 263.03C468.61 262.927 468.11 262.706 467.583 262.472C466.759 262.107 465.826 261.697 464.75 261.697C464.61 261.697 464.466 261.706 464.322 261.719C463.39 261.814 462.11 262.683 460.12 264.107C459.075 264.85 457.994 265.625 457.332 265.926C454.872 267.043 451.868 267.683 449.085 267.683C446.139 267.683 443.603 266.989 441.743 265.679C439.793 264.3 435.649 259.945 435.162 258.242C434.964 257.549 434.955 256.864 434.946 256.134C434.933 255.107 434.924 254.049 434.37 252.954L434.275 252.765L434.104 252.639C433.811 252.423 433.442 252.315 433.005 252.315C432.01 252.315 430.676 252.9 429.496 253.418C428.933 253.666 428.348 253.923 428.059 253.99C426.357 254.382 424.627 254.58 422.925 254.58C420.191 254.58 416.286 254.058 413.182 251.576C410.448 249.387 409.183 246.595 409.516 243.496C409.962 239.339 413.268 235.055 417.745 232.83L418.43 232.492L417.822 230.502L417.52 230.321C414.403 228.475 412.872 226.502 412.971 224.453C413.097 221.818 415.998 218.926 420.722 216.715C422.745 215.769 429.694 212.679 434.167 212.679C434.325 212.679 434.478 212.679 434.626 212.692C434.987 212.71 435.788 212.855 436.631 213.003C438.005 213.246 439.558 213.521 440.54 213.521C441.103 213.521 441.482 213.431 441.761 213.228L442.076 213.003L442.126 212.62C443.04 205.693 449.305 201.419 454.863 199.725C457.043 199.058 458.737 198.752 460.192 198.752C463.2 198.752 465.443 200.112 467.696 203.301L468.371 204.261L469.448 202.964C471.772 200.167 473.605 197.955 477.073 196.662C478.131 196.27 478.74 196.086 479.181 195.951C480.366 195.595 480.456 195.527 482.712 193.861C483.789 193.068 485.059 192.383 486.406 191.658C490.234 189.595 494.567 187.262 494.157 181.857C494.067 180.704 493.018 179.47 492 178.281C491.648 177.871 491.171 177.313 490.901 176.912C491.261 176.912 491.743 176.961 492.342 177.065C494.103 178.682 495.756 180.569 497.355 182.393C499.247 184.551 501.197 186.785 503.386 188.641C506.971 191.685 511.417 194.118 515.718 196.473C517.452 197.424 519.087 198.32 520.668 199.252C520.812 199.338 520.997 199.522 521.2 199.721C521.65 200.167 522.263 200.784 523.254 201.153C524.47 201.608 525.893 201.838 527.267 202.063C529.014 202.346 530.825 202.639 532.073 203.378C532.946 203.891 534.289 205.4 534.356 206.427C534.374 206.711 534.293 206.9 534.077 207.071C533.892 207.215 533.69 207.287 533.446 207.287C532.235 207.287 530.365 205.684 529.001 204.517C528.1 203.743 527.321 203.076 526.641 202.716C524.6 201.635 522.227 201.437 519.929 201.243C518.416 201.117 516.853 200.986 515.452 200.594C513.164 199.955 510.606 198.631 508.732 197.144C510.174 197.761 511.701 198.14 513.119 198.279L513.705 196.635L502.156 188.947L502.895 191.357C503.445 193.149 504.656 194.604 506.178 195.712L506.228 196.978C506.314 199.234 507.854 202.855 508.867 204.738C510.111 207.044 511.052 207.54 512.48 208.152C512.984 208.368 513.552 208.612 514.245 209.031C514.583 209.238 514.903 209.535 515.236 209.855C515.84 210.422 516.52 211.066 517.551 211.404C518.614 211.747 519.578 211.756 520.429 211.765C521.128 211.769 521.785 211.778 522.425 211.963C522.844 212.084 523.713 212.755 524.407 213.291C525.74 214.318 526.596 214.949 527.388 214.949H527.731L527.987 214.724C530.555 212.449 533.478 211.292 536.676 211.292C541.247 211.292 546.193 213.8 549.9 217.998C552.4 220.831 553.476 223.493 553.089 225.907C552.629 228.786 550.184 231.492 545.612 234.186L543.873 235.213L545.797 235.821C546.769 236.127 548.616 237.465 550.242 238.645C552.422 240.221 553.809 241.199 554.764 241.397C555.03 241.451 555.314 241.478 555.602 241.478C556.485 241.478 557.327 241.23 558.142 240.992C558.755 240.811 559.331 240.64 559.872 240.591C560.349 240.546 560.845 240.523 561.345 240.523C565.565 240.523 569.938 242.073 572.758 244.568C574.069 245.73 578.708 251.599 579.064 252.684C579.969 255.427 579.69 258.031 578.258 260.206C576.42 263.008 572.749 264.976 568.677 265.35C568.614 265.354 568.556 265.359 568.493 265.359C568.173 265.359 567.835 265.291 567.479 265.224C567.078 265.143 566.664 265.062 566.227 265.062C565.362 265.062 564.646 265.386 564.043 266.057L563.7 266.435L563.849 266.922C565.853 273.561 563.642 278.227 557.282 280.781C555.007 281.695 553.12 282.123 551.35 282.123L551.359 282.11ZM552.688 259.936C552.336 259.936 551.99 259.963 551.656 260.021C550.499 260.22 545.4 261.602 544.378 261.999C541.855 262.976 541.973 264.233 542.31 265.44C542.4 265.769 542.486 266.075 542.464 266.381C542.387 267.507 542.175 268.543 541.995 269.453C541.419 272.313 540.874 275.011 545.779 276.736C546.697 277.06 552.49 278.227 553.395 278.227H553.471C556.737 278.056 562.588 272.777 562.498 269.295C562.381 264.746 557.336 259.931 552.688 259.931V259.936ZM519.632 276.254C521.128 276.286 522.227 276.7 523.29 277.101C524.344 277.497 525.429 277.907 526.794 277.907C528.158 277.907 529.694 277.475 531.483 276.547C534.496 274.984 537.707 269.894 538.221 266.827C538.486 265.251 537.401 262.913 536.212 261.292C535.568 260.413 534.275 258.913 532.852 258.715C532.775 258.706 532.699 258.702 532.622 258.702C532.316 258.702 532.032 258.783 531.789 258.85C531.618 258.9 531.442 258.949 531.329 258.949C530.938 258.868 530.55 258.531 530.104 258.143C529.284 257.427 528.267 256.54 526.605 256.481C526.546 256.481 526.483 256.481 526.415 256.481C525.222 256.481 522.191 256.878 520.902 257.603C520.407 257.882 520.069 258.283 519.767 258.634C519.578 258.859 519.398 259.071 519.231 259.184C518.993 259.346 518.691 259.53 518.353 259.738C516.858 260.666 514.998 261.814 514.389 263.179C514.065 263.908 514.227 264.746 514.385 265.557C514.498 266.124 514.61 266.71 514.547 267.196C514.466 267.841 514.115 268.507 513.75 269.21C512.827 270.975 511.561 273.399 515.259 275.894C516.142 276.488 516.826 276.759 517.475 276.759C517.961 276.759 518.326 276.61 518.65 276.479C518.957 276.358 519.195 276.259 519.587 276.259H519.641L519.632 276.254ZM490.707 269.503C491.5 269.503 492.743 270.192 493.837 270.804C494.657 271.259 495.427 271.692 496.139 271.926C497.864 272.502 499.558 272.795 501.161 272.795C504.904 272.795 507.904 271.21 509.836 268.21C511.083 266.273 511.498 264.616 511.106 263.143C510.529 260.976 508.318 259.832 506.543 258.918C505.593 258.427 504.417 257.819 504.206 257.323C504.336 257.287 504.611 257.278 504.782 257.274C505.408 257.251 506.458 257.211 506.836 256.197L507.237 255.125L506.102 254.986C505.539 254.918 504.841 254.765 504.098 254.603C502.85 254.333 501.562 254.053 500.467 254.053C500.251 254.053 500.044 254.067 499.859 254.09C498.999 254.193 490.306 257.814 489.567 258.229C487.032 259.648 485.451 261.999 485.334 264.521C485.225 266.863 486.419 269.066 488.613 270.57L489.567 271.223L489.968 270.138C490.184 269.557 490.441 269.507 490.707 269.507V269.503ZM452.805 242.365C452.165 242.365 451.611 242.473 451.156 242.69C450.553 242.973 450.233 243.149 449.994 243.275C449.571 243.505 449.485 243.55 448.107 243.964C445.612 244.712 438.662 249.23 437.428 251.91C436.946 252.959 437.545 256.319 438.518 256.977C438.865 257.211 439.27 257.242 439.626 257.269C439.95 257.292 440.257 257.319 440.468 257.468C440.567 257.544 440.77 257.891 440.905 258.121C441.175 258.58 441.477 259.098 441.923 259.485L442.355 259.868C444.639 261.895 447.486 264.417 450.783 264.417C450.967 264.417 451.152 264.408 451.341 264.395C453.215 264.228 460.43 261.332 461.21 258.855C461.714 257.247 461.102 255.896 460.511 254.589C459.885 253.211 459.295 251.91 459.719 250.081C459.773 249.851 460.048 249.423 460.295 249.049C460.885 248.149 461.552 247.126 461.16 246.081L461.088 245.892L460.944 245.752C459.367 244.212 455.39 242.356 452.809 242.356L452.805 242.365ZM561.493 241.37C559.948 241.37 558.327 241.721 556.53 242.442L555.624 242.807L556.061 243.681C558.313 248.198 557.539 252.932 553.998 256.351L553.368 256.959L553.953 257.607C554.863 258.612 556.052 259.094 557.102 259.521C557.71 259.769 558.286 260.003 558.782 260.319C559.624 260.85 560.282 261.377 560.863 261.841C562.318 263.003 563.574 264.008 566.43 264.008C566.889 264.008 567.38 263.985 567.921 263.931C572.781 263.476 575.947 260.125 576.181 255.175C576.397 250.653 573.114 247.824 570.718 245.757C567.668 243.127 564.93 241.374 561.493 241.374V241.37ZM467.119 245.126C465.885 245.126 464.912 245.478 464.151 246.203L463.781 246.554L463.894 247.05C464.191 248.378 463.894 249.351 463.579 250.378C463.088 251.973 462.534 253.779 464.831 256.252C465.961 257.468 472.47 261.156 474.253 261.238C474.353 261.242 474.456 261.247 474.555 261.247C477.749 261.247 480.163 258.927 482.104 257.067C482.149 257.026 482.19 256.986 482.235 256.945L484.505 257.702L485.685 254.288L475.825 244.415C475.343 243.946 474.798 243.726 474.15 243.726C473.884 243.726 473.632 243.757 473.33 243.811C472.646 243.928 472.006 244.338 471.384 244.739C470.983 244.996 470.529 245.289 470.267 245.343C470.168 245.361 470.047 245.374 469.903 245.374C469.578 245.374 469.182 245.325 468.758 245.271C468.259 245.207 467.686 245.131 467.114 245.131L467.119 245.126ZM508.813 245.973C507.426 245.973 506.431 247.063 505.557 248.027C505.264 248.351 504.985 248.658 504.728 248.878C504.629 248.964 504.296 249.153 504.03 249.311C503.03 249.887 501.999 250.486 501.864 251.369C501.805 251.752 501.922 252.126 502.192 252.423L502.382 252.626L502.652 252.689C504.201 253.058 505.588 253.945 506.994 254.896C508.259 255.756 509.192 256.679 510.183 257.657C510.867 258.332 511.574 259.035 512.412 259.729L512.849 260.094L513.367 259.85C515.34 258.931 519.186 256.427 519.646 253.527C519.785 252.639 519.668 251.32 518.304 250.054C517.722 249.513 509.93 246.009 508.917 245.969H508.822L508.813 245.973ZM539.036 235.596C535.897 235.596 535.334 237.271 535.239 237.992C535.158 238.591 535.297 239.154 535.428 239.694C535.541 240.163 535.649 240.604 535.617 241.055C535.509 242.613 534.005 245.298 532.829 246.478C532.329 246.982 531.559 247.428 530.811 247.86C529.487 248.626 528.24 249.347 528.249 250.594C528.258 251.765 529.429 252.572 530.447 253.148C534.55 255.454 538.662 257.526 543.801 257.526C543.95 257.526 544.098 257.526 544.247 257.522C547.432 257.45 549.057 255.243 550.49 253.301C550.904 252.738 551.31 252.193 551.737 251.698L552.656 254.45L553.692 253.333C556.467 250.338 555.674 245.874 553.463 243.009C552.607 241.901 551.814 241.753 551.147 241.753C551.066 241.753 550.778 241.762 550.71 241.762C550.517 241.762 550.364 241.744 550.188 241.667C549.166 241.203 547.67 240.127 546.351 239.181C545.697 238.713 545.08 238.267 544.535 237.906C544.504 237.861 544.477 237.807 544.445 237.749C544.279 237.46 544.026 237.024 543.576 236.731C542.554 236.073 540.644 235.596 539.036 235.596ZM414.056 241.78C413.863 244.73 414.552 247.176 416.074 248.887C417.538 250.536 419.736 251.405 422.42 251.405C422.61 251.405 422.803 251.405 423.001 251.392C424.785 251.315 429.771 250.324 431.555 249.761C432.672 249.41 433.464 248.725 434.167 248.117C434.883 247.5 435.5 246.964 436.343 246.856L436.721 246.806L436.951 246.505C437.207 246.162 437.293 245.752 437.194 245.352C436.964 244.419 435.892 243.843 434.397 243.131C434.122 243 433.744 242.82 433.649 242.748C432.658 241.996 431.834 241.127 431.465 240.546L433.41 240.05L431.789 238.924C430.947 238.339 430.361 237.307 429.739 236.213C428.839 234.623 427.816 232.826 425.767 232.51C425.186 232.42 424.578 232.375 423.952 232.375C417.268 232.375 413.038 236.632 412.818 240.748L412.777 241.532L414.061 241.78H414.056ZM491.126 227.115C490.482 227.115 489.626 227.317 488.167 227.808C484.473 229.056 481.658 231.465 480.244 234.591C478.884 237.6 478.911 240.987 480.321 244.383C480.96 245.919 484.653 250.545 487.275 250.545C487.676 250.545 488.045 250.446 488.369 250.248C488.712 250.04 488.838 249.698 488.941 249.428C488.968 249.36 489.004 249.261 489.031 249.198C489.86 248.689 490.991 248.617 492.085 248.617C492.486 248.617 492.9 248.626 493.324 248.64C493.783 248.653 494.252 248.662 494.729 248.662C497.179 248.662 500.026 248.342 502.566 245.964C504.431 244.221 507.318 239.005 506.449 235.713C506.079 234.321 505.107 233.398 503.629 233.042C502.508 232.772 501.544 232.637 500.688 232.515C498.571 232.213 497.044 231.997 494.653 229.975C493.954 229.385 493.581 228.867 493.274 228.448C492.797 227.79 492.306 227.115 491.112 227.115H491.126ZM519.493 227.006C517.686 227.006 516.511 228.227 515.561 229.204C515.124 229.659 514.709 230.087 514.281 230.366C513.624 230.799 512.863 231.164 512.056 231.556C511.115 232.01 510.138 232.479 509.282 233.087L509.138 233.191L509.043 233.339C508.521 234.159 508.867 235.253 509.232 236.411C509.43 237.033 509.633 237.677 509.642 238.123C509.656 238.717 509.53 239.325 509.394 239.969C509.219 240.802 509.039 241.667 509.133 242.618V242.681L509.156 242.744C509.358 243.581 510.322 243.906 513.241 244.699C514.092 244.928 515.056 245.189 515.376 245.347C516.34 245.82 517.114 246.401 517.862 246.96C519.123 247.905 520.312 248.797 522.001 248.797C523.308 248.797 524.722 248.261 526.456 247.108C529.091 245.356 532.14 239.005 531.897 235.776C531.771 234.078 529.149 231.168 527.825 230.637C527.114 230.348 526.042 230.276 524.798 230.191C523.92 230.132 522.384 230.024 521.79 229.781C521.799 229.758 521.808 229.731 521.817 229.713C521.979 229.267 522.411 228.078 521.344 227.425L521.272 227.38L521.195 227.349C520.61 227.128 520.038 227.015 519.493 227.015V227.006ZM473.15 218.264C472.461 218.264 471.862 218.444 471.285 218.624C470.767 218.782 470.281 218.931 469.7 218.971C468.804 219.034 467.988 219.039 467.2 219.043C464.727 219.061 462.588 219.075 459.759 220.818C454.841 223.854 453.377 229.749 456.034 235.839C458.088 240.541 461.088 242.928 464.953 242.928C467.669 242.928 470.812 241.757 474.569 239.343L474.857 239.158L474.952 238.83C475.312 237.551 475.483 236.402 475.65 235.289C475.961 233.204 476.231 231.402 477.722 229.43C477.852 229.254 478.073 229.128 478.307 228.988C478.568 228.835 478.861 228.659 479.086 228.385C480.181 227.051 480.699 225.916 480.113 224.079C479.757 222.953 476.163 219.367 475.357 218.904C474.605 218.476 473.884 218.264 473.159 218.264H473.15ZM448.067 220.228C446.81 220.228 445.553 220.39 445.022 220.457C441.166 220.953 433.397 225.425 430.974 230.348C429.996 232.335 429.983 234.249 430.933 235.879C431.266 236.452 435.721 240.14 435.757 240.167C437.824 241.573 440.189 242.28 442.788 242.28C444.923 242.28 447.121 241.802 449.319 240.857C450.616 240.298 451.35 239.676 451.625 238.897C451.976 237.902 451.494 236.996 451.035 236.123C450.72 235.533 450.395 234.92 450.283 234.244C449.558 229.979 450.666 226.804 452.314 222.786L452.427 222.516L452.359 222.232C452.035 220.903 450.593 220.232 448.076 220.232L448.067 220.228ZM536.36 212.647C536.203 212.647 536.045 212.647 535.892 212.656C535.861 212.656 532.203 213.026 531.703 213.355C531.248 213.652 529.55 216.656 529.505 216.818C529.339 217.444 529.469 218.187 529.627 219.052C529.757 219.786 529.911 220.624 529.829 221.3C529.744 222.025 529.415 222.737 529.068 223.493C528.74 224.209 528.397 224.953 528.231 225.781L528.154 226.169L528.388 226.488C530.685 229.655 535.171 231.7 539.811 231.7C541.684 231.7 543.454 231.344 544.941 230.673C546.436 229.997 549.666 227.876 550.08 225.642C550.629 222.687 549.918 219.926 548.026 217.651C545.499 214.611 540.923 212.652 536.365 212.652L536.36 212.647ZM430.397 215.156C430.298 215.156 430.199 215.156 430.104 215.161C425.515 215.359 418.993 218.566 416.97 222.849L416.813 223.187L416.939 223.538C417.119 224.043 417.277 224.583 417.425 225.106C418.128 227.533 419.006 230.551 422.929 230.7H422.997C423.497 230.7 427.965 230.177 428.523 229.912C429.136 229.623 429.595 228.903 430.28 227.754C430.564 227.281 430.857 226.786 431.068 226.551C432.253 225.209 433.717 223.732 434.793 222.782C435.059 222.547 435.518 222.273 435.96 222.007C437.167 221.282 438.414 220.53 438.477 219.304C438.513 218.615 438.149 217.976 437.396 217.404C435.752 216.161 432.613 215.152 430.402 215.152L430.397 215.156ZM499.877 211.044C498.594 211.044 496.058 212.945 494.999 214.008C494.198 214.809 493.828 215.462 493.833 216.057V216.44L494.112 216.706C495.256 217.796 495.058 218.201 494.589 219.178C494.256 219.867 493.842 220.728 493.95 221.881C494.099 223.475 495.688 225.763 496.504 226.637C497.972 228.204 501.062 229.826 503.688 229.826C504.508 229.826 505.237 229.668 505.859 229.358C506.827 228.876 507.115 228.092 507.305 227.578C507.386 227.362 507.449 227.182 507.539 227.074C508.106 226.673 512.169 224.399 513.074 224.002C513.169 224.025 513.308 224.079 513.412 224.115C513.718 224.223 514.097 224.363 514.507 224.363C514.66 224.363 514.808 224.344 514.953 224.308C516.011 224.029 516.741 222.655 517.164 221.547C517.939 219.525 518.286 216.827 517.317 215.359C516.664 214.368 508.467 210.139 507.71 210.017C507.381 209.963 507.016 209.94 506.593 209.94C506.26 209.94 505.926 209.954 505.588 209.972C505.282 209.985 504.976 209.999 504.679 209.999C504.539 209.999 504.404 209.999 504.273 209.99L502.643 209.891L503.431 211.323C503.463 211.386 503.481 211.427 503.485 211.449C503.341 211.593 502.755 211.814 501.936 211.814C501.76 211.814 501.598 211.805 501.454 211.783C501.355 211.769 501.125 211.602 500.99 211.508C500.711 211.31 500.395 211.084 499.994 211.057H499.895L499.877 211.044ZM520.411 215.458C520.488 216.296 520.713 216.962 520.911 217.548C521.141 218.223 521.344 218.809 521.339 219.651C521.339 220.309 521.105 220.98 520.88 221.629C520.447 222.867 519.794 224.745 522.132 225.642C523.127 226.025 523.844 226.2 524.389 226.2C525.073 226.2 525.461 225.912 525.663 225.669C526.172 225.065 526.028 224.263 525.893 223.489C525.825 223.106 525.758 222.714 525.767 222.376C525.78 221.831 525.839 221.255 525.897 220.696C526.073 218.949 526.258 217.138 525.141 215.863C524.375 214.989 523.132 214.535 521.339 214.481L520.321 214.449L520.416 215.462L520.411 215.458ZM456.76 201.599C454.071 201.689 451.747 202.63 450.386 204.18L450.278 204.301L450.22 204.45C449.783 205.594 449.161 206.612 448.558 207.594C446.959 210.211 445.301 212.918 448.616 216.642C449.233 217.336 452.283 219.967 453.647 220.106H453.692L453.778 220.115C454.417 220.115 455.327 219.647 457.575 218.404C459.372 217.408 461.61 216.17 462.854 215.913C463.074 215.868 463.34 215.845 463.687 215.845C463.912 215.845 464.137 215.854 464.358 215.863C464.597 215.872 464.831 215.881 465.056 215.881C465.606 215.881 466.007 215.832 466.367 215.719C468.259 215.125 467.623 213.098 467.286 212.008C467.141 211.548 466.979 211.03 466.993 210.756C467.011 210.269 467.146 209.769 467.286 209.238C467.668 207.796 468.146 205.999 466.133 204.117C464.601 202.684 458.822 201.594 456.935 201.594C456.872 201.594 456.814 201.594 456.76 201.594V201.599ZM440.761 214.386C440.302 214.386 439.815 214.417 439.27 214.485L437.905 214.656L440.748 219.458L445.887 218.845L445.652 217.859C445.274 216.273 444.117 214.381 440.757 214.381L440.761 214.386ZM480.433 199.932C479.352 199.932 478.451 200.027 477.749 200.212C473.127 201.437 469.628 209.634 470.218 213.701L470.236 213.841L470.294 213.967C471.02 215.467 473.127 215.787 474.983 216.07C475.816 216.197 476.681 216.332 477.15 216.543C477.641 216.764 477.956 217.093 478.321 217.471C478.956 218.129 479.744 218.949 481.447 218.949C481.735 218.949 482.046 218.926 482.37 218.881C486.978 218.232 492.563 213.21 493.648 208.742C494.256 206.234 493.445 204.04 491.365 202.572C489.063 200.946 483.897 199.937 480.429 199.937L480.433 199.932ZM494.126 188.514C493.333 190.667 491.626 191.555 489.644 192.586C488.414 193.226 487.14 193.888 486.036 194.906L484.789 196.059L486.442 196.446C489.685 197.207 492.617 199.5 494.094 202.432C495.337 204.9 495.436 207.607 494.378 210.062L493.774 211.454L495.288 211.314C496.697 211.184 497.796 210.553 498.859 209.945C499.53 209.558 500.229 209.161 500.999 208.895C502.341 208.436 503.836 208.179 505.287 207.936C505.737 207.86 506.183 207.783 506.624 207.702L507.832 207.477L507.259 206.391C506.71 205.351 506.651 204.193 506.588 202.968C506.548 202.198 506.507 201.405 506.336 200.648C505.525 197.113 502.836 192.347 500.679 188.519C500.265 187.78 499.868 187.082 499.517 186.443C499.157 185.785 497.846 183.907 496.603 183.907C496.229 183.907 495.896 184.06 495.666 184.344C495.319 184.763 495.238 185.366 495.414 186.307C495.589 187.262 495.923 188.186 496.324 189.091C496.125 188.803 495.909 188.519 495.666 188.235L494.666 187.069L494.135 188.51L494.126 188.514ZM497.409 201.914C497.301 201.914 497.188 201.842 497.094 201.752C497.179 201.144 497.283 200.522 497.382 199.919C497.855 197.045 498.341 194.095 497.423 191.338C497.463 191.415 497.504 191.492 497.544 191.568C498.918 194.167 500.215 196.626 499.431 199.297C499.071 200.522 497.995 201.914 497.414 201.914H497.409Z" fill="#65242E"/>
<path d="M365.957 340.338C343.865 340.338 325.263 333.213 313.584 320.277C305.882 311.746 301.369 300.734 297.004 290.081C296.653 289.221 296.302 288.365 295.95 287.514C295.986 287.338 296.103 287.176 296.545 287.176C296.77 287.176 297.031 287.226 297.283 287.32L298.572 287.793L298.491 286.42C298.333 283.708 301.824 279.92 305.143 277.281C310.683 272.88 321.398 269.272 336.136 266.845C347.328 265.003 360.665 263.904 371.817 263.904C373.02 263.904 374.168 263.917 375.236 263.944C394.833 264.449 409.602 267.201 420.385 272.353C430.497 277.186 436.527 282.267 435.338 292.658L435.172 294.104L438.446 292.914C438.446 292.978 438.433 293.068 438.415 293.198C438.181 294.049 433.794 302.477 432.924 303.954C425.497 316.561 411.66 331.681 395.112 336.307C385.703 338.937 375.619 340.329 365.953 340.329L365.957 340.338ZM332.28 327.231C332.181 327.7 332.118 328.245 332.415 328.69C332.699 329.123 333.14 329.208 333.379 329.253C333.469 329.272 333.546 329.285 333.586 329.312C341.221 333.825 355.58 335.433 366.466 335.433C373.952 335.433 380.924 334.717 385.604 333.465C387.388 332.987 389.113 332.348 390.779 331.726C391.473 331.47 392.171 331.208 392.874 330.961L393.86 330.614L393.369 329.69C393.108 329.204 392.554 328.618 391.374 328.618C390.487 328.618 389.464 328.952 388.559 329.249C388.036 329.42 387.545 329.582 387.212 329.632C380.744 330.623 373.912 331.123 366.912 331.123C365.304 331.123 363.701 331.096 362.102 331.042C367.529 331.006 371.831 330.717 373.988 330.546C377.997 330.222 382.068 329.609 386.005 329.015C389.734 328.452 393.576 327.875 397.355 327.542L395.743 330.758L397.81 330.069C400.553 329.15 403.323 327.749 406.53 325.659C414.165 320.673 422.123 312.895 430.181 302.54C430.348 302.324 430.528 302.107 430.713 301.882C431.839 300.495 433.244 298.77 433.082 296.756L432.947 295.099L431.632 296.117C430.767 296.788 430.006 297.455 429.267 298.103C427.501 299.648 425.979 300.986 423.614 301.923C422.398 302.405 421.205 302.616 420.052 302.823C419.106 302.995 418.124 303.17 417.146 303.49C414.863 304.242 412.687 305.076 410.584 305.882C406.571 307.418 402.783 308.872 398.346 309.764C390.234 311.399 381.357 312.228 371.957 312.228C355.706 312.228 338.545 309.697 323.628 305.098C320.615 304.17 317.66 302.936 314.804 301.742C312.246 300.675 309.602 299.571 306.9 298.675L305.967 298.364L305.742 299.319C305.535 300.202 305.855 300.815 306.093 301.261C306.138 301.342 306.183 301.427 306.224 301.517C306.548 302.193 307.071 303.098 307.674 304.076C306.841 302.972 306.08 302.094 305.711 301.887L304.801 301.382L304.427 302.351C303.927 303.648 305.769 306.548 306.584 307.733C308.728 310.85 309.692 310.85 310.012 310.85C310.332 310.85 310.629 310.728 310.85 310.507C311.066 310.291 311.165 309.985 311.12 309.661C311.093 309.476 310.967 309.165 310.76 308.773C310.976 309.084 311.179 309.377 311.359 309.634C311.805 310.269 313.102 311.976 314.624 313.827C314.21 313.534 313.75 313.277 313.241 313.079L312.669 312.859L312.255 313.309C312.075 313.503 311.818 313.935 312.124 314.629C312.597 315.705 316.318 319.799 317.759 319.799C318.025 319.799 318.272 319.705 318.462 319.538L319.137 318.939L318.538 318.263C318.43 318.142 318.322 318.016 318.218 317.89C319.133 318.822 319.962 319.556 320.574 319.889C320.921 320.079 321.232 320.173 321.529 320.173C322.421 320.173 322.759 319.417 322.903 319.092C322.916 319.065 322.93 319.034 322.943 319.002C323.006 319.025 323.087 319.056 323.195 319.11C323.511 319.268 323.817 319.687 324.137 320.128C324.488 320.61 324.884 321.155 325.438 321.578C326.758 322.596 328.74 323.367 330.483 324.051C331.555 324.47 332.659 324.903 333.073 325.213C333.082 325.231 333.122 325.366 333.15 325.466C333.244 325.785 333.384 326.245 333.789 326.691C333.686 326.65 332.501 326.213 332.501 326.213L332.285 327.236L332.28 327.231ZM371.065 296.45C370.376 296.45 369.606 296.635 368.709 297.009C366.516 297.932 366.106 299.081 365.714 300.189C365.543 300.67 365.367 301.166 365.016 301.706C364.723 302.157 364.232 302.58 363.714 303.031C362.881 303.751 361.94 304.571 361.548 305.756L361.503 305.895V306.039C361.503 308.066 365.71 310.152 367.002 310.327C367.899 310.449 369.998 310.494 371.66 310.494C372.75 310.494 376.398 310.471 377.605 310.197C378.222 310.057 382.041 307.494 382.321 307.174C383.118 306.251 383.388 305.382 383.127 304.594C382.65 303.157 380.645 302.711 378.871 302.315C378.15 302.152 377.407 301.986 377.091 301.815C375.947 301.179 375.312 300.157 374.704 299.166C373.916 297.891 373.029 296.446 371.069 296.446L371.065 296.45ZM399.779 295.464C399.495 295.464 399.22 295.5 398.968 295.567C398.121 295.797 396.837 296.905 394.806 298.693C393.419 299.918 391.842 301.306 390.942 301.792C390.18 302.202 389.171 302.445 388.199 302.679C386.595 303.062 385.082 303.427 384.681 304.661C384.325 305.76 385.118 306.855 385.748 307.584C385.992 307.868 387.334 308.89 387.753 309.053C387.996 309.147 388.325 309.188 388.807 309.188C391.266 309.188 398.788 307.922 400.143 307.278C401.918 306.436 405.107 300.711 404.512 298.788C404.355 298.274 404.048 297.779 403.648 297.328C403.657 297.337 403.666 297.346 403.675 297.355C405.238 298.774 407.287 299.671 409.552 299.941C408.701 299.995 407.832 300.202 407.21 300.905C406.584 301.612 406.364 302.661 406.544 304.121L406.634 304.85L407.368 304.909C407.472 304.918 407.571 304.922 407.67 304.922C408.562 304.922 409.341 304.612 410.03 304.332C410.17 304.278 410.305 304.224 410.444 304.17C416.417 301.9 425.051 298.234 429.897 295.549C430.843 295.027 432.591 292.554 432.848 291.694C433.604 289.185 432.532 287.577 431.591 286.158C431.253 285.654 430.906 285.131 430.641 284.573C430.56 284.406 430.573 284.217 430.596 283.924C430.623 283.632 430.65 283.303 430.524 282.956C429.389 279.871 423.331 276.371 422.128 275.7C406.454 266.966 383.186 265.66 370.709 265.66C358.233 265.66 345.157 266.872 334.249 269.07L334.077 269.106C326.078 270.718 311.192 273.718 305.715 279.542C304.864 280.447 301.391 285.708 301.215 287.064C300.58 292.009 308.954 298.211 313.178 299.045L315.575 299.517C316.12 299.891 316.678 300.216 317.228 300.481C317.89 300.801 318.619 300.972 319.34 300.972C319.633 300.972 319.921 300.945 320.205 300.891C320.529 301.044 320.894 301.121 321.277 301.121C321.29 301.121 321.304 301.121 321.317 301.121L321.349 301.337L321.786 301.188L321.763 302.652C323.155 302.887 324.718 303.517 326.231 304.125C327.736 304.729 329.29 305.355 330.735 305.616C330.924 305.652 331.105 305.666 331.271 305.666C332.082 305.666 332.717 305.251 332.969 304.558C333.357 303.481 332.735 301.986 331.929 301.315C331.357 300.837 330.456 300.666 329.582 300.495C329.064 300.396 328.533 300.292 328.24 300.153L327.997 300.035L327.326 300.126C327.506 299.972 327.668 299.797 327.808 299.594C327.934 299.544 328.06 299.499 328.191 299.45C328.38 299.499 328.569 299.526 328.758 299.535C328.992 299.549 329.222 299.571 329.452 299.594C329.533 299.608 329.627 299.621 329.731 299.635C329.889 299.729 330.06 299.788 330.235 299.815C330.659 299.878 331.082 300.04 331.406 300.171L331.996 300.427C332.253 300.567 332.532 300.634 332.825 300.634C333.145 300.634 333.442 300.553 333.713 300.396C334.258 300.076 334.591 299.49 334.586 298.869C334.577 298.04 334.316 297.288 334.082 296.621L334.055 296.536C333.897 295.333 333.095 294.401 331.974 294.09C331.969 294.081 331.96 294.072 331.956 294.063C332.055 294.077 332.15 294.086 332.24 294.086C332.375 294.086 332.51 294.068 332.627 294.036L332.92 293.959L333.109 293.721C335.334 290.888 336.433 289.807 340.041 288.793C340.212 288.744 340.563 288.717 340.906 288.694C342 288.613 343.365 288.509 344.027 287.501C344.41 286.915 344.455 286.176 344.153 285.303C342.775 281.312 335.771 278.425 331.722 278.425C331.357 278.425 331.006 278.447 330.686 278.492C330.636 278.501 325.402 279.753 325.123 281.154L325.069 281.429L325.182 281.686C325.637 282.722 325.457 283.726 325.227 284.875C325.137 284.744 325.038 284.622 324.925 284.505C324.403 283.974 323.637 283.668 322.831 283.668C322.268 283.668 321.723 283.816 321.263 284.082C320.696 283.776 320.074 283.613 319.439 283.613C318.7 283.613 317.971 283.825 317.273 284.249C314.277 286.055 311.224 288.428 311.291 292.356C311.291 292.608 311.314 292.856 311.341 293.104C311.192 292.342 311.188 291.572 311.327 290.793C311.836 287.987 314.295 285.343 317.737 283.897C318.34 283.645 319.056 283.519 319.75 283.397C320.642 283.24 321.484 283.096 322.133 282.677C322.745 282.28 323.141 281.578 323.52 280.893C323.777 280.429 324.047 279.952 324.344 279.636C325.772 278.132 327.866 277.366 330.573 277.366C334.375 277.366 338.635 278.862 341.545 280.114L342.505 280.528L342.77 279.519C344.067 274.632 352.328 272.43 357.773 272.43C358.354 272.43 358.908 272.457 359.408 272.506C360.273 272.592 361.363 273.02 362.417 273.434C363.444 273.835 364.421 274.222 365.273 274.326C365.133 274.894 365.295 275.488 365.719 275.93C366.165 276.393 366.493 277.033 366.705 277.826C366.849 278.366 366.863 278.898 366.881 279.51C366.881 279.681 366.89 279.857 366.899 280.033C366.975 281.888 368.074 283.456 369.912 284.339C370.088 284.424 370.268 284.501 370.448 284.573C369.389 284.334 368.25 284.217 367.11 284.217C364.435 284.217 362.314 284.906 361.287 286.104L361.147 286.271L361.097 286.483C360.854 287.519 361.926 288.28 363.282 289.239C363.881 289.662 364.557 290.144 364.795 290.446C365.593 291.482 365.957 292.775 366.345 294.14C366.408 294.36 366.471 294.581 366.534 294.797L366.809 295.734L367.718 295.383C368.259 295.176 368.826 295.148 369.259 295.148C369.493 295.148 369.727 295.157 369.952 295.167C370.191 295.176 370.43 295.185 370.66 295.185C371.804 295.185 373.092 294.977 374.011 293.459C374.394 292.824 375.515 289.757 375.515 288.924C375.511 287.194 374.186 285.929 372.295 285.145C372.475 285.19 372.659 285.235 372.84 285.28C373.209 285.37 373.578 285.46 373.948 285.564C374.97 285.852 375.587 286.212 375.97 286.757C376.173 287.537 376.875 288.122 377.659 288.122C377.965 288.122 378.263 288.037 378.546 287.874C379.258 287.455 380.015 287.131 380.825 286.852C379.366 287.825 378.199 289.014 377.668 290.311C377.389 290.996 377.465 291.581 377.524 292.014C377.551 292.23 377.578 292.414 377.546 292.536C377.47 292.82 377.164 293.261 376.898 293.653C376.344 294.464 375.713 295.383 375.992 296.333L376.101 296.698L376.438 296.874C377.357 297.355 378.267 298.171 379.226 299.036C380.96 300.594 382.749 302.202 385.023 302.202C385.541 302.202 386.064 302.116 386.577 301.941L387.19 301.733V301.089C387.194 300.499 386.816 300.198 386.271 300.017C389.707 299.256 393.531 297.428 395.711 294.698C396.441 293.784 396.95 292.802 397.225 291.788C397.923 293.293 399.333 294.212 400.625 294.91C401.188 295.216 401.715 295.5 402.157 295.887C402.427 296.126 402.684 296.383 402.958 296.653C402.995 296.689 403.035 296.729 403.071 296.765C402.134 295.986 400.914 295.455 399.797 295.455L399.779 295.464ZM342.153 289.307C340.879 289.307 339.343 289.838 338.109 290.262C337.703 290.401 337.316 290.536 337.028 290.617L336.253 290.838L336.383 291.631C336.64 293.185 336.311 294.176 335.897 295.432C335.748 295.878 335.6 296.338 335.465 296.847C335.352 297.274 335.375 297.711 335.393 298.099C335.406 298.423 335.42 298.729 335.357 298.945C335.325 299.04 335.082 299.252 334.956 299.369C334.636 299.653 334.235 300.004 334.185 300.553C333.969 303.008 336.987 304.26 339.406 305.265C340.207 305.598 340.969 305.913 341.365 306.179C341.581 306.323 341.73 306.539 341.919 306.814C342.297 307.359 342.811 308.107 344.072 308.4C344.594 308.521 345.225 308.58 345.941 308.58C347.716 308.58 349.734 308.201 350.959 307.643C351.053 307.598 351.13 307.575 351.193 307.553C352.265 307.192 352.143 306.359 352.049 305.688L351.941 304.94L351.188 304.913C348.238 304.814 345.554 303.35 344.013 300.986C343.459 300.139 343.086 299.229 342.892 298.292C343.955 301.589 347.427 304.242 350.891 304.274C350.932 304.278 350.968 304.287 351.008 304.292C352.224 304.427 353.832 304.585 355.427 304.585C361.142 304.585 364.579 302.513 365.939 298.256C366.75 295.716 366.412 293.261 364.962 291.158C363.395 288.888 360.57 287.194 357.458 286.573C357.818 286.334 358.228 285.951 358.809 285.393C359.494 284.735 360.431 283.834 361.043 283.613C361.462 283.46 362.124 283.402 362.759 283.343C363.912 283.24 364.998 283.141 365.642 282.496C366.309 281.83 366.592 280.952 366.457 279.956C366.192 278.01 364.345 276.006 363.111 275.308C361.354 274.317 356.337 274.304 356.125 274.304C355.463 274.304 354.895 274.326 354.485 274.371C352.792 274.56 346.716 276.902 345.446 278.146C343.671 279.88 345.707 284.74 346.437 285.789C347.243 286.947 348.153 287.568 349.22 287.676C347.419 288.5 345.784 289.649 344.617 290.982C344.617 290.951 344.608 290.915 344.603 290.883C344.522 290.433 344.257 290.05 343.806 289.744C343.378 289.451 342.82 289.302 342.153 289.302V289.307ZM412.35 299.995C412.232 299.995 412.12 299.995 412.003 299.995C413.223 299.896 414.421 299.617 415.511 299.171C415.543 299.157 415.574 299.144 415.606 299.13C414.854 299.558 414.084 299.837 413.336 299.941C413.052 299.981 412.732 299.999 412.345 299.999L412.35 299.995ZM397.018 287.338C396.68 286.244 396.121 285.339 394.955 285.339C394.648 285.339 394.356 285.402 394.072 285.465C393.788 285.528 393.495 285.591 393.189 285.591C393.108 285.591 393.027 285.591 392.937 285.577C392.748 285.555 392.396 285.343 392.09 285.154C391.649 284.884 391.144 284.573 390.563 284.433C390.054 284.312 389.478 284.249 388.861 284.249C388.563 284.249 388.253 284.262 387.942 284.289C388.464 283.992 388.789 283.442 388.789 282.807C388.789 282.528 388.798 282.249 388.807 281.965V281.942C389.095 282.316 389.46 282.605 389.928 282.744C390.46 282.902 391.009 282.92 391.378 282.92C391.64 282.92 391.91 282.911 392.185 282.897C392.437 282.888 392.694 282.875 392.95 282.875C393.324 282.875 393.617 282.897 393.869 282.951C394.279 283.032 394.775 283.37 395.256 283.695C395.986 284.186 396.738 284.694 397.617 284.694C397.68 284.694 397.743 284.694 397.81 284.685C398.085 284.663 398.333 284.582 398.562 284.469C397.905 285.289 397.355 286.28 397.027 287.334L397.018 287.338ZM382.28 273.732C381.564 273.524 380.843 273.34 380.141 273.155C379.537 272.997 378.938 272.84 378.339 272.673C379.699 272.907 381.046 273.25 382.28 273.732Z" fill="#65242E"/>
<path d="M39.4599 311.778C35.8205 311.778 32.1722 311.593 28.2942 311.215C26.3304 311.021 24.3351 310.648 22.3803 310.251L22.4569 308.522C22.0245 308.486 21.6011 308.351 21.2048 308.211C20.4841 307.954 19.4887 307.625 18.3356 307.243C13.8 305.738 5.35935 302.937 3.62527 301.153C1.3462 298.811 -0.428412 291.167 0.0895585 287.753C0.670587 283.92 4.60266 277.588 20.0067 269.187C43.4235 256.418 68.6599 247.87 95.0134 243.771C110.589 241.348 125.7 240.122 139.919 240.122C152.387 240.122 164.376 241.068 175.565 242.938C176.88 243.158 178.898 243.798 180.848 244.415C183.384 245.217 185.784 245.978 187.077 245.982H187.226C193.698 245.982 199.765 244.28 205.629 242.631C207.467 242.113 209.372 241.582 211.264 241.104C211.962 240.929 212.516 240.87 213.052 240.816C214.345 240.685 215.457 240.568 217.358 239.023C219.952 236.916 219.88 235.398 219.754 232.884C219.741 232.605 219.727 232.308 219.714 231.993L219.673 230.975L218.669 231.137C218.367 231.186 218.128 231.263 217.939 231.326C217.912 231.335 217.885 231.344 217.858 231.353C217.849 231.34 217.836 231.321 217.827 231.303C217.02 230.011 216.732 223.52 216.971 212.012C216.984 211.472 216.993 211.013 216.998 210.652C217.029 208.724 217.142 206.684 217.255 204.711C217.417 201.766 217.588 198.734 217.498 195.915L217.534 196.28L218.128 196.446C218.345 196.509 218.547 196.536 218.736 196.536C219.989 196.536 220.205 195.356 220.286 194.91C220.299 194.829 220.322 194.721 220.34 194.64C220.876 194.757 221.736 196.653 221.939 198.207C222.605 203.32 222.529 211.436 222.47 217.962C222.448 220.201 222.43 222.318 222.439 224.137C222.439 224.714 222.452 225.318 222.461 225.939C222.556 231.979 222.677 239.496 217.75 242.595C215.048 244.298 208.084 246.113 204.341 247.086L203.832 247.216C201.634 247.793 199.544 248.131 197.621 248.221L197.31 248.234L197.076 248.437C196.797 248.676 196.648 249.027 196.666 249.396C196.716 250.423 198.045 251.54 200.819 253.509C201.13 253.729 201.486 253.982 201.567 254.054C205.08 257.238 212.75 265.427 208.107 272.651C207.872 273.016 207.44 273.237 207.125 273.399C206.837 273.547 206.589 273.673 206.427 273.966C206.17 274.421 206.174 274.908 206.179 275.376C206.179 275.871 206.183 276.344 205.909 276.831C205.684 277.232 204.139 278.326 203.215 278.795C192.495 284.249 180.298 286.821 168.502 289.312C160.971 290.902 153.184 292.541 145.806 294.924C135.721 296.415 125.718 299 116.043 301.504C105.305 304.283 94.1981 307.157 82.9964 308.517C79.785 308.909 76.3124 309.103 72.9568 309.287C70.1778 309.441 67.3042 309.603 64.5747 309.873C62.7776 310.053 61.0615 310.229 59.404 310.404C52.3145 311.143 46.198 311.778 39.4554 311.778H39.4599ZM15.5746 302.189L21.3759 303.878L21.43 303.887C31.0958 305.418 39.1806 306.175 46.8691 306.265L48.2383 306.283L47.7114 305.022C47.1078 303.576 44.9639 303.342 43.6847 303.198L43.5451 303.184C39.649 302.752 35.6944 302.36 31.8705 301.986C31.402 301.941 30.9336 301.896 30.4652 301.847C31.9425 301.919 33.4604 301.982 35.0053 302.04C37.1538 302.126 39.0049 302.198 40.2256 302.288C43.2568 302.513 46.3376 302.621 49.6481 302.621C57.0258 302.621 64.1108 302.085 71.6146 301.513C74.6549 301.284 77.7942 301.045 80.9426 300.847C80.9696 300.847 81.0011 300.847 81.0282 300.847C81.3254 300.847 81.6587 300.941 82.01 301.04C82.4199 301.157 82.8838 301.284 83.3793 301.284C83.4468 301.284 83.5189 301.284 83.5865 301.275C88.6446 300.896 93.3919 299.887 97.9861 298.919C101.679 298.135 105.494 297.329 109.386 296.874C111.809 296.59 113.881 296.478 115.885 296.365C119.439 296.171 122.79 295.982 127.321 294.874C133.564 293.347 140.212 292.005 146.639 290.708C157.598 288.496 168.926 286.213 179.28 282.839C179.618 282.727 180.1 282.583 180.654 282.411C183.505 281.533 185.938 280.763 186.816 280.173C187.415 279.772 187.627 279.277 187.78 278.912C187.919 278.587 188.009 278.371 188.397 278.097C189.482 277.335 191.212 276.871 193.045 276.38C193.829 276.173 194.621 275.957 195.392 275.718L188.753 278.655L188.681 279.146C188.604 279.677 188.793 280.029 188.964 280.227C189.144 280.439 189.491 280.691 190.104 280.691C190.532 280.691 190.973 280.574 191.234 280.502C192.207 280.24 200.526 277.939 203.724 274.754C207.481 271.007 205.215 264.233 204.251 261.341C201.932 254.405 189.068 248.559 183.118 247.82C182.244 247.712 181.082 247.707 179.848 247.698C177.362 247.685 174.263 247.671 173.029 246.784C172.957 246.73 172.831 246.532 172.732 246.374C172.52 246.036 172.259 245.613 171.804 245.293C169.759 243.856 158.3 242.933 156.999 242.834C156.94 242.829 156.859 242.82 156.769 242.807C156.512 242.775 156.161 242.735 155.81 242.735C155.562 242.735 154.805 242.735 154.337 243.248C154.094 243.519 153.976 243.879 154.013 244.262L154.098 245.118L154.958 245.072C155.03 245.072 155.098 245.068 155.166 245.068C156.634 245.068 157.436 245.924 158.454 247.005C158.926 247.505 159.413 248.023 159.998 248.478C160.408 248.797 160.967 249.207 161.615 249.685C164.421 251.752 170.993 256.589 171.124 258.891C171.164 259.603 171.006 259.778 171.002 259.787C170.984 259.805 170.921 259.819 170.84 259.819C170.232 259.819 169.002 259.197 167.854 258.306C166.89 257.562 166.111 256.571 165.358 255.612C164.759 254.851 164.138 254.058 163.426 253.401C161.309 251.432 147.662 244.374 144.82 243.208C141.518 241.857 137.149 241.199 131.465 241.199C127.168 241.199 122.777 241.577 119.245 241.884L118.2 241.974C116.444 242.118 114.034 242.316 112.593 243.194L111.143 244.082L127.096 251.333C129.06 253.103 131.339 254.639 133.541 256.121C137.118 258.526 140.816 261.012 143.099 264.512L143.333 264.868C143.964 265.818 145.135 267.584 144.892 268.431C144.865 268.521 144.811 268.633 144.644 268.746C143.549 268.332 140.203 265.026 138.365 263.21C136.744 261.607 135.339 260.224 134.519 259.639C129.416 256.013 119.921 252.157 112.778 249.946C111.246 249.473 109.764 249.383 108.454 249.302C107.319 249.234 106.251 249.171 105.296 248.874C104.841 248.73 104.476 248.451 104.053 248.131C103.558 247.752 102.999 247.325 102.206 247.05C101.175 246.694 99.8237 246.518 98.0761 246.518C92.2794 246.518 83.6135 248.527 80.3525 249.284C78.5509 249.703 76.7493 250.234 75.0062 250.743C73.11 251.302 71.1462 251.878 69.2049 252.302L69.1508 254.049L85.4377 258.639C95.6484 262.386 103.247 268.021 110.08 276.907L110.152 276.998C111.579 278.844 111.692 279.515 111.683 279.704C111.67 279.709 111.656 279.713 111.633 279.718C111.615 279.723 111.575 279.731 111.512 279.731C110.102 279.731 106.58 277.083 104.247 275.327C102.72 274.178 101.4 273.187 100.522 272.732C92.9415 268.854 74.1774 263.026 66.0881 262.598C63.6153 262.467 61.2417 262.4 59.0347 262.4C52.9631 262.4 47.9276 262.895 44.0811 263.873C41.802 264.454 39.3788 265.481 37.0367 266.471C34.708 267.458 32.51 268.39 30.6093 268.832C29.7355 269.034 29.1275 269.088 28.5915 269.133C27.3033 269.246 26.407 269.381 24.3621 270.624C24.3306 270.642 24.2495 270.66 24.173 270.674C23.9342 270.719 23.4883 270.804 23.2001 271.237C22.9028 271.683 22.9614 272.223 23.0604 272.696L23.2361 273.538L24.0874 273.399C27.6907 272.804 31.5011 272.507 35.4152 272.507C47.1078 272.507 58.7194 275.106 68.1104 279.831C68.2816 279.916 68.4617 280.006 68.6374 280.092C70.4931 281.002 71.6912 281.691 71.7362 282.956C69.7589 282.691 64.2639 280.506 61.2281 279.299C59.7778 278.723 58.6338 278.268 58.0753 278.087C48.941 275.124 40.3336 273.624 32.492 273.624C26.398 273.624 20.8399 274.556 15.9755 276.398C12.6335 277.664 8.66085 282.092 7.52132 283.42C7.09793 283.911 3.39106 288.573 3.08028 289.262C2.40466 290.749 3.44961 293.505 4.78283 295.572C5.55303 296.766 7.60689 299.545 10.0571 299.545C10.2418 299.545 10.4265 299.527 10.6021 299.495L12.4533 299.162L11.0345 297.928C10.1337 297.144 9.65175 296.622 9.39052 296.289C9.57518 296.307 9.78688 296.334 10.0256 296.379C11.3858 296.631 12.075 297.329 12.8677 298.135C13.4307 298.707 14.0117 299.297 14.845 299.748C15.5476 300.131 16.6286 300.441 17.9978 300.703C17.3267 300.626 16.6556 300.536 15.9935 300.428L15.5972 302.18L15.5746 302.189ZM67.9663 305.387C70.2093 305.387 72.1641 305.531 73.9432 305.824L74.0963 305.851L89.3472 303.112L89.149 301.324C88.8247 301.338 88.4959 301.342 88.1716 301.342C87.5906 301.342 87.0096 301.324 86.4286 301.311C85.8295 301.293 85.226 301.275 84.6269 301.275C84.0279 301.275 83.5324 301.293 83.055 301.324C80.4291 301.509 77.7447 301.869 75.1413 302.216C72.3983 302.585 69.5652 302.964 66.8267 303.13C66.2862 303.162 65.6917 303.18 65.0161 303.18C63.9892 303.18 62.8992 303.144 61.8407 303.103C60.7507 303.067 59.6202 303.027 58.5212 303.027C57.5843 303.027 56.7646 303.054 56.0214 303.117C55.2872 303.175 53.1793 303.342 53.1703 304.909V305.788L54.0441 305.815C54.5711 305.833 55.0981 305.837 55.6251 305.837C57.7059 305.837 59.8094 305.72 61.8407 305.612C63.8495 305.504 65.9259 305.387 67.9528 305.387H67.9663ZM68.5473 261.13C70.0742 261.13 71.3398 261.206 72.5244 261.377C76.2853 261.913 80.1498 263.278 83.8928 264.598C86.4511 265.499 89.095 266.435 91.6758 267.089L92.4686 265.517C88.55 262.319 82.3163 260.54 77.7762 259.612C77.5735 259.571 77.3753 259.531 77.1772 259.49C77.3078 259.495 77.4384 259.499 77.5735 259.499C77.8528 259.499 78.141 259.49 78.4608 259.463L79.9517 259.355L79.159 258.085C77.8708 256.026 74.7179 255.927 73.0244 255.873L71.565 255.828C71.4479 255.801 71.3308 255.77 71.2137 255.738C70.1463 255.468 69.0428 255.184 67.8897 255.184C67.2231 255.184 66.6015 255.274 65.9845 255.463L64.9485 255.779L65.444 256.738C65.9034 257.634 67.142 258.103 68.2095 258.351C67.6195 258.324 67.0384 258.315 66.4709 258.315C63.9441 258.315 61.5299 258.562 59.3049 259.049L58.6923 259.184L58.6023 259.805C58.5302 260.328 58.7194 260.675 58.8905 260.873C59.2959 261.341 59.9084 261.341 60.1066 261.341C60.3048 261.341 60.521 261.319 60.7057 261.301C60.8228 261.287 60.9354 261.274 61.0255 261.274C61.3858 261.283 61.7371 261.287 62.0884 261.287C63.1649 261.287 64.2594 261.247 65.3179 261.211C66.3763 261.175 67.4708 261.134 68.5473 261.134V261.13ZM45.2386 260.413L45.5944 262.166L55.1116 261.53L50.4543 258.603L45.2341 260.413H45.2386ZM59.449 255.603C57.9447 255.603 56.5124 256.026 55.0575 256.495C54.9765 256.522 54.8819 256.535 54.7828 256.553C53.5802 256.779 53.0442 257.355 53.1928 258.26L53.3145 258.995L54.0576 259.013C54.3144 259.022 54.5756 259.022 54.8323 259.022C56.6205 259.022 58.5527 258.864 60.7327 258.544C61.3137 258.459 62.1875 258.328 62.4262 257.549C62.5298 257.211 62.5208 256.684 61.8903 256.108L61.7416 255.972L61.5479 255.914C60.8768 255.702 60.1877 255.603 59.4445 255.603H59.449ZM75.1188 259.116C73.8441 258.9 72.6235 258.729 71.4479 258.598C71.7452 258.522 72.0695 258.36 72.3082 258.044C72.3893 257.941 72.4659 257.801 72.5199 257.63C73.2045 258.328 74.5152 258.882 75.1188 259.112V259.116Z" fill="#65242E"/>
<path d="M80.3846 239.334C80.2404 239.059 80.2269 238.699 80.2179 238.141C80.2134 237.672 80.2044 237.141 80.0513 236.605C77.9929 229.466 78.0064 218.377 78.0154 208.589C78.0154 205.59 78.0199 202.752 77.9614 200.261C77.8983 197.631 77.7587 194.717 77.6146 191.631C77.0245 179.051 76.2904 163.395 79.9161 153.594C82.3123 147.113 85.767 140.938 89.109 134.965C93.0366 127.943 97.0993 120.683 99.5135 112.828C101.491 106.4 102.594 94.6311 102.711 88.7037C102.77 85.8301 102.464 82.8169 102.166 79.9027C101.784 76.1238 101.387 72.2142 101.766 68.5254C101.82 67.9804 102.045 67.3723 102.256 66.7868C102.527 66.0436 102.761 65.3996 102.707 64.7915C102.558 63.2376 100.986 62.3188 99.4684 61.4314C98.4595 60.8414 97.2029 60.1072 97.1803 59.5217C97.1758 59.3505 97.2929 58.702 99.045 57.5039L99.6981 57.058L99.3423 56.3508C97.8109 53.3286 98.0541 52.0719 100.423 50.7567L101.085 50.3874L99.7207 46.5004C99.9864 46.1761 100.748 45.6131 101.207 45.4374C104.315 44.2528 109.949 43.4241 114.908 43.4241C121.241 43.4241 125.88 44.7122 127.642 46.9598C128.961 48.6443 128.732 49.3019 128.349 50.3964C128.101 51.1081 127.795 51.9954 127.912 53.2025C127.997 54.0582 128.421 54.8194 128.831 55.5536C129.218 56.2517 129.619 56.9724 129.718 57.7516C129.867 58.9452 129.813 61.2468 129.538 62.1341C129.29 62.9403 128.349 63.5304 127.723 63.9177C127.272 64.197 126.952 64.3996 126.768 64.7239C126.128 65.8545 126.547 78.7407 126.561 78.8578C126.853 82.5512 127.281 86.4292 127.696 90.1766C127.925 92.28 128.16 94.3699 128.367 96.4238C129.605 108.733 135.362 118.755 140.924 128.448C144.329 134.375 147.847 140.505 150.36 147.162C154.869 159.098 154.702 172.349 154.54 185.163C154.504 187.92 154.468 190.776 154.481 193.555C154.508 200.378 154.72 213.499 155.801 224.682C155.873 225.426 156.179 226.074 156.427 226.592C156.535 226.822 156.702 227.164 156.706 227.281C156.706 227.344 156.477 227.583 156.355 227.714C156.008 228.078 155.535 228.583 155.382 229.358C155.247 230.047 155.297 230.966 155.355 231.934C155.427 233.15 155.544 235.186 154.959 235.483C154.792 235.569 154.684 235.605 154.617 235.623C154.535 235.443 154.454 235.055 154.405 234.812C154.315 234.357 154.22 233.889 154 233.492C151.32 228.596 151.365 224.998 151.423 220.44C151.446 218.498 151.473 216.489 151.297 214.165C151.216 213.107 150.964 212.008 150.716 210.949C150.482 209.931 150.257 208.972 150.189 208.085C149.703 201.941 149.5 195.649 149.302 189.564C148.914 177.475 148.514 164.972 145.856 152.865C145.771 152.477 145.171 150.531 144.545 148.775C143.275 145.221 142.744 144.645 141.96 144.645C141.64 144.645 141.338 144.793 141.14 145.059L140.897 145.379L141.136 146.658C139.893 144.181 138.686 141.649 137.51 139.195C135.105 134.164 132.619 128.961 129.767 124.043C129.286 123.214 128.592 122.372 127.916 121.557C127.286 120.795 126.637 120.007 126.358 119.44C126.227 119.169 125.925 118.332 125.556 117.233C126.642 119.669 128.038 121.939 129.975 123.768L132.258 125.926L131.466 122.885C130.997 121.102 130.029 119.485 129.092 117.917C128.277 116.557 127.506 115.273 127.083 113.936C124.908 107.125 124.912 99.9009 124.917 92.9106C124.917 90.0279 124.917 87.0462 124.768 84.1231C124.682 82.4385 124.412 80.736 124.151 79.0875C123.529 75.1599 122.944 71.4486 124.646 67.9218L125.02 67.1471L123.101 66.1157L122.827 66.1427C120.638 66.3724 118.426 66.485 116.255 66.485C112.62 66.485 109.022 66.1653 105.558 65.5302L104.373 65.314L104.5 66.5121C105.117 72.3449 105.044 78.4389 104.972 84.3303C104.945 86.5057 104.918 88.7578 104.927 90.9603C104.932 92.3656 104.95 93.7393 104.968 95.0905C105.045 101.122 105.117 106.819 104.013 113.238C103.369 116.994 97.6758 130.416 94.4509 135.677L102.892 116.607L102.91 116.48C103.162 114.634 103.482 112.747 103.941 110.359C104.009 110.008 104.112 109.477 103.761 109.049C103.617 108.873 103.351 108.666 102.901 108.666C102.819 108.666 102.725 108.675 102.608 108.684C102.522 108.693 102.419 108.706 102.297 108.706L101.545 108.688L101.36 109.427C100.374 114.328 98.9009 119.219 96.9822 123.971C95.3472 128.02 92.987 132.317 90.4873 136.866C85.6814 145.617 80.7089 154.662 80.1639 163.305C79.8711 167.949 80.0648 172.665 80.2495 177.223C80.4521 182.258 80.6638 187.47 80.2134 192.514L80.1954 192.703L82.4745 199.365L83.2897 196.707C83.4113 196.307 83.5059 195.91 83.5735 195.514C83.6185 198.054 83.6861 200.563 83.7672 203.018C83.8212 204.612 83.8978 206.18 83.9924 207.724L83.3753 207.697C83.2537 207.693 83.1501 207.684 83.06 207.675C82.9294 207.661 82.8168 207.652 82.7222 207.652C82.3574 207.652 82.0646 207.77 81.8439 208.004C81.4746 208.4 81.5106 208.932 81.5376 209.323C81.6412 210.787 81.7854 212.269 81.925 213.701C82.1997 216.53 82.4835 219.453 82.452 222.331L81.6367 221.723L80.6548 239.028L80.3756 239.307L80.3846 239.334ZM149.477 164.048L149.522 164.8C149.73 168.17 150.031 171.588 150.324 174.894C150.725 179.398 151.139 184.055 151.311 188.636C151.311 188.704 151.297 188.848 151.284 188.978C151.229 189.483 151.162 190.177 151.603 190.672C151.842 190.933 152.18 191.082 152.554 191.082C152.621 191.082 152.693 191.077 152.77 191.068L153.585 190.956L153.549 190.131C153.513 189.375 153.504 187.677 153.491 185.524C153.387 170.205 153.009 164.949 151.932 163.886L151.572 163.535L149.468 164.048H149.477ZM138.722 134.524C138.974 136.064 139.798 137.375 140.595 138.645C141.023 139.325 141.429 139.965 141.708 140.595C142.05 141.357 142.343 142.217 142.649 143.127C143.298 145.032 143.964 147.005 145.217 148.464L147.455 151.081L146.784 147.703C145.581 141.64 143.383 136.947 140.253 133.749L138.262 131.718L138.722 134.524ZM102.743 58.4317C102.202 58.4317 101.671 58.4813 101.166 58.5804L100.423 58.7245L100.437 59.4812C100.477 61.5035 106.31 63.5484 106.369 63.5664C108.679 64.2961 110.904 64.6384 113.373 64.6384C114.985 64.6384 116.57 64.4987 118.246 64.3546C118.994 64.2915 119.759 64.224 120.561 64.1654C120.62 64.1654 120.683 64.1609 120.741 64.1609C121.12 64.1609 121.498 64.242 121.899 64.3321C122.354 64.4312 122.822 64.5303 123.345 64.5303C123.417 64.5303 123.484 64.5303 123.556 64.5258C125.115 64.4402 126.349 63.8772 127.124 62.8953C127.894 61.9224 128.155 60.5982 127.885 59.0758L127.835 58.8011L127.637 58.6029C127.322 58.2831 126.876 58.2561 126.488 58.2561C125.137 58.2561 121.71 58.7875 118.399 59.3055C115.638 59.7334 112.787 60.1793 111.918 60.1793C110.436 60.1793 109.004 59.7649 107.49 59.3325C105.959 58.8911 104.378 58.4362 102.738 58.4362L102.743 58.4317ZM103.247 50.8513C103.067 50.8513 102.91 50.8603 102.77 50.8829C101.711 51.0405 100.896 51.8107 100.639 52.8872C100.338 54.1753 100.874 55.5221 102.013 56.3193C103.387 57.2832 111.287 58.7155 112.877 58.756C112.94 58.756 113.008 58.756 113.075 58.756C115.489 58.756 121.692 57.8642 123.764 57.3012C125.029 56.9589 126.146 55.986 126.543 54.878C126.849 54.0222 126.727 53.1349 126.196 52.3827C125.678 51.6531 124.687 51.5675 123.984 51.5675C122.809 51.5675 121.327 51.8467 120.021 52.0945C119.264 52.2386 118.548 52.3737 118.178 52.3917C117.345 52.4323 115.246 52.5314 113.724 52.5314C113.4 52.5314 113.102 52.5314 112.855 52.5178C111.796 52.4728 109.949 52.0719 108.166 51.6846C106.193 51.2567 104.333 50.8513 103.243 50.8513H103.247ZM101.856 45.7707L101.635 45.9779C101.297 46.2932 101.162 46.7301 101.261 47.1715C101.594 48.6623 105.094 49.946 105.13 49.9595C107.693 50.7838 110.801 51.1981 114.377 51.1981C117.548 51.1981 121.133 50.8783 125.344 50.2162L125.655 50.1667L125.867 49.9325C126.137 49.6352 126.245 49.2344 126.164 48.8335C125.889 47.4823 123.21 46.1941 123.182 46.1806C120.417 44.9104 117.395 44.8023 114.782 44.8023C114.377 44.8023 113.967 44.8023 113.562 44.8068C113.161 44.8068 112.765 44.8113 112.364 44.8113C112.062 44.8113 111.765 44.8113 111.467 44.8068H111.418L101.856 45.7617V45.7707ZM85.1049 235.132C85.0238 234.564 84.9382 234.001 84.8571 233.443C84.6364 231.979 84.4112 230.47 84.2446 228.997C84.195 228.565 84.2266 228.011 84.2581 227.421C84.3212 226.268 84.3932 224.912 83.8707 223.836L85.0328 222.282C85.2715 226.462 85.3706 230.655 85.1049 235.136V235.132ZM83.5329 190.343C83.4339 189.334 83.3438 188.298 83.3663 187.249C83.3888 186.294 83.4744 185.29 83.5915 184.249C83.5465 186.289 83.5284 188.325 83.5329 190.343ZM84.5374 168.733C84.3617 165.629 84.2401 162.647 85.2355 158.801C85.4337 158.031 86.3255 155.499 87.3659 152.693C86.0327 157.806 85.1319 163.206 84.5374 168.733Z" fill="#65242E"/>
<path d="M360.382 258.323C352.928 258.323 345.415 257.589 338.654 256.197C338.204 256.103 337.74 256.013 337.271 255.923C333.871 255.265 330.353 254.585 328.25 252.103C325.092 248.369 324.696 245.928 326.849 243.388C329.718 240.005 340.055 237.794 345.712 237.019C345.856 237.001 346.032 236.992 346.248 236.992C346.5 236.992 346.77 237.006 347.045 237.015C347.356 237.028 347.676 237.042 347.987 237.042C348.991 237.042 350.239 236.911 350.964 235.88C351.662 234.884 352.076 227.876 352.081 227.808C352.518 218.989 352.027 209.558 351.549 202.324L351.536 202.094L351.414 201.901C351.081 201.374 350.626 201.144 342.564 199.477C340.924 199.14 339.505 198.847 339.064 198.721C326.47 195.153 317.251 185.312 313.102 171.012C312.58 169.214 312.346 167.377 312.12 165.598C311.895 163.823 311.661 161.994 311.143 160.166C311.4 159.477 313.994 158.206 314.877 157.779C315.535 157.459 316.098 157.179 316.503 156.932C317.179 156.513 317.679 156.049 318.165 155.608C318.985 154.851 319.692 154.202 321.192 153.882C335.222 150.878 347.081 148.878 359.373 148.878C368.868 148.878 377.997 150.117 387.289 152.666C390.46 153.536 399.072 156.752 401.639 158.26C403.04 159.085 406.288 161.846 406.225 162.981C406.225 162.985 406.225 162.994 406.225 163.003C406.026 162.562 405.639 161.823 404.738 161.823H403.891L403.828 162.665C403.72 164.336 403.783 166.093 403.846 167.787C403.914 169.611 403.981 171.493 403.828 173.219C403.171 180.614 394.316 192.073 388.663 196.194C387.947 196.716 387.267 197.212 386.884 197.212C386.807 197.212 386.717 197.189 386.618 197.144C388.361 196.316 391.924 193.582 392.492 192.316C392.82 191.577 392.492 191.095 392.334 190.92L391.735 190.258L391.068 190.848C390.397 191.442 389.627 191.942 388.812 192.474C387.938 193.046 387.037 193.631 386.24 194.356C386.177 194.415 386.069 194.478 385.952 194.545C385.672 194.708 385.136 195.027 384.947 195.658L384.407 195.104L384.046 196.73C383.893 197.419 382.069 198.387 381.191 198.851C380.961 198.973 380.749 199.086 380.56 199.189C376.425 201.495 373.079 202.432 369.003 202.432C368.444 202.432 367.854 202.414 367.255 202.378L367.079 202.369L366.913 202.423C365.264 202.977 364.719 207.391 364.715 207.436C364.224 211.774 364.764 216.868 365.282 221.795C365.593 224.727 365.886 227.497 365.967 230.065C365.985 230.659 365.908 231.321 365.823 232.02C365.625 233.664 365.399 235.524 366.323 237.379L366.471 237.681L366.782 237.812C367.197 237.983 367.575 238.069 367.94 238.069C368.944 238.069 369.521 237.456 369.985 236.965C370.467 236.456 370.773 236.168 371.417 236.168H371.48C373.394 236.226 378.214 237.735 382.695 239.676C387.69 241.843 391.28 244.136 391.834 245.518C392.289 246.64 392.338 248.793 391.757 249.712C391.51 250.103 390.911 250.329 390.33 250.545C389.762 250.761 389.172 250.982 388.744 251.41C388.222 251.937 388.276 252.563 388.312 252.937C388.334 253.207 388.33 253.256 388.298 253.301C387.388 254.495 381.132 256.202 375.862 257.103C371.142 257.909 365.931 258.314 360.373 258.314L360.382 258.323ZM353.27 255.373C354.472 255.373 355.45 255.382 356.337 255.405C357.504 255.432 358.702 255.477 359.927 255.522C361.99 255.598 364.12 255.675 366.269 255.675C371.597 255.675 378.421 255.234 383.929 251.788C383.983 251.752 389.451 248.158 389.442 246.644V246.442L389.352 246.257C388.073 243.613 385.159 242.838 382.587 242.158C381.371 241.838 380.218 241.532 379.313 241.068C378.768 240.789 378.484 240.487 378.182 240.172C377.7 239.663 377.155 239.086 375.835 238.839C375.223 238.722 374.579 238.668 373.8 238.668C373.304 238.668 372.813 238.69 372.34 238.708C371.876 238.731 371.435 238.749 371.003 238.749C369.994 238.749 369.255 238.636 368.602 238.384L367.962 238.136L367.552 238.686C366.823 239.667 367.579 240.811 368.309 241.915C369.273 243.37 369.462 243.892 369.106 244.158C369.075 244.181 369.034 244.203 368.94 244.203C367.395 244.203 363.796 239.893 363.048 238.339C361.949 236.051 362.197 225.957 362.35 219.931C362.404 217.76 362.449 215.881 362.436 214.674C362.427 213.737 362.305 212.859 362.188 212.008C362.012 210.738 361.85 209.535 362.008 208.103C362.039 207.833 362.22 207.238 362.391 206.661C363.003 204.63 363.395 203.121 362.873 202.175C362.674 201.82 362.368 201.572 361.981 201.464L361.864 201.432H353.549L352.653 203.112L352.707 203.419C352.824 204.103 353.171 204.954 353.54 205.855C353.851 206.625 354.243 207.585 354.256 207.968C354.563 216.913 354.585 224.052 354.333 230.43C354.292 231.42 354.346 232.528 354.4 233.596C354.481 235.267 354.567 236.997 354.31 238.37C354.207 238.942 353.711 239.523 353.193 240.136C352.428 241.041 351.558 242.068 351.585 243.482L351.599 244.176L358.224 245.793C357.67 246.113 356.468 246.455 355.553 246.455H355.486C354.801 246.401 350.365 245.095 349.608 244.726C349.248 244.298 349.396 243.721 349.802 242.555C350.198 241.42 350.694 240.01 349.865 238.731L349.604 238.33L348.896 238.316C348.599 238.312 348.306 238.307 348.014 238.307C347.46 238.307 346.721 238.325 345.955 238.447C342.325 239.028 334.871 240.839 331.06 242.208C329.763 242.676 327.597 243.455 327.786 246.198C328.133 251.225 331.484 252.869 334.713 253.819C339.668 255.27 344.717 255.391 349.464 255.391C350.099 255.391 350.739 255.391 351.374 255.387C352.009 255.387 352.644 255.382 353.279 255.382L353.27 255.373ZM351.666 195.825C351.329 196.023 350.986 196.397 350.757 197.086L350.468 197.951L351.333 198.23C351.973 198.437 352.648 198.536 353.41 198.536C354.09 198.536 354.729 198.459 355.342 198.383C355.864 198.32 356.36 198.257 356.81 198.257C370.588 198.248 375.052 197.878 386.123 189.532C391.6 185.407 397.68 180.164 401.27 172.57C401.365 172.376 401.455 172.187 401.545 172.002C402.193 170.678 402.806 169.431 402.459 167.516L402.283 166.561L401.342 166.805C399.662 167.242 398.198 167.922 396.775 168.575C395.514 169.156 394.212 169.755 392.762 170.187C385.375 172.376 375.034 173.579 363.634 173.579C353.779 173.579 343.546 172.669 335.564 171.084C329.466 169.872 323.011 168.354 317.12 165.512L316.935 165.422H316.733C316.323 165.422 315.962 165.629 315.76 165.985C314.625 167.935 319.53 179.668 319.588 179.772C320.921 182.123 323.061 184.267 324.948 186.163C325.299 186.519 325.646 186.866 325.984 187.208L326.471 187.708L327.074 187.361C327.583 187.069 327.741 186.672 327.786 186.393C327.889 185.717 327.439 185.217 327.137 184.889C327.079 184.821 327.02 184.763 326.979 184.708C326.358 183.718 325.678 182.686 324.957 181.601C323.381 179.218 321.746 176.75 320.66 174.511L320.62 174.43C318.998 171.097 318.868 169.904 318.913 169.503L319.417 169.327C319.872 171.331 321.016 175.691 322.606 177.074C323.025 177.439 323.534 177.619 324.151 177.619C324.408 177.619 324.651 177.588 324.863 177.565C325.002 177.547 325.133 177.533 325.245 177.529C325.281 177.628 325.322 177.736 325.358 177.826C325.606 178.479 325.795 178.966 326.007 179.29C326.493 180.033 326.961 180.803 327.461 181.623C329.443 184.866 331.493 188.222 334.609 190.145C338.681 192.658 345.266 194.784 351.657 195.838L351.666 195.825ZM333.353 192.541C334.704 194.239 337.388 195.811 339.456 196.721C339.564 196.77 339.695 196.829 339.843 196.901C340.667 197.288 341.911 197.878 342.974 197.878C344.05 197.878 344.545 197.284 344.748 196.928L345.23 196.072L334.438 191.167L333.362 192.55L333.353 192.541ZM322.313 165.521C322.399 165.589 322.538 165.706 322.642 165.8C323.007 166.125 323.462 166.525 324.029 166.746C333.236 170.309 344.618 172.115 357.846 172.115C364.44 172.115 371.219 171.66 377.997 170.759L378.858 170.647C385.01 169.836 395.307 168.48 399.842 164.99L399.901 164.945C400.666 164.354 401.72 163.548 401.581 162.012C401.347 159.4 399.086 159.166 397.27 158.981C395.928 158.846 394.545 158.702 393.667 157.81C393.609 157.751 393.555 157.517 393.523 157.36C393.455 157.058 393.379 156.711 393.122 156.423C392.077 155.234 382.524 152.653 382.429 152.63C376.412 151.216 368.895 150.468 360.684 150.468C346.874 150.468 333.055 152.594 323.728 156.157C323.673 156.18 317.282 159.094 316.764 159.598C316.057 160.283 315.818 161.202 316.084 162.184C316.53 163.828 318.404 165.431 319.782 165.773C320.03 165.836 320.286 165.868 320.548 165.868C321.084 165.868 321.534 165.737 321.894 165.634C322.043 165.589 322.214 165.544 322.318 165.53L322.313 165.521ZM364.62 196.045C369.8 195.023 378.214 192.28 381.195 189.992C383.091 188.537 383.988 186.888 384.776 185.434C385.474 184.145 386.082 183.033 387.267 182.101C387.821 181.664 388.474 181.2 389.231 180.903L389.289 180.997C388.983 181.709 388.262 182.213 387.51 182.74C386.988 183.105 386.447 183.483 386.042 183.952C385.465 184.609 385.114 185.42 384.776 186.199C384.515 186.803 384.267 187.375 383.947 187.812C381.155 191.586 369.557 195.586 364.814 196.027C364.751 196.032 364.688 196.041 364.625 196.045H364.62Z" fill="#65242E"/>
<path d="M152.779 141.505C152.743 141.208 152.716 140.901 152.689 140.59C152.612 139.676 152.531 138.73 152.184 137.838C151.846 136.965 151.252 136.384 150.729 135.87C150.13 135.28 149.657 134.816 149.527 133.987C149.009 130.668 148.702 124.214 148.765 117.93C148.842 110.692 149.374 105.013 150.229 102.346C152.076 96.5945 156.22 91.4103 160.228 86.3972C163.35 82.4921 166.575 78.4565 168.687 74.1776C173.146 65.1514 173.29 48.9321 173.38 39.2393C173.416 35.5415 173.155 31.8571 172.907 28.2944C172.723 25.6775 172.534 22.9705 172.466 20.2906V20.0879L171.75 18.6961L171.417 18.5745C169.885 18.025 168.755 16.9891 168.142 15.5883C167.485 14.084 167.516 12.3319 168.228 10.6608C168.556 9.88614 169.309 9.61139 170.052 9.39519C170.399 9.2961 170.7 9.20602 170.917 8.92226C171.241 8.50338 171.11 8.05747 170.971 7.58905C170.678 6.60715 170.133 4.783 171.921 3.21557C174.633 0.846416 183.19 0.00415039 189.699 0.00415039C192.144 0.00415039 194.415 0.121257 195.932 0.323941C198.847 0.715797 199.009 1.76976 199.306 3.684C199.446 4.58932 199.608 5.61625 200.103 6.6567C200.59 7.67462 201.063 8.23764 201.441 8.69255C202.08 9.45825 202.405 9.84109 202.184 12.6156C201.959 15.4397 200.346 17.0612 199.171 18.2502C198.473 18.9574 197.919 19.5114 197.784 20.196C197.693 20.6554 197.838 21.2725 198.13 22.4075C198.338 23.2183 198.59 24.2227 198.599 24.8217C198.662 28.7943 198.554 32.8615 198.455 36.7981C198.302 42.7705 198.139 48.9411 198.549 55.0397C198.829 59.206 199.414 67.8764 200.486 72.1823C200.792 73.4209 202.423 75.727 204.206 78.1772C204.459 78.524 204.679 78.8258 204.846 79.0645C205.423 79.8798 206.494 81.24 207.855 82.9651C211.134 87.1224 217.957 95.7747 217.899 97.6845C217.854 98.2024 216.899 99.5311 216.48 99.5311C216.48 99.5311 216.467 99.5311 216.44 99.5041C214.827 98.2069 214.147 96.2251 213.485 94.3064C213.197 93.4686 212.899 92.6038 212.53 91.8246C210.661 87.8745 207.17 84.5685 203.797 81.3706C202.067 79.7311 200.432 78.1817 199.067 76.6008C198.338 75.7585 197.865 74.628 197.365 73.4344C196.973 72.4976 196.567 71.5292 196.009 70.6284C195.811 70.3041 195.491 70.0248 195.126 69.696C194.703 69.3177 194.068 68.7502 194.036 68.3673C194 68.0475 194.117 67.8899 194.59 67.4034C195.09 66.89 195.775 66.1828 195.896 64.9577C196.027 63.638 195.689 62.3724 195.387 61.2508C195.167 60.4356 194.964 59.6654 194.95 58.9718C194.842 52.085 194.838 44.3244 194.941 36.5414C194.955 35.5144 194.95 34.4965 194.95 33.4786C194.941 29.5465 194.928 25.8351 195.838 22.1057L196.198 20.6329L194.734 21.0248C191.199 21.9661 188.041 22.4255 185.087 22.4255C182.132 22.4255 179.474 21.9661 177.015 21.0518L176.583 20.8941L174.619 22.2048L174.777 22.8219C174.867 23.1732 174.961 23.5155 175.056 23.8533C175.322 24.7992 175.569 25.6955 175.628 26.6549C175.934 31.6454 175.822 36.9512 175.713 42.0814C175.682 43.5362 175.65 44.9775 175.632 46.3828C175.614 47.6214 175.605 48.9456 175.601 50.3284C175.56 57.0981 175.515 65.5207 174.173 71.2905C173.425 74.4929 172.137 77.1998 170.538 79.6726C171.903 77.2674 172.853 74.5785 172.912 71.858L171.223 71.4076L163.579 85.3522L164.958 86.4693C165.399 86.0909 165.85 85.672 166.304 85.2171C165.723 85.8972 165.133 86.5774 164.534 87.262C160.8 91.5454 156.94 95.9774 155.062 102.058C154.86 102.711 154.382 104.013 153.918 105.274C153.143 107.382 152.77 108.422 152.698 108.819C152.418 110.327 152.526 112.134 152.635 113.881C152.725 115.341 152.819 116.854 152.666 118.084L152.553 119.011L153.459 119.088C153.238 119.124 153.04 119.228 152.891 119.394L152.63 119.687L152.666 120.079C152.972 123.218 152.891 126.412 152.81 129.501C152.72 133.051 152.626 136.721 153.107 140.41L152.779 141.518V141.505ZM177.691 9.71498C176.146 9.71498 170.209 10.2645 169.421 12.9534C169.052 14.2101 169.165 15.3001 169.764 16.1829C171.065 18.1016 174.268 18.4034 176.605 18.6196C177.285 18.6826 177.871 18.7367 178.258 18.8178C178.497 18.8673 178.785 19.0475 179.087 19.2366C179.461 19.4708 179.88 19.7321 180.366 19.8402C182.636 20.3491 184.618 20.5969 186.424 20.5969C192.834 20.5969 196.761 17.3179 198.09 10.8455L198.211 10.251L197.707 9.91316C196.806 9.30511 196.04 9.02585 195.306 9.02585C194.396 9.02585 193.743 9.46725 193.171 9.85461C192.73 10.1519 192.311 10.4356 191.757 10.5527C190.491 10.8185 189.226 10.9446 187.893 10.9446C185.659 10.9446 183.56 10.5843 181.339 10.2059C180.465 10.0573 179.565 9.90415 178.646 9.76903C178.38 9.733 178.06 9.71047 177.691 9.71047V9.71498ZM175.015 2.68859C174.457 2.68859 173.853 2.93181 172.998 3.49933C172.93 3.54437 172.853 3.58491 172.772 3.62995C172.34 3.86416 171.322 4.40915 171.592 5.64328L171.637 5.84146L171.763 6.0036C172.277 6.6612 172.876 7.16566 173.556 7.49446C176.11 8.73309 184.645 9.35916 188.703 9.35916C189.568 9.35916 190.266 9.33213 190.78 9.28259C190.852 9.27358 197.941 8.27817 198.459 5.58472L198.491 5.42708L198.464 5.26493C198.45 5.17485 198.432 5.07126 198.419 4.95865C198.297 4.09837 198.171 3.40474 197.793 2.96334C197 2.04 195.158 1.61211 191.991 1.61211C188.253 1.61211 183.587 2.21566 181.141 2.57599C180.456 2.67508 179.916 2.89578 179.443 3.08946C178.889 3.31466 178.411 3.50834 177.727 3.50834C177.475 3.50834 177.209 3.48131 176.916 3.43177C176.628 3.38222 176.466 3.27412 176.245 3.12999C175.966 2.94532 175.578 2.68859 175.011 2.68859H175.015ZM178.502 125.871C174.38 125.871 170.732 125.353 167.345 124.286C164.665 123.443 162.755 122.916 160.116 122.191L159.985 122.155C159.616 122.052 158.179 121.268 157.125 120.696C155.332 119.718 154.522 119.291 154.022 119.137C156.454 119.43 158.873 120.259 161.418 121.137C163.336 121.795 165.318 122.479 167.304 122.903C170.89 123.669 175.434 124.06 180.821 124.06C185.451 124.06 189.496 123.768 192.072 123.524C194.788 123.268 197.54 122.43 200.207 121.624C201.436 121.25 202.607 120.899 203.765 120.597L203.896 120.795C203.756 121.079 203.459 121.421 202.783 121.745C201.59 122.322 197.135 123.263 194.996 123.718C194.608 123.799 194.266 123.871 193.991 123.934C187.902 125.254 182.979 125.867 178.502 125.867V125.871Z" fill="#65242E"/>
<path d="M163.498 328.619C161.638 328.047 160.332 327.065 159.521 325.623L159.381 325.376L159.12 325.254C159.075 325.232 159.03 325.214 158.985 325.2C158.998 325.083 158.998 324.952 158.967 324.804C158.656 323.205 153.17 316.953 152.121 316.48C151.341 316.129 149.706 316.111 149.387 316.111C146.995 316.111 146.446 316.683 146.27 316.867C146.027 317.12 145.901 317.444 145.919 317.782L145.937 318.241L157.67 325.993C157.661 326.029 157.652 326.069 157.643 326.11C156.102 325.903 152.886 323.849 150.031 322.029C146.779 319.953 143.707 317.993 141.676 317.624C141.266 317.548 140.806 317.512 140.311 317.512C137.789 317.512 134.447 318.48 131.213 319.421C128.281 320.273 125.245 321.151 123.245 321.151H123.182C121.898 321.137 121.344 320.809 121.29 320.588C121.218 320.304 121.628 319.475 122.921 318.719C124.596 318.439 126.393 318.286 128.132 318.142C130.109 317.975 132.154 317.8 134.082 317.444C141.572 316.048 146.626 311.652 152.229 305.977C151.959 307.589 149.801 309.562 148.504 310.742L148.454 310.787C148.387 310.845 148.081 311.057 147.833 311.224C145.666 312.71 144.738 313.462 144.959 314.404C145 314.579 145.193 315.151 146.004 315.268L146.076 315.277H146.211C146.364 315.277 146.527 315.282 146.684 315.291C146.873 315.3 147.067 315.309 147.256 315.309C147.576 315.309 147.842 315.282 148.094 315.232C149.67 314.899 159.188 307.49 159.282 307.418C159.796 307.008 160.233 306.522 160.656 306.049C161.363 305.256 161.985 304.562 162.764 304.454C162.471 305.418 160.444 307.535 156.733 310.76C155.972 311.417 155.427 311.895 155.152 312.188L154.647 312.728L155.08 313.327C155.404 313.778 155.967 313.994 156.809 313.994C157.323 313.994 157.796 313.913 157.976 313.881C160.642 313.377 169.389 309.638 171.799 308.521C173.943 307.53 175.947 306.283 177.889 305.08C179.582 304.031 181.33 302.945 183.14 302.053L183.167 302.098C182.501 304.274 175.745 307.413 171.641 309.314C169.124 310.485 166.948 311.494 165.854 312.291L165.773 312.35L165.705 312.426C165.201 313.007 165.313 313.498 165.426 313.742C165.737 314.417 166.516 314.417 166.777 314.417C166.984 314.417 167.218 314.399 167.421 314.381C167.529 314.372 167.628 314.363 167.696 314.363C167.939 314.377 168.344 314.386 168.795 314.386C173.299 314.386 173.776 313.782 174.002 313.494C174.321 313.088 174.366 312.629 174.398 312.26C174.452 311.679 174.488 311.296 175.839 310.949C176.177 310.863 176.492 310.818 176.799 310.818C177.227 310.818 177.591 310.899 178.01 310.994C178.465 311.093 178.979 311.21 179.591 311.21C179.695 311.21 179.798 311.21 179.906 311.201C183.068 311.003 193.73 305.882 194.184 305.666C195.139 305.206 196.684 304.31 198.472 303.274C201.395 301.581 205.728 299.072 207.264 298.734C206.625 299.509 205.26 300.806 204.526 301.508C203.859 302.144 203.328 302.648 203.057 302.959L203.026 302.995L198.148 310.012L229.456 297.477C228.807 298.657 226.772 300.009 225.362 300.95C224.745 301.36 224.155 301.752 223.709 302.098L214.484 307.116L217.93 307.161C218.115 307.161 218.299 307.161 218.484 307.161C222.758 307.161 227.681 306.522 233.528 305.202C234.681 304.941 236.703 304.251 238.847 303.517C241.054 302.765 244.076 301.729 244.734 301.729C245.004 301.729 245.171 301.747 245.279 301.792L245.117 302.319L238.194 306.382L238.797 308.048C239.802 307.882 240.919 307.828 241.995 307.769C242.928 307.724 243.892 307.675 244.792 307.553C245.369 307.476 246.252 307.274 247.364 307.017C249.702 306.476 252.909 305.738 255.246 305.738C255.562 305.738 255.854 305.751 256.116 305.778L249.103 307.81L249.013 308.377C248.927 308.94 248.878 309.44 249.193 309.841C249.486 310.21 249.891 310.246 250.062 310.26C250.116 310.26 250.148 310.269 250.161 310.273C250.567 310.458 251.359 310.715 252.368 311.044C253.656 311.463 256.093 312.255 257.17 312.814C257.03 312.913 256.886 312.971 256.688 313.012C256.436 313.061 256.147 313.088 255.827 313.088C254.296 313.088 252.278 312.516 250.148 311.913C247.702 311.219 245.175 310.503 242.901 310.503C242.058 310.503 241.32 310.598 240.64 310.796L239.667 311.08L240.063 312.012C240.279 312.516 240.653 312.886 240.959 313.188C241.022 313.251 241.099 313.327 241.167 313.399C240.329 313.106 238.424 311.931 237.343 311.264C236.289 310.616 235.383 310.057 234.829 309.818C233.829 309.391 231.334 308.553 230.596 308.305C230.357 308.224 230.078 308.188 229.713 308.188C229.118 308.188 228.366 308.292 227.569 308.395C226.745 308.508 225.889 308.62 225.222 308.62C224.83 308.62 224.623 308.58 224.52 308.548L223.506 308.22L223.348 309.269C223.245 309.972 223.128 310.769 224.2 311.138C224.263 311.161 224.344 311.188 224.438 311.228C225.92 311.89 227.753 312.435 229.533 312.962C231.041 313.408 232.604 313.872 233.915 314.399L234.046 314.453C239.018 316.431 241.419 317.854 242.387 318.669C240.446 318.273 238.464 317.39 236.541 316.525C235.298 315.971 234.014 315.395 232.753 314.958C229.015 313.665 225.042 312.377 221.15 312.107L219.547 311.994L220.29 313.417C220.772 314.35 221.695 314.863 222.511 315.318C223.042 315.615 223.542 315.895 223.794 316.214C224.065 316.561 224.209 316.989 224.371 317.489C224.551 318.034 224.754 318.651 225.173 319.259C225.524 319.773 226.001 320.182 226.465 320.583C227.042 321.083 227.479 321.48 227.699 321.926C225.51 321.367 220.187 319.21 217.133 317.971C215.142 317.165 213.57 316.525 212.908 316.313C209.106 315.102 201.558 312.985 197.198 312.377L197.22 312.215C197.297 311.661 197.189 311.21 196.896 310.872C196.608 310.544 196.189 310.373 195.644 310.373C195.283 310.373 194.901 310.44 194.495 310.512C194.32 310.544 194.144 310.575 193.968 310.602L197.234 306.805L194.842 307.161C193.603 307.346 192.721 307.994 191.865 308.62C191.374 308.981 190.914 309.319 190.387 309.571C189.581 309.958 188.104 310.359 186.802 310.715C185.095 311.179 184.023 311.481 183.483 311.845C182.866 312.26 182.086 312.967 182.393 314.323C182.654 315.467 183.51 315.557 183.766 315.557C184.064 315.557 184.325 315.467 184.514 315.399C184.564 315.381 184.609 315.363 184.654 315.354C185.96 315.133 186.96 314.98 187.865 314.98C188.87 314.98 189.838 315.16 191.568 315.665L192.73 316.007L192.707 313.539L193.482 313.426L194.414 314.169C195.959 315.381 197.806 316.088 199.589 316.773C200.72 317.205 201.895 317.656 202.945 318.223C204.503 319.065 206.116 320.196 207.674 321.29C208.431 321.822 209.206 322.362 209.98 322.88C207.944 322.624 205.183 321.344 202.72 320.2C201.242 319.516 199.851 318.867 198.652 318.453C195.576 317.381 192.802 316.638 190.176 316.178L187.271 315.669L189.397 317.714C190.694 318.962 192.288 319.917 193.829 320.84C195.635 321.921 197.342 322.943 198.58 324.38C199.513 325.466 199.801 326.222 199.81 326.47C199.742 326.497 199.58 326.542 199.256 326.542C198.531 326.488 194.329 324.556 191.757 323.25C190.455 322.588 188.541 321.344 186.514 320.025C183.496 318.061 180.379 316.034 178.596 315.498C177.803 315.259 173.362 314.805 172.691 314.805C171.948 314.805 170.862 314.764 169.601 314.714C168.011 314.651 166.214 314.584 164.651 314.584C162.976 314.584 161.881 314.665 161.214 314.832C160.674 314.971 159.998 315.827 159.881 316.277C159.787 316.638 159.881 317.003 160.138 317.25L160.291 317.399L160.494 317.462C161.791 317.872 163.178 318.223 164.52 318.57C168.106 319.489 171.813 320.435 174.596 322.534C175.083 322.898 175.375 323.196 175.546 323.403C175.528 323.403 175.506 323.403 175.488 323.403C175.177 323.403 174.785 323.358 174.326 323.268C173.529 323.11 171.412 322.263 169.169 321.367C164.948 319.678 160.165 317.764 157.958 317.764C157.359 317.764 156.909 317.899 156.584 318.174L156.233 318.471L156.269 318.93C156.364 320.142 157.661 321.552 159.769 323.75C161.228 325.272 163.403 327.542 163.503 328.61L163.498 328.619ZM200.423 311.832L221.484 317.926L221.047 316.367C220.556 314.611 217.286 313.381 212.723 311.836C211.985 311.584 211.12 311.296 210.561 311.075C210.75 311.035 211.03 311.003 211.435 311.003C212.111 311.003 212.858 311.089 213.457 311.156C213.885 311.206 214.228 311.246 214.471 311.246C214.529 311.246 214.583 311.246 214.629 311.242C215.327 311.183 215.93 310.931 216.457 310.71C216.975 310.494 217.421 310.309 217.88 310.309L218.106 308.526L214.471 307.769L214.07 305.904L200.423 311.827V311.832Z" fill="#65242E"/>
<path d="M443.387 346.225L442.811 344.536C441.604 344.775 440.595 344.897 439.816 344.897C438.87 344.897 438.248 344.726 437.969 344.397C437.46 343.789 437.739 342.235 438.032 340.591C438.217 339.555 438.428 338.379 438.5 337.168C438.604 335.447 438.428 333.758 438.262 332.128C438.113 330.722 437.978 329.394 438.028 328.155C438.1 326.434 438.739 324.385 439.361 322.403C439.843 320.863 440.338 319.273 440.599 317.773C440.721 317.079 440.703 316.341 440.689 315.625C440.671 314.787 440.653 313.917 440.888 313.4C441.009 313.156 441.775 312.472 442.23 312.057C442.797 311.548 443.333 311.066 443.671 310.643C451.184 301.288 460.003 292.64 469.881 284.943C470.376 284.555 470.84 284.181 471.281 283.826C473.677 281.88 475.263 280.596 478.263 280.596C478.659 280.596 479.087 280.619 479.528 280.664C488.343 281.569 502.116 286.519 511.165 290.942C514.025 292.338 521.925 296.662 523.605 298.342C524.858 299.594 527.371 306.175 527.61 308.391C527.992 311.945 527.348 316.255 526.727 320.426C526.272 323.457 525.844 326.317 525.772 328.966C525.754 329.556 525.866 330.281 525.988 331.047C526.146 332.046 526.434 333.902 526.002 334.281C525.763 334.429 524.632 334.546 523.957 334.618C523.06 334.713 522.214 334.798 521.588 335.01C520.624 335.334 519.863 336.109 519.124 336.861C518.453 337.546 517.755 338.253 517.201 338.253C517.065 338.253 516.926 338.213 516.773 338.127C516.687 338.082 516.678 338.068 516.588 337.83C516.34 337.172 515.944 336.465 514.381 336.397C514.124 336.384 513.863 336.379 513.593 336.379C510.399 336.379 506.472 337.163 502.67 337.92C500.162 338.42 497.792 338.893 495.766 339.118C493.518 339.366 491.212 339.465 488.766 339.564C486.194 339.672 483.537 339.785 480.974 340.086C471.07 341.262 461.197 343.212 451.648 345.095C448.432 345.73 445.117 346.383 441.843 347L443.387 346.225ZM440.744 332.281C440.753 332.74 440.771 333.195 440.784 333.645C440.834 335.15 440.883 336.573 440.753 337.915C440.717 338.271 440.514 338.749 440.316 339.208C439.991 339.96 439.69 340.672 439.888 341.352C440.163 342.289 441.086 342.766 442.626 342.766C444.604 342.766 447.527 342.019 449.662 341.474C450.635 341.226 451.553 340.992 451.932 340.951C456.828 340.411 461.746 339.924 466.948 339.411C481.915 337.929 497.392 336.402 511.692 333.596C512.827 333.375 514.088 332.821 515.183 332.321L515.507 332.173L517.295 327.781L519.214 328.754L518.552 326.7C517.777 324.29 518.444 321.606 519.092 319.012C519.412 317.723 519.745 316.39 519.894 315.107C520.092 313.4 520.259 309.823 520.155 308.233C520.133 307.9 519.016 301.423 517.651 300.743L517.556 300.698L517.453 300.675C516.804 300.527 516.111 300.45 515.39 300.45C515.295 300.45 515.201 300.45 515.106 300.45L516.336 299.23V298.856C516.34 298.198 516.345 297.383 509.453 293.915C506.256 292.307 502.598 290.663 501.481 290.239C500.833 289.992 499.279 289.528 497.31 288.938C494.676 288.15 490.356 286.857 489.388 286.357C489.374 286.235 489.374 286.033 489.374 285.902C489.374 285.488 489.374 285.015 489.068 284.641C488.559 284.01 487.077 283.672 482.24 282.848C480.519 282.555 478.74 282.249 478.191 282.051L478.01 281.988L477.821 282.001C476.794 282.074 475.177 283.204 472.628 285.055C471.574 285.821 470.579 286.546 470.007 286.857C469.79 286.974 469.57 287.028 469.322 287.028C469.187 287.028 469.07 287.01 468.989 287.001C468.876 286.988 468.791 286.979 468.732 286.979H468.3L467.989 287.33C465.174 290.866 461.863 294.271 458.661 297.568C456.13 300.171 453.517 302.86 451.112 305.643L442.721 313.102L456.071 310.792C454.454 311.129 452.842 311.476 451.243 311.837C451.04 311.882 450.819 311.931 450.58 311.981C447.175 312.71 443.793 313.593 443.063 315.692C442.653 316.868 442.131 319.696 441.685 322.538L440.428 322.984C438.901 323.52 438.528 326.66 438.523 326.691C438.379 327.952 438.419 329.434 438.482 330.848C438.482 330.916 438.469 331.069 438.455 331.195C438.401 331.7 438.334 332.384 438.775 332.875C439.014 333.136 439.352 333.285 439.73 333.285C439.798 333.285 439.87 333.285 439.946 333.272L440.649 333.177L440.744 332.294V332.281ZM519.826 332.555L520.732 332.803C521.128 332.911 521.628 333.051 522.142 333.051C522.939 333.051 523.412 332.709 523.668 332.425C524.713 331.263 526.695 316.552 526.7 316.422C526.767 314.404 526.7 311.882 525.569 310.044C525.803 309.598 525.785 309.067 525.677 308.495C525.772 308.522 525.866 308.535 525.97 308.535C526.299 308.535 527.069 308.386 527.141 306.999C527.177 306.27 526.312 304.869 525.7 304.22C525.218 303.716 524.754 303.468 524.272 303.468C523.948 303.468 523.65 303.585 523.407 303.801L523.223 303.968L523.146 304.202C522.524 306.166 522.759 307.697 523.033 309.467L523.214 310.661L523.511 310.706C522.25 313.746 522.488 316.913 522.718 319.98C522.912 322.583 523.096 325.052 522.425 327.407L520.786 327.385L519.831 332.555H519.826ZM509.35 301.549C508.485 301.779 507.661 301.986 506.868 302.112C504.067 302.558 501.247 303.004 498.409 303.445L509.35 301.549Z" fill="#65242E"/>
<path d="M349.995 295.55C350.022 295.099 350.188 294.586 350.49 294.081C351.094 293.059 352.089 292.316 352.864 292.293C352.26 293.041 351.368 294.018 350.643 294.815L350.224 295.275C350.143 295.365 350.067 295.46 349.995 295.554V295.55Z" fill="#65242E"/>
<path d="M375.389 277.051C374.808 277.051 374.258 276.966 373.722 276.79C373.704 276.704 373.709 276.668 373.709 276.668C373.736 276.65 373.997 276.515 374.61 276.515C375.362 276.515 376.132 276.704 376.682 276.921C376.227 277.006 375.799 277.051 375.394 277.051H375.389Z" fill="#65242E"/>
<path d="M404.621 288.14C404.819 287.699 405.806 286.906 406.621 286.906C406.72 286.906 406.797 286.92 406.86 286.942C406.459 287.411 405.315 288.122 404.621 288.14Z" fill="#65242E"/>
<path d="M318.326 289.834C318.277 289.681 318.286 289.519 318.349 289.339C318.457 289.028 318.705 288.749 318.997 288.546C318.813 289.014 318.551 289.523 318.326 289.834Z" fill="#65242E"/>
<path d="M472.172 322.979C472.091 322.979 472.015 322.979 471.938 322.975C471.965 322.975 471.997 322.975 472.024 322.975C472.898 322.975 473.947 322.696 474.942 322.241C474.312 322.551 473.78 322.781 473.533 322.831C473.055 322.93 472.596 322.979 472.172 322.979ZM470.956 322.817C470.24 322.605 469.682 322.196 469.344 321.615C468.691 320.498 468.857 318.845 469.79 317.196C470.384 316.142 472.006 314.858 473.051 314.858C473.208 314.858 473.344 314.89 473.461 314.948L473.258 315.746C473.186 315.737 473.109 315.732 473.033 315.723C472.821 315.701 472.6 315.678 472.375 315.678C471.983 315.678 471.664 315.755 471.398 315.912C470.799 316.273 469.389 319.25 469.186 320.124C469.114 320.43 469.047 320.885 469.299 321.281L469.943 322.191L470.002 322.25C470.263 322.506 470.587 322.696 470.961 322.817H470.956ZM475.731 321.84C476.609 321.344 477.393 320.727 477.902 320.074C478.591 319.191 478.604 318.466 478.492 318.016C478.334 317.385 477.794 317.07 477.321 316.791C477.122 316.674 476.974 316.583 476.875 316.511C476.911 316.511 476.947 316.511 476.983 316.511C477.951 316.511 478.654 316.827 478.969 317.403C479.334 318.083 479.145 319.083 478.447 320.151C478.19 320.461 476.929 321.214 475.735 321.844L475.731 321.84Z" fill="#65242E"/>
<path d="M454.855 337.329C454.941 337.334 455.026 337.338 455.112 337.338C456.112 337.338 457.26 337.014 458.242 336.496C457.4 337.181 456.481 337.762 455.625 338.104L454.851 337.329H454.855ZM460.598 333.992C460.616 333.906 460.625 333.816 460.634 333.726C460.665 333.096 460.404 332.055 458.476 331.6L458.557 331.195C459.337 331.195 461.129 331.294 461.255 332.163C461.323 332.645 461.066 333.294 460.602 333.992H460.598ZM455.089 333.411C454.986 333.127 454.869 332.803 454.882 332.632C454.9 332.321 454.999 332.123 455.08 332.024C455.143 332.172 455.211 332.478 455.179 332.987C455.17 333.141 455.139 333.276 455.094 333.411H455.089Z" fill="#65242E"/>
<path d="M488.865 331.335C488.514 331.335 487.861 331.263 487.464 330.776C487.118 330.357 487.063 329.934 487.293 329.457C487.726 328.542 489.036 327.772 490.158 327.772C490.73 327.772 491.18 327.966 491.5 328.344C491.775 328.952 491.757 329.52 491.441 330.029C490.968 330.785 489.888 331.335 488.865 331.335Z" fill="#65242E"/>
<path d="M492.446 312.548C492.09 312.548 491.766 312.444 491.482 312.242C491.036 311.926 491.086 311.679 491.104 311.584C491.194 311.143 491.802 310.557 492.568 310.386C492.91 310.309 493.225 310.273 493.532 310.273C493.703 310.273 493.865 310.287 494.027 310.309C494.351 310.656 494.441 311.012 494.297 311.386C494.054 312.026 493.225 312.548 492.446 312.548Z" fill="#65242E"/>
<path d="M498.477 315.255C498.428 315.255 498.41 315.246 498.41 315.246C497.946 314.512 498.144 314.143 498.212 314.021C498.531 313.431 499.522 313.066 500.252 313.066C500.518 313.066 500.675 313.116 500.729 313.143C500.752 313.219 500.716 313.399 500.599 313.629C500.162 314.467 499.031 315.251 498.477 315.251V315.255Z" fill="#65242E"/>
<path d="M461.962 301.657C461.278 301.657 460.908 301.504 460.796 301.369C460.737 301.301 460.724 301.171 460.76 300.99C461.025 299.518 463.093 298.603 464.858 298.603C465.547 298.603 466.169 298.743 466.624 298.995C466.899 299.288 466.836 299.455 466.795 299.554C466.399 300.536 463.827 301.657 461.967 301.657H461.962Z" fill="#65242E"/>
<path d="M493.441 299.504C492.54 299.504 491.608 299.387 490.626 299.261L490.513 299.248C491.558 299.072 492.536 298.563 493.418 298.108C494.288 297.658 495.112 297.23 495.765 297.23C496.058 297.23 496.445 297.306 496.904 297.851L496.837 298.585C495.882 299.221 494.819 299.504 493.445 299.504H493.441Z" fill="#65242E"/>
</g>
<defs>
<clipPath id="clip0_22_746">
<rect width="579.591" height="347" fill="white"/>
</clipPath>
</defs>
</svg>
