<svg width="150" height="35" viewBox="0 0 150 35" fill="none" xmlns="http://www.w3.org/2000/svg">
<g clip-path="url(#clip0_96_210)">
<path d="M77.0762 20.2145H77.065C77.0509 20.2257 75.25 21.7176 72.949 23.201C69.8558 25.1957 67.389 26.2184 65.619 26.2381H65.5825C64.2901 26.2381 64.0963 25.4654 64.0963 25.0075C64.0963 23.9539 65.0824 22.4789 65.5066 21.8917L65.5741 21.799L65.6865 21.7766C67.9594 21.3467 70.8447 20.4617 71.5021 19.3744C71.6033 19.2087 71.6539 19.0288 71.6539 18.8406C71.6539 17.9697 70.6256 17.079 69.6142 17.079C69.4877 17.079 69.3641 17.0931 69.2433 17.1212C67.7571 17.4696 65.7061 19.3491 64.5317 20.9393L64.5093 20.9702L64.4812 20.9927C62.6606 22.4536 58.0867 25.8532 54.9822 25.8532C54.8024 25.8532 54.6254 25.8419 54.4568 25.8194C53.7516 25.7239 53.3302 25.2379 53.3302 24.5186C53.3302 23.9989 53.5634 23.3583 53.9118 23.2263C53.9427 23.2122 53.9764 23.201 54.0073 23.1897C56.9067 22.0828 60.0084 20.3746 60.0084 18.9024C60.0084 18.0877 59.0729 17.0509 58.0249 17.0509C57.9519 17.0509 57.8788 17.0566 57.803 17.0678C56.7887 17.2167 55.1704 18.4613 53.9567 20.0234L53.9005 20.0965L53.8106 20.1217C53.1729 20.3128 51.5321 20.7061 50.5263 20.7061C50.1105 20.7061 49.8352 20.6415 49.661 20.5038L49.5626 20.4252L49.5514 20.3016C49.5346 20.1189 49.5289 19.9785 49.5289 19.8577C49.5289 19.4559 49.6076 19.2452 49.7481 18.8603C49.7846 18.7619 49.8239 18.6524 49.8717 18.5203C49.8829 18.2141 49.7003 17.9668 49.5879 17.8432C49.3576 17.5904 49.0626 17.4555 48.9024 17.4555C48.8912 17.4555 48.8827 17.4555 48.8743 17.4555L48.7816 17.669C48.6945 18.0034 48.5765 18.6327 48.5653 18.7395L48.5597 18.79L48.5372 18.8406C48.186 19.5598 47.6157 20.487 46.9273 21.4535C46.652 21.8412 44.188 25.2604 42.5192 25.9094L42.1989 26.033L42.1315 25.6958C42.0809 25.4458 42.0584 25.1592 42.0584 24.8417C42.0584 22.3076 43.6037 18.318 43.6711 18.1495C43.6739 18.141 43.6767 18.1298 43.6767 18.1186C43.6767 17.8376 43.0474 17.2982 42.7271 17.315C42.6709 17.4583 42.2298 18.613 41.8224 20.0571L41.8056 20.1161L41.7662 20.1639C40.856 21.2456 36.372 24.7827 34.3351 24.7827C34.0682 24.7827 33.8406 24.7237 33.6608 24.6057C33.4304 24.454 33.3237 24.1309 33.3237 23.5859C33.3237 22.0491 34.189 18.908 34.3744 18.3518L34.3969 18.2871L34.425 18.259C34.4109 17.9781 33.8884 17.3684 33.5259 17.3684C33.4726 17.3684 33.4079 17.3825 33.3377 17.4808C33.1579 17.7393 28.879 23.8584 26.4797 24.6984L26.1622 24.8108L26.1004 24.4793C26.0751 24.336 26.0611 24.1787 26.0611 24.0129C26.0611 22.1025 27.8732 19.012 28.9436 17.4864C28.9408 17.2476 28.2609 16.6464 27.9041 16.6464C27.8985 16.6464 27.8929 16.6464 27.8901 16.6464C27.3057 17.478 26.4881 18.7479 25.8897 20.0937L25.8447 20.1948L25.7436 20.2397C25.2407 20.782 13.0361 33.7086 5.3437 33.7086C4.85484 33.7086 4.38565 33.6552 3.95299 33.5512C2.00037 33.0849 0.969283 31.52 0.969283 29.0223C0.969283 24.9541 3.78723 18.3574 8.14478 12.2186C12.7468 5.72579 17.7702 1.49747 21.5686 0.913094C23.0549 0.682714 24.1084 0.781047 24.6984 1.19966C25.1058 1.48904 25.3137 2.02566 25.3137 2.79547C25.3137 4.09066 24.7434 5.6696 24.5243 6.16689C24.1056 7.1165 23.4904 8.18974 22.67 9.32759C22.7571 9.35569 22.8442 9.38378 22.9313 9.41188C23.1869 9.49616 23.4454 9.57764 23.7039 9.6535C23.8977 9.70969 24.1084 9.63102 24.218 9.46245C24.7883 8.59993 25.2351 7.78517 25.561 7.04627C26.0751 5.88032 26.3336 4.82956 26.3336 3.92489C26.3336 2.61004 25.8082 1.59862 24.7237 0.828809C23.9455 0.278144 22.9594 -0.00280762 21.7906 -0.00280762C21.3804 -0.00280762 20.9421 0.0337161 20.487 0.101144C16.9358 0.64619 11.9152 4.78461 7.3834 10.9009C2.82918 17.0481 0 23.5578 0 27.8929C0 28.3592 0.0309047 28.8031 0.0955235 29.2161C0.483237 31.7447 2.31785 33.7563 4.77056 34.3407C5.22008 34.4475 5.70612 34.5037 6.21465 34.5037C12.3815 34.5037 21.1528 26.6202 24.6366 23.2319L25.0693 22.8133L25.1255 23.4117C25.1789 23.982 25.3699 24.44 25.7014 24.8108C26.2437 25.4121 26.9629 25.7014 27.508 25.5329C28.4435 25.2463 30.0225 23.8359 31.843 21.667L32.3993 21.0067L32.3544 21.8693C32.3488 21.9732 32.3459 22.0772 32.3459 22.1783C32.3459 23.496 32.7983 24.4344 33.731 25.0468C34.1328 25.3109 34.6188 25.443 35.1779 25.443C37.2738 25.443 39.7434 23.6505 40.7071 22.8807L41.2521 22.4452L41.1762 23.1364C41.1369 23.4791 41.1201 23.7966 41.1201 24.0775C41.1201 24.336 41.1369 24.5748 41.1678 24.7855C41.2914 25.6284 41.9404 26.814 42.9856 26.814H43.0137C44.6151 26.7887 47.6269 22.8526 48.8856 20.7511L49.0682 20.4448L49.3295 20.6893C49.9166 21.2343 50.7005 21.4984 51.7288 21.4984C51.976 21.4984 52.2485 21.4816 52.5351 21.4478L53.0436 21.3888L52.8329 21.8552C52.5267 22.5295 52.3722 23.1476 52.3722 23.6983C52.3722 24.0185 52.4255 24.3192 52.5323 24.5833C52.9481 25.6144 54.1281 26.4572 55.398 26.6314C57.1034 26.8618 59.6376 25.9122 62.6831 23.9146L63.1467 23.6112L63.1298 24.1646C63.1101 24.8221 63.3574 25.4374 63.8462 25.9403C64.5149 26.6286 65.5797 27.0584 66.622 27.0584H66.6557C70.8503 27.0135 77.6775 21.4001 77.964 21.1613C77.9584 20.8578 77.3572 20.2201 77.079 20.2201L77.0762 20.2145ZM67.5632 19.6273C68.5241 18.7732 69.4568 18.1832 70.1929 17.964L70.7857 17.7899L70.5385 18.3574C70.2632 18.9923 69.3585 19.5851 67.8498 20.1161L66.4647 20.605L67.5632 19.6301V19.6273ZM55.0187 20.8578C55.8756 19.7509 57.3225 18.3237 58.5784 17.9472L59.0644 17.8011L58.9408 18.2928C58.6599 19.4194 56.8477 20.546 55.3783 21.2905L54.2321 21.8721L55.0187 20.8578Z" fill="white"/>
<path d="M148.989 19.8492C148.989 19.8492 148.966 19.8492 148.955 19.8492C148.888 19.8577 147.379 20.029 145.452 20.3746L145.064 20.4448L145.114 20.0543C145.143 19.8352 145.159 19.6188 145.159 19.4109C145.159 18.2843 144.735 16.8234 142.712 16.2671C142.684 16.2587 142.651 16.2559 142.617 16.2559C141.417 16.2559 138.664 20.4139 136.84 23.1673C136.568 23.5746 136.304 23.9736 136.054 24.3501L134.882 26.1173L135.54 24.1C137.81 17.1296 142.96 3.70856 143.179 3.14104C143.184 3.12418 143.184 3.05114 143.094 2.91909C142.867 2.58757 142.361 2.27852 142.136 2.27852V2.28414C141.704 3.38266 137.874 13.23 135.453 20.2791L135.433 20.3409L135.388 20.3858C134.295 21.5153 130.112 24.7827 128.156 24.7827C127.889 24.7827 127.662 24.7237 127.482 24.6057C127.252 24.454 127.145 24.1281 127.145 23.5859C127.145 22.0491 128.01 18.908 128.196 18.3518L128.218 18.2871L128.246 18.259C128.232 17.9781 127.71 17.3684 127.347 17.3684C127.294 17.3684 127.229 17.3825 127.159 17.4808C126.979 17.7393 122.7 23.8584 120.301 24.6984L119.983 24.8108L119.922 24.4793C119.896 24.336 119.882 24.1787 119.882 24.0129C119.882 22.1025 121.694 19.012 122.765 17.4864C122.762 17.2476 122.082 16.6464 121.725 16.6464C121.72 16.6464 121.714 16.6464 121.711 16.6464C121.147 17.4527 120.349 18.6833 119.756 19.9897L119.714 20.0852L119.618 20.1302C118.295 21.3945 116.764 23.1785 115.286 24.9035C113.094 27.4574 111.027 29.8708 109.394 30.9665L108.936 31.2755L108.945 30.7249C109.004 26.5724 114.199 14.0223 116.988 7.28227C117.261 6.62484 117.542 6.00394 117.789 5.45608C118.258 4.41656 118.666 3.51752 118.666 3.12137C118.666 2.84604 117.963 2.28133 117.621 2.27852C117.385 2.9528 116.783 4.40251 115.957 6.39727L115.943 6.43379C114.463 10.0159 112.223 15.427 110.51 20.2088L110.49 20.265L110.448 20.31C109.15 21.681 97.5438 33.7086 90.1098 33.7086C89.621 33.7086 89.1518 33.6552 88.7191 33.5512C86.7665 33.0848 85.7354 31.5199 85.7354 29.0223C85.7354 24.9541 88.5533 18.3574 92.9109 12.2186C97.5213 5.72299 102.545 1.49467 106.343 0.910287C107.829 0.679906 108.883 0.778239 109.473 1.19686C109.88 1.48624 110.088 2.02285 110.088 2.79266C110.088 4.08785 109.518 5.6668 109.299 6.16408C108.731 7.45084 107.799 8.97359 106.486 10.5638C107.054 10.4402 107.627 10.3165 108.206 10.2407C108.377 10.2182 108.532 10.1283 108.633 9.98783C109.38 8.93145 109.948 7.93126 110.335 7.04346C110.85 5.87751 111.108 4.82675 111.108 3.92209C111.108 2.60723 110.583 1.59581 109.498 0.826001C108.72 0.275336 107.734 -0.00561523 106.565 -0.00561523C106.158 -0.00561523 105.717 0.0309085 105.262 0.0983368C101.71 0.643383 96.6897 4.7818 92.1579 10.8981C87.6037 17.0425 84.7773 23.5522 84.7773 27.8872C84.7773 28.3536 84.8111 28.7975 84.8729 29.2105C85.2606 31.7391 87.0952 33.7507 89.5479 34.3351C89.9974 34.4418 90.4835 34.498 90.992 34.498C93.4391 34.498 98.9907 33.1242 108.684 23.9286L109.487 23.1673L109.158 24.2236C108.335 26.8702 107.919 28.7891 107.919 29.927C107.919 31.4357 108.504 32.1409 109.715 32.079C110.462 32.0425 113.395 28.7161 115.539 26.2858C116.533 25.1592 117.559 23.9933 118.449 23.0436L118.919 22.5435L118.949 23.2291C118.978 23.8724 119.177 24.4006 119.539 24.8024C120.082 25.4036 120.798 25.693 121.346 25.5244C122.282 25.2379 123.861 23.8303 125.681 21.6586L126.232 21.0011L126.19 21.858C126.184 21.9648 126.181 22.0659 126.181 22.1671C126.181 23.4847 126.633 24.4231 127.566 25.0356C127.968 25.2997 128.454 25.4317 129.013 25.4317C130.78 25.4317 132.826 24.1394 133.888 23.3667L134.593 22.8554L134.334 23.687C133.598 26.047 133.444 26.9461 133.444 27.286C133.444 27.9772 133.831 28.3424 134.568 28.3424C135.014 28.3227 136.644 25.8897 137.18 25.089L137.363 24.8164L137.61 25.03C138.363 25.6818 139.15 26.0105 139.951 26.0105C141.504 26.0105 143.648 24.4849 144.735 21.5715L144.794 21.4169L144.957 21.3888C147.455 20.9562 149.736 20.6865 150.011 20.6527C149.936 20.3915 149.399 19.838 149 19.838L148.989 19.8492ZM142.923 22.2766C142.403 23.1251 141.777 23.85 141.114 24.3725C140.765 24.6451 139.852 25.28 138.945 25.28C138.433 25.28 137.998 25.0693 137.689 24.676L137.563 24.513L138.515 23.0774L138.585 23.0436C139.414 22.6419 140.771 22.2401 142.62 21.8468L143.277 21.7063L142.926 22.2795L142.923 22.2766ZM143.741 20.5685L143.687 20.7202L143.53 20.7539C142.195 21.0405 141.032 21.3551 140.071 21.6838L139.251 21.9648L139.74 21.2484C142.139 17.728 142.906 17.02 143.37 17.02C143.415 17.02 143.457 17.0257 143.496 17.0369C143.918 17.1521 144.134 17.5904 144.134 18.3377C144.134 19.1777 143.864 20.2201 143.743 20.5656L143.741 20.5685Z" fill="white"/>
<path d="M54.1451 15.1629L59.8653 12.7439C59.958 12.6934 60.0788 12.3928 60.0704 12.2551C59.9271 12.1877 59.559 12.109 59.4523 12.1427L54.013 14.8707C53.9737 14.9045 53.9007 15.0337 53.8613 15.1348C53.9625 15.1545 54.0889 15.1714 54.1451 15.1601V15.1629Z" fill="white"/>
</g>
<defs>
<clipPath id="clip0_96_210">
<rect width="150" height="34.5008" fill="white"/>
</clipPath>
</defs>
</svg>
