<svg width="76" height="144" viewBox="0 0 75.9974 144.026" fill="none" xmlns="http://www.w3.org/2000/svg">
<g id="Layer 1">
<path id="Vector" d="M75.2675 51.3664C75.3083 50.5393 76.0297 49.5133 75.9963 49.1288C75.9796 48.9409 75.7837 48.8167 75.7682 48.6356C75.733 48.2288 75.7898 47.8209 75.746 47.4135C75.6514 46.5364 75.359 46.1099 75.7262 45.1488C75.7478 45.0919 75.7744 45.0456 75.8041 45.0066C75.7985 44.9745 75.7935 44.9423 75.788 44.9108C75.6217 43.9441 75.4146 42.9854 75.1903 42.0304C74.7316 40.0796 74.2069 38.1449 73.7995 36.1824C73.7612 35.9982 73.7501 35.8178 73.7624 35.6434C73.6821 35.3665 73.6011 35.0859 73.5041 34.7886C73.1734 34.5889 72.9051 34.2749 72.7561 33.9133C72.6826 33.9078 72.6294 33.9084 72.6103 33.8781C72.2771 33.3391 71.9866 32.4095 71.7313 31.7821C71.0471 30.1021 70.3338 28.066 69.8263 26.1486C69.7861 26.0571 69.7466 25.965 69.7058 25.8736C69.4882 25.3853 69.2607 24.9007 69.0407 24.4136C68.6154 23.4734 68.2075 22.5252 67.7989 21.5777C66.9583 19.6288 66.1065 17.6823 65.1089 15.807C63.4294 12.6497 61.6017 9.37924 61.1758 5.79048C60.6523 4.77183 60.1089 3.31308 59.7368 2.46689C59.6843 2.34697 59.531 2.26476 59.4476 2.15968C59.4395 1.98909 60.0774 1.96869 60.7289 1.95694C60.5181 1.76656 60.3061 1.57804 60.0886 1.39508C59.9897 1.31163 59.9081 1.21768 59.8413 1.11631C59.7752 1.1126 59.7084 1.10704 59.641 1.09839C58.5284 0.948184 58.0599 0.603278 56.7742 0.603896C55.3563 0.603896 54.0026 0.539612 52.5976 0.354178C52.2367 0.306584 51.7045 0.106933 51.3027 0C50.9893 0.370867 50.509 0.608223 50.0176 0.628002C48.876 0.673742 47.7368 0.753479 46.5989 0.852995C46.6557 0.888846 46.6965 0.932113 46.7132 0.984035C46.1483 0.859794 45.469 1.31596 44.972 1.00752C44.2383 1.0817 43.5052 1.1602 42.7721 1.23993C42.7715 1.27084 42.7666 1.30854 42.7567 1.35552L40.6563 1.47852L40.6879 1.46431C40.3547 1.49954 40.0222 1.53354 39.689 1.56691C39.2378 1.88277 38.3193 1.77398 37.7636 1.86361C35.1891 2.27898 33.09 2.62203 30.4569 2.61647C28.4369 2.61214 26.3402 2.8019 24.2757 2.76976C24.23 2.76914 24.0582 2.76791 23.8468 2.75864C22.4356 2.78212 21.0232 2.78274 19.6121 2.78274C19.3914 2.78274 19.1844 2.73886 18.9971 2.66097C18.484 2.75554 17.9815 2.85939 17.5043 2.98981C17.0383 3.11714 16.7737 3.72474 16.1822 3.57825C16.1636 3.56589 16.1525 3.51335 16.1457 3.4367C15.5876 3.62461 15.0102 3.70867 14.415 3.72474C13.6448 5.47091 13.1176 7.32896 12.387 9.1221C11.6663 10.8905 10.817 12.4228 10.2761 14.305C9.62401 16.5747 9.17031 18.5088 8.30063 20.7358C6.7399 24.7319 4.58083 28.6934 3.45463 32.8261C2.67395 35.6892 1.70723 38.53 1.12682 41.5007C0.930259 42.507 0.875247 43.6604 0.695994 44.6549C0.548266 45.4745 0.257135 46.3961 0.0581026 47.2658C0.0457403 49.4879 0.0265788 51.7094 0.0117441 53.9315C0.0513033 54.2307 0.0284332 54.5571 0.00556301 54.8853C0.00370867 55.2048 0.00185434 55.5238 0 55.8434C0.203977 57.584 0.742971 57.9184 1.4538 59.2875C1.95447 60.2524 2.18008 61.7636 2.65417 62.5375C3.02566 63.1451 4.2316 64.0414 4.48873 64.5352C4.60865 64.7658 4.58887 65.0681 4.71125 65.3017C4.90905 65.6788 5.5216 66.1862 5.6174 66.4971C5.66933 66.6659 5.7027 66.8155 5.72681 66.9515C5.92461 67.2877 6.09521 67.6345 6.28002 67.9843C6.31587 68.0523 6.35543 68.1178 6.39499 68.1833C6.58104 68.2872 6.76524 68.3929 6.955 68.4899C7.08357 68.5561 7.19606 68.6408 7.29434 68.7384C7.65903 68.9813 8.00888 69.2471 8.32845 69.5506C8.58929 69.7979 8.80996 70.0637 9.00961 70.3437C10.2539 71.366 11.3547 72.5299 12.7269 73.48C14.8613 74.9579 17.615 76.8147 19.8766 77.8228C20.4496 78.0781 20.9318 78.206 21.4979 78.4304C21.8132 78.5553 22.2446 78.941 22.4851 79.0312C22.7366 79.1252 23.2324 78.9861 23.4104 79.0436C24.4414 79.3786 25.1331 80.163 26.4849 79.9819C26.5751 79.9695 26.5535 79.755 26.6487 79.7303C27.2371 79.5789 27.9745 80.074 28.5092 80.197C30.3166 80.613 32.1925 80.9492 33.9795 81.5259C34.864 81.8115 35.7967 82.1824 36.5508 82.7238C36.6485 85.4936 36.9001 88.4006 36.5706 91.1586C36.3741 92.8083 36.3945 94.434 36.2171 96.1208C36.0254 97.9442 36.439 98.3998 36.583 99.9383C36.9161 103.491 35.8128 108.033 36.1979 111.573C36.4006 113.434 36.5651 115.259 36.6992 117.129C36.9025 119.973 36.9285 122.813 36.6998 125.656C36.6769 125.944 36.4433 127.599 36.3135 127.681C36.2993 127.681 36.285 127.683 36.2708 127.683C36.3005 127.802 36.319 127.927 36.3252 128.059C36.3271 128.098 36.3271 128.137 36.3252 128.177C36.3252 128.179 36.3252 128.18 36.3252 128.182C36.3382 128.467 36.2622 128.737 36.125 128.973C36.1682 128.975 36.1985 128.98 36.2115 128.988C36.4866 129.177 36.4754 130.027 36.1243 130.15C35.9834 130.199 34.4319 130.492 34.2725 130.498C33.7934 130.514 33.1185 130.225 32.6215 130.168C32.6227 130.166 32.624 130.165 32.6246 130.163C32.1505 130.284 31.6776 130.409 31.1961 130.5C30.6188 130.663 29.4166 130.836 29.1044 130.919C28.3417 131.12 27.2915 131.64 26.5955 131.748C24.8234 132.021 23.9543 131.87 22.1365 132.481C19.5429 133.352 17.1551 133.598 14.5238 134.881C14.0311 135.122 13.5676 135.597 13.0891 135.796C12.408 136.078 12.034 135.871 11.4821 136.537C11.3584 136.686 11.024 137.238 10.9931 137.408C10.9406 137.695 10.8534 138.934 10.8596 139.251C10.8819 140.402 12.5019 142.287 13.4773 142.825C16.4542 144.466 19.0879 143.524 22.1803 143.764C22.6977 143.804 23.1403 144.03 23.6595 144.026C24.3858 144.021 25.3568 143.652 26.0145 143.641C26.802 143.629 27.9177 143.864 28.7286 143.891C28.8702 143.896 29.0074 143.898 29.1428 143.899C31.1776 143.778 33.2093 143.609 35.2417 143.447C35.4599 143.328 35.7016 143.221 36.0539 143.173C37.0459 143.039 37.7704 143.05 38.8311 142.747C39.7731 142.479 39.8485 142.513 40.8263 142.394C41.4352 142.32 41.9822 141.995 42.4563 141.922C44.4145 141.621 46.4252 141.721 48.4928 141.283C49.1813 141.137 49.7877 140.923 50.3762 140.721C50.6883 140.329 51.1729 140.066 51.6705 140.083C53.1954 140.133 54.724 140.107 56.2439 139.964C56.5591 139.934 56.8738 139.897 57.1884 139.858C57.2502 139.849 57.3114 139.84 57.3732 139.831C57.5246 139.808 57.6754 139.784 57.8269 139.759C58.4697 139.651 59.1088 139.518 59.7418 139.36C60.3543 139.206 60.9607 139.028 61.5584 138.824C61.857 138.722 62.1537 138.614 62.4479 138.499C62.5659 138.452 62.684 138.405 62.8014 138.356C62.8731 138.325 62.9442 138.294 63.0159 138.262C64.1984 137.733 65.3308 137.096 66.3995 136.365C66.6764 136.176 66.9484 135.98 67.2166 135.779C67.2809 135.731 67.3433 135.678 67.4095 135.632C67.4008 135.639 67.3922 135.644 67.3841 135.65C67.3013 135.715 67.0299 135.89 67.3841 135.65C67.4101 135.629 67.4348 135.608 67.4608 135.588C67.3823 134.857 67.1499 133.742 66.9842 133.486C66.8791 133.323 66.669 133.298 66.5627 133.136C66.3853 132.864 66.1306 132.258 66.0088 132.11C65.9458 132.034 65.0421 131.736 64.78 131.578C64.3133 131.296 63.6371 130.628 63.147 130.49C61.7729 130.105 59.4927 130.186 58.0271 130.047C55.5961 129.816 53.209 129.443 50.7365 129.426C48.6658 129.411 46.6928 129.838 44.5449 129.807C44.2513 129.803 43.9688 129.651 43.695 129.678C43.1683 129.73 42.9576 130.195 41.947 130.056C41.5056 129.995 41.4599 129.703 41.1582 129.609C40.7151 129.469 40.1037 129.713 39.8077 129.225C39.8528 128.191 39.4646 127.185 39.3107 126.141C39.0734 124.53 38.726 122.172 38.8032 120.593C38.9176 118.267 38.7643 116.14 38.7977 113.788C38.8545 109.786 38.3978 105.926 38.3026 101.93C38.2667 100.412 38.0819 98.0388 38.3347 96.6369C38.6178 95.0663 38.5127 94.7949 38.5486 93.2676C38.5789 91.985 39.0486 90.4539 39.0585 89.0694C39.069 87.55 38.4429 84.5658 39.0832 83.2913C39.4856 82.4902 39.5691 82.8709 40.0432 82.6459C42.1899 81.6242 44.412 80.7638 46.3875 79.4688C47.2504 78.9033 48.1887 77.9501 48.9508 77.4581C49.2357 77.2739 50.0758 77.0588 50.268 76.8598C50.909 76.1959 51.558 75.7379 52.3368 75.1575C54.316 73.6808 56.5041 72.5936 58.4561 71.1398C59.3141 70.5013 61.742 68.6117 62.6302 68.3917C63.0524 68.2872 63.6433 68.4522 64.0494 68.2353C64.2608 68.1222 64.432 67.5825 64.649 67.4429C65.5774 66.8464 66.962 66.3735 67.7717 65.7443C68.3138 65.3233 68.4603 64.798 68.778 64.5254C68.956 64.3727 70.0803 63.4498 70.4864 63.1377C70.814 62.5394 71.0631 61.9033 71.3363 61.2778C71.4235 61.0781 71.5113 60.8791 71.5997 60.6801C71.6219 60.452 71.6584 60.235 71.7214 60.0508C71.8055 59.8055 72.0082 59.6157 72.1708 59.4148C72.2957 59.1435 72.4211 58.8721 72.5478 58.602C72.6344 58.3294 72.7141 58.0791 72.8952 57.8689C73.6438 56.3076 74.4343 54.7672 75.2762 53.2553C75.296 53.1867 75.3151 53.1175 75.3355 53.0489C75.3868 52.8739 75.4394 52.6996 75.4913 52.5247C75.3782 52.1501 75.2521 51.7651 75.2712 51.3682L75.2675 51.3664ZM39.108 134.587C39.2396 134.389 39.3867 134.198 39.5388 134.017V133.077C39.5388 132.74 39.6402 132.435 39.812 132.181C39.2878 132.028 38.8873 132.335 39.0653 131.301C40.4857 131.131 41.95 130.759 43.3723 130.853C43.6616 131.076 43.8099 131.481 44.2383 131.406L44.3805 130.929C44.6395 130.765 45.7434 131.167 46.1569 131.169C46.6712 131.171 47.3449 130.925 47.8821 130.907C49.6282 130.849 51.9839 131.111 53.5681 131.413C55.9664 131.869 57.3478 131.043 59.5131 131.154C61.4972 131.256 63.6544 132.097 64.9506 133.628C65.1416 133.854 66.0323 135.084 65.9847 135.275C65.8648 135.755 64.2781 136.162 63.7867 136.427C63.0648 136.816 62.472 137.181 61.9287 137.513C61.7921 137.806 61.5751 138.055 61.2858 138.19C59.7671 138.902 58.1984 139.234 56.5412 139.433C55.2747 139.586 53.9995 139.638 52.7281 139.731C52.3974 139.755 52.0673 139.782 51.7372 139.815C51.592 139.829 51.4473 139.845 51.3027 139.863C51.2798 139.865 51.2563 139.868 51.2335 139.871C51.2174 139.874 51.1976 139.877 51.1735 139.881C50.3638 140.005 49.5504 140.109 48.7369 140.208C46.547 140.474 44.3477 140.634 42.1435 140.692C41.5217 140.916 40.8912 141.114 40.2527 141.286C40.0963 141.347 39.9523 141.382 39.8169 141.398C39.3082 141.523 38.7946 141.632 38.2778 141.722C35.3721 142.23 32.4447 142.239 29.5081 142.088C26.5893 141.938 23.6743 141.706 20.7494 141.802C20.2945 141.817 19.897 141.627 19.6071 141.326C18.7133 141.434 17.8183 141.569 16.9746 141.661C16.1148 141.755 13.3222 141.737 13.5775 140.372C13.6492 139.988 14.292 139.879 14.6103 139.668C15.1876 139.285 16.2978 138.511 16.757 138.046C16.872 137.929 16.8881 137.731 17.0018 137.567C17.097 137.11 17.385 136.686 17.7837 136.431C18.9785 135.667 20.2704 135.022 21.6333 134.616C21.8373 134.369 22.1093 134.177 22.4276 134.11C22.9969 133.99 23.5655 133.939 24.1354 133.92C24.4037 133.86 24.6837 133.797 24.952 133.692C25.9039 133.319 26.2203 132.895 27.3805 132.783C27.4083 132.78 27.4368 132.779 27.4646 132.776C27.5987 132.739 27.7372 132.719 27.8769 132.72C27.9288 132.72 27.9801 132.722 28.032 132.724C28.333 132.48 28.6767 132.396 29.0698 132.353C29.076 132.353 29.0865 132.351 29.0989 132.35C29.1316 132.345 29.1613 132.342 29.173 132.34C29.2985 132.321 29.4234 132.301 29.5489 132.282C29.8567 132.237 30.1682 132.188 30.4804 132.164C30.7443 132.095 31.0076 132.023 31.2746 131.966C31.8068 131.851 32.3743 131.757 32.92 131.782C33.3416 131.802 33.7557 131.884 34.1779 131.894C34.3145 131.802 34.4653 131.731 34.7045 131.787C35.4036 131.561 36.2931 131.865 36.6337 132.525C36.6837 132.622 36.7363 132.716 36.7944 132.808C36.8197 132.849 36.8636 132.902 36.8995 132.942C36.994 133.043 36.9576 133.008 36.8995 132.942C36.8716 132.913 36.8333 132.873 36.7808 132.818C36.9217 132.965 37.0441 133.127 37.19 133.271C37.3371 133.416 37.4928 133.551 37.6517 133.683C37.6702 133.696 37.6888 133.711 37.7079 133.724C37.7982 133.79 37.8897 133.853 37.9824 133.915C38.3452 134.159 38.7229 134.381 39.108 134.587V134.587ZM70.5371 57.0147C69.9036 57.8256 69.3578 59.9464 68.5839 60.5008C68.3348 60.6795 67.8601 60.6968 67.5696 60.8464C67.4806 60.8921 66.8451 61.3019 66.7808 61.3544C66.342 61.7142 66.6677 62.2408 66.6152 62.3014C66.4007 62.3527 65.939 62.357 65.7832 62.4596C65.7004 62.514 65.6695 62.7192 65.5724 62.8027C63.4189 64.6502 61.5213 66.4465 58.9098 67.8867C57.3287 68.7588 55.2871 69.4851 53.8407 70.4821C53.4241 70.7689 53.1941 71.2888 52.9617 71.4575C52.7571 71.6052 52.4889 71.5644 52.3096 71.6707C50.875 72.5188 49.2802 73.645 47.9062 74.6847C47.1199 75.2805 46.1075 76.0562 45.4708 76.6991C43.5262 78.6604 41 79.6153 38.6363 80.9919C37.6962 81.5395 37.6338 82.3307 36.4594 81.5185C36.0483 81.2342 35.7634 80.7403 35.3029 80.4492C33.5771 79.3582 31.69 79.6017 29.8647 79.2117C29.0296 79.0331 28.2527 78.8081 27.5425 78.4391C27.3459 78.3371 26.6777 78.4391 26.402 78.368C26.3081 78.3439 26.318 78.1677 26.1455 78.1059C25.5076 77.8772 25.0966 77.9267 24.5384 77.8747C24.264 77.8494 23.8635 77.6232 23.6657 77.6293C23.5909 77.6318 23.5927 77.8537 23.4394 77.9211C23.0204 78.1059 22.872 77.7221 22.5704 77.6046C22.2693 77.4872 21.9467 77.3487 21.6074 77.1923C21.2662 77.112 20.9268 77.0224 20.5918 76.9198C19.4007 76.5557 18.2658 76.0464 17.1433 75.5123C15.4769 74.7187 14.0064 73.5282 12.7331 72.2023C11.547 70.9673 10.503 69.6062 9.36317 68.3292C8.18937 67.0139 6.75968 65.9514 5.74535 64.4957C5.11859 63.5963 4.74278 62.5523 4.33173 61.5436C4.23283 61.3013 4.13455 61.0584 4.0338 60.8167C4.02082 60.7852 3.98312 60.6968 3.97137 60.6677C3.93738 60.5886 3.90338 60.5089 3.86815 60.4304C3.80386 60.2851 3.73834 60.1405 3.67097 59.9965C3.44165 59.6417 3.20429 59.2918 2.95396 58.9506C2.72649 58.6409 2.67334 58.0414 2.7883 57.686C2.87608 57.4152 3.01824 57.1711 3.21048 56.9615C3.21604 56.956 3.2216 56.951 3.22716 56.9455C3.00712 56.4843 2.50706 55.8019 3.03493 55.5281C3.95097 55.0534 6.28311 55.2982 7.75731 55.2852C8.02928 55.0991 8.35193 54.9885 8.68077 54.9879C11.5086 54.9848 14.3291 54.7654 17.1403 54.4699C22.1426 53.9433 27.1296 53.1855 32.1641 53.0445C33.8077 52.9988 35.4685 52.9685 37.1115 53.0371C38.0003 53.0742 38.896 53.1521 39.77 53.3233C40.2119 53.4098 40.6551 53.5403 41.0643 53.7356C43.1232 53.7616 45.1828 53.8042 47.2417 53.8258C47.9284 53.696 48.6028 53.5823 49.2493 53.557C50.5801 53.5038 52.1063 53.7492 53.4506 53.7745C55.5442 53.8135 57.4251 54.2653 59.5119 54.1497C61.6858 54.0292 64.0389 53.2596 66.1819 53.5273C66.7172 53.594 67.2611 53.8085 67.8063 53.8809C68.6618 53.994 70.1459 53.9408 70.8604 54.1639C71.0131 54.2115 71.06 54.2987 71.0693 54.4526C71.1188 55.2636 70.5322 56.1932 70.5371 57.0159V57.0147ZM56.6018 52.6595C57.2761 52.7293 58.1155 52.5637 58.7652 52.6595C58.9036 52.6799 59.1626 52.8134 59.0742 53.0297C58.351 53.0297 56.9294 53.5378 56.6018 52.6595ZM74.0369 47.3999C74.0295 47.7461 73.8261 48.1108 73.7841 48.4563C73.6635 48.4724 73.5881 48.4476 73.5393 48.4013C73.433 49.3037 73.153 50.1067 72.6467 50.8404C72.6325 50.9943 72.6381 51.1488 72.6739 51.3015H72.2913C72.2542 51.3416 72.2153 51.38 72.1751 51.4152C72.1053 53.0761 70.3449 52.8937 69.0394 52.7713C67.4299 52.6199 65.9124 52.0284 64.398 51.6037C63.8609 51.4529 62.0375 51.4276 61.3612 51.414C57.5178 51.3361 53.5891 51.4195 49.742 51.5499C48.6788 51.5858 47.5118 51.9715 46.5241 52.0432C45.9499 52.0846 45.4146 51.9035 44.7971 51.9208C43.0175 51.9703 40.8764 52.5488 39.1098 52.547C38.2618 52.547 37.156 51.9338 36.1361 51.9153C35.4667 51.9029 35.0315 52.2657 34.5333 52.2991C33.3515 52.3788 31.554 51.9925 30.3308 52.0345C29.4741 52.0642 28.3343 52.4802 27.3688 52.5445C25.1139 52.6947 22.8226 52.7565 20.5702 52.9123C19.1275 53.0124 18.2275 52.7355 16.639 53.0606C14.8922 53.4179 14.5745 53.3771 12.7832 53.2745C11.8319 53.2201 11.8888 53.3901 11.0197 53.0606C9.73342 52.5729 5.60999 53.8085 3.98559 54.0057C3.65057 54.0465 1.99959 54.24 1.85495 54.0026C1.6312 53.2862 1.83641 52.6329 1.84259 51.9863C1.88092 47.7516 2.25611 44.0504 3.29207 39.961C3.95283 37.3525 4.64944 34.6761 5.39365 32.0491C5.59021 31.355 5.93079 29.7114 6.29918 29.1224C6.4296 28.9141 7.11818 28.4641 7.27827 28.2521C7.89577 27.4355 7.82901 26.7216 8.08367 25.8377C8.45516 24.5465 9.28899 22.6025 9.78039 21.2297C10.0888 20.3693 10.7428 19.651 10.8225 18.905C10.8831 18.3369 10.8812 17.3473 11.1328 16.7688C11.3059 16.3701 11.2595 16.7669 11.4215 16.0518C11.508 15.671 11.7559 14.8841 12.1063 14.5967C12.3938 13.3277 12.8283 12.0915 13.4081 10.927C13.6152 10.5116 13.8513 10.103 14.1152 9.7124C14.4465 8.2722 15.349 6.84868 15.9257 5.49316C16.2922 5.26075 16.5172 5.71198 16.8454 5.68725C17.0376 5.67303 17.686 5.25086 18.0495 5.1464C19.7796 4.64759 22.1649 5.33925 24.0279 5.43568C25.6072 5.51727 27.1809 5.43568 28.7255 5.31453C32.2457 5.03762 36.1206 4.47204 39.6093 3.95963C40.1909 3.87433 41.4135 4.05543 41.8376 3.59185C42.12 3.28341 42.0489 2.69126 42.5719 2.59545C43.7043 2.38839 45.32 2.42733 46.5241 2.3445C46.95 2.31545 47.4927 2.09911 47.892 2.09478C48.6275 2.08613 49.5912 2.35254 50.3582 2.35377C50.9998 2.35439 51.6204 2.10158 52.2113 2.09046C53.013 2.075 54.0051 2.34944 54.8068 2.35563C55.5677 2.36181 57.8003 1.71279 58.2645 2.3513C58.3955 2.53179 58.3968 2.85444 58.5291 3.07573C59.7202 5.06419 60.965 8.36924 61.8551 10.6284C62.1234 11.309 62.3274 12.4469 62.6315 13.0663C62.786 13.3803 63.3373 13.7258 63.3812 13.9285C63.443 14.2104 63.4709 14.6338 63.5296 15.0479C63.5568 15.1302 63.5772 15.2148 63.5914 15.3001C63.7348 15.574 63.877 15.8484 64.0173 16.1235C64.1372 16.2248 64.2435 16.3157 64.2546 16.3942C64.2608 16.4393 64.2441 16.4832 64.2175 16.524C64.2738 16.6383 64.3288 16.7527 64.3838 16.8677C64.5631 17.1483 64.7287 17.4277 64.8802 17.717C64.9055 17.7398 64.9277 17.7664 64.9438 17.7985C64.9642 17.8387 64.9772 17.8832 64.9877 17.9296C65.0773 18.1119 65.162 18.2992 65.2411 18.4952C65.4377 18.9822 65.599 19.4798 65.735 19.9842C65.7783 20.0015 65.8166 20.0237 65.8432 20.0553C66.049 20.2945 66.3488 21.8342 66.5188 22.2836C66.753 22.9029 67.2277 23.5322 67.4435 24.0786C68.1599 25.8903 68.7712 27.8787 69.4393 29.7077C69.5957 29.8307 69.7262 29.9803 69.8115 30.1509C70.5136 31.5614 71.1206 33.0202 71.6689 34.4981C71.7078 34.487 71.7523 34.4845 71.803 34.4913C71.9013 34.8405 72.3055 35.0278 72.4743 35.3659C73.1011 36.6194 72.8946 38.9343 73.0664 40.3504C73.747 40.6903 73.1721 40.8585 73.195 41.1032C73.2055 41.2194 73.4756 41.3251 73.5096 41.4871C73.5393 41.6286 73.3885 42.2338 73.4157 42.5836C73.5356 44.1481 74.0727 45.6964 74.0363 47.4006L74.0369 47.3999Z" fill="white"/>
</g>
</svg>
