<svg width="111" height="159" viewBox="0 0 111 159" fill="none" xmlns="http://www.w3.org/2000/svg">
<g clip-path="url(#clip0_96_280)">
<path d="M85.9994 49.805C85.8248 48.9956 86.2559 47.8178 86.1242 47.455C86.0594 47.2779 85.838 47.2086 85.7762 47.0376C85.6369 46.6539 85.5863 46.2451 85.4385 45.863C85.1201 45.0403 84.7273 44.704 84.8332 43.6805C84.8394 43.62 84.853 43.5684 84.8716 43.5231C84.8579 43.4935 84.8448 43.4637 84.8313 43.4347C84.4205 42.5439 83.9723 41.6715 83.5084 40.8071C82.5605 39.0415 81.5529 37.3086 80.6515 35.5184C80.5668 35.3504 80.5094 35.1789 80.4762 35.0074C80.3269 34.7607 80.1761 34.5106 80.0054 34.2485C79.6343 34.1413 79.2939 33.9074 79.0564 33.5967C78.9839 33.6103 78.9327 33.6247 78.9064 33.6004C78.4451 33.166 77.9239 32.3432 77.5149 31.8033C76.4191 30.3576 75.2032 28.5755 74.2167 26.8548C74.1542 26.7768 74.0922 26.6981 74.0291 26.6203C73.6926 26.205 73.3474 25.7957 73.0088 25.3822C72.3547 24.5842 71.7153 23.7739 71.0754 22.9644C69.759 21.2994 68.4324 19.6398 66.9834 18.0865C64.5441 15.4714 61.9321 12.7855 60.5919 9.42926C59.8226 8.58082 58.9202 7.31241 58.3418 6.59135C58.26 6.48912 58.0907 6.44939 57.9829 6.36949C57.9309 6.20678 58.5418 6.02198 59.1681 5.84202C58.9152 5.71268 58.6616 5.58545 58.4041 5.46504C58.287 5.41003 58.1839 5.3404 58.0931 5.25976C58.0283 5.27329 57.9624 5.2852 57.8951 5.29428C56.7815 5.43716 56.2397 5.22527 54.998 5.55862C53.6283 5.92561 52.3041 6.21387 50.899 6.39839C50.5381 6.44585 49.9723 6.39074 49.5566 6.39144C49.3498 6.83078 48.9474 7.18435 48.4778 7.33064C47.3869 7.6703 46.3072 8.04216 45.2338 8.43281C45.298 8.45272 45.3486 8.48396 45.3781 8.52979C44.8003 8.556 44.2622 9.17244 43.7023 9.00314C43.0128 9.26468 42.325 9.53024 41.6376 9.797C41.645 9.82701 41.65 9.86471 41.6526 9.91264L39.6556 10.5751L39.6824 10.5532C39.3697 10.6734 39.0573 10.7923 38.7441 10.9108C38.39 11.3327 37.4747 11.4653 36.9611 11.6957C34.5819 12.7633 32.6431 13.6379 30.0982 14.3141C28.1459 14.8327 26.1699 15.5586 24.1674 16.0619C24.123 16.0732 23.9567 16.1164 23.7502 16.1622C22.3932 16.5501 21.0291 16.9163 19.666 17.2815C19.4529 17.3386 19.2415 17.3498 19.0404 17.3231C18.5693 17.5472 18.1108 17.7776 17.6836 18.027C17.2664 18.2707 17.1682 18.926 16.5589 18.9376C16.5377 18.9305 16.5134 18.8826 16.487 18.8103C15.9965 19.1363 15.4606 19.3669 14.8898 19.5365C14.5978 21.4225 14.5694 23.3537 14.3278 25.2748C14.0894 27.1695 13.6656 28.8694 13.6303 30.8274C13.5879 33.1886 13.6502 35.1742 13.3866 37.5505C12.9133 41.8143 11.8531 46.1996 11.8349 50.483C11.8218 53.4506 11.6233 56.4448 11.8315 59.4645C11.9021 60.4874 12.1475 61.6157 12.2318 62.6227C12.3012 63.4527 12.2585 64.4182 12.2914 65.3098C12.8546 67.4594 13.411 69.6101 13.9718 71.7604C14.0874 72.0391 14.1498 72.3603 14.2127 72.6832C14.2936 72.9924 14.3744 73.3009 14.4553 73.6101C15.1028 75.2386 15.71 75.4221 16.7509 76.5606C17.4843 77.363 18.0934 78.7644 18.7516 79.3892C19.2677 79.88 20.6645 80.4336 21.0407 80.844C21.2162 81.0357 21.2753 81.3328 21.454 81.5268C21.7426 81.8398 22.4657 82.1715 22.6387 82.447C22.7325 82.5965 22.8035 82.7324 22.8619 82.8575C23.14 83.1311 23.3946 83.4219 23.6636 83.712C23.7159 83.7684 23.771 83.8214 23.8262 83.8745C24.0328 83.9266 24.2381 83.981 24.4465 84.0257C24.5878 84.0563 24.7184 84.109 24.8386 84.1778C25.2537 84.3181 25.6604 84.4843 26.0476 84.6947C26.3636 84.866 26.6455 85.0657 26.9108 85.2845C28.3773 85.9499 29.7419 86.7893 31.3132 87.3518C33.7574 88.2269 36.8978 89.3077 39.3433 89.6962C39.9629 89.7945 40.4617 89.7933 41.0667 89.8634C41.4035 89.9025 41.92 90.1633 42.1756 90.1883C42.443 90.2139 42.8858 89.9513 43.0726 89.9607C44.1552 90.0175 45.0263 90.5961 46.2852 90.0713C46.3692 90.036 46.2928 89.8345 46.3783 89.7859C46.9075 89.4874 47.7479 89.7747 48.2962 89.7552C50.1497 89.6892 52.0487 89.5285 53.9241 89.623C54.8524 89.6699 55.8493 89.7867 56.7178 90.1146C57.5291 92.7647 58.5244 95.5075 58.92 98.2568C59.1572 99.9012 59.5976 101.466 59.8628 103.141C60.1497 104.952 60.667 105.285 61.2043 106.734C62.4455 110.079 62.5555 114.752 63.8436 118.072C64.5212 119.817 65.1523 121.537 65.7659 123.309C66.6984 126.004 67.4586 128.74 67.9734 131.545C68.0259 131.83 68.2286 133.489 68.1244 133.601C68.1106 133.605 68.0974 133.61 68.0838 133.615C68.1432 133.722 68.1934 133.837 68.2334 133.963C68.2455 134.001 68.2556 134.038 68.264 134.077C68.2645 134.079 68.2648 134.08 68.2653 134.082C68.3517 134.354 68.348 134.634 68.2766 134.898C68.3189 134.889 68.3494 134.885 68.3642 134.89C68.6788 135.002 68.8879 135.825 68.5806 136.035C68.4573 136.119 67.0345 136.804 66.8819 136.85C66.4235 136.99 65.6965 136.885 65.2019 136.959C65.2026 136.957 65.2034 136.955 65.2035 136.953C64.777 137.194 64.3526 137.437 63.911 137.649C63.3955 137.955 62.2792 138.434 61.9989 138.594C61.3143 138.987 60.4345 139.76 59.79 140.044C58.149 140.767 57.2705 140.846 55.6726 141.907C53.3928 143.419 51.1501 144.275 48.9407 146.196C48.5271 146.556 48.2022 147.134 47.7916 147.45C47.2067 147.899 46.7919 147.796 46.4312 148.583C46.3504 148.759 46.1701 149.378 46.1844 149.55C46.2078 149.841 46.4444 151.061 46.5323 151.365C46.8518 152.471 48.9045 153.872 49.9858 154.139C53.2861 154.955 55.5863 153.363 58.6355 152.794C59.1456 152.699 59.6315 152.803 60.132 152.665C60.8321 152.471 61.6746 151.864 62.3071 151.683C63.0646 151.468 64.203 151.406 64.9934 151.222C65.1314 151.19 65.2644 151.156 65.3955 151.123C67.3298 150.48 69.2483 149.79 71.1695 149.107C71.3497 148.937 71.5553 148.77 71.8833 148.633C72.8069 148.247 73.5093 148.069 74.4556 147.503C75.2961 147 75.3777 147.013 76.2914 146.645C76.8603 146.416 77.3047 145.961 77.7438 145.767C79.5573 144.97 81.5254 144.546 83.4091 143.588C84.0365 143.269 84.5669 142.905 85.0829 142.558C85.2829 142.098 85.683 141.719 86.1679 141.606C87.6538 141.26 89.1236 140.839 90.5546 140.307C90.8514 140.197 91.1459 140.08 91.4397 139.961C91.497 139.936 91.5539 139.912 91.6112 139.887C91.7515 139.826 91.891 139.763 92.0307 139.7C92.6236 139.429 93.2066 139.135 93.777 138.818C94.3289 138.511 94.8685 138.182 95.393 137.83C95.655 137.655 95.9136 137.473 96.168 137.286C96.2701 137.211 96.3718 137.134 96.4728 137.057C96.5339 137.008 96.5945 136.96 96.6556 136.911C97.6608 136.094 98.5897 135.185 99.4327 134.202C99.6513 133.948 99.8633 133.688 100.07 133.425C100.12 133.362 100.167 133.294 100.219 133.234C100.212 133.242 100.205 133.249 100.199 133.257C100.136 133.342 99.9187 133.58 100.199 133.257C100.219 133.23 100.237 133.204 100.257 133.177C99.9919 132.492 99.4788 131.475 99.2524 131.27C99.1088 131.14 98.8994 131.171 98.7546 131.041C98.5129 130.824 98.1101 130.305 97.9543 130.194C97.8735 130.136 96.9235 130.082 96.6294 129.997C96.1059 129.847 95.2798 129.376 94.7706 129.37C93.3436 129.353 91.1621 130.022 89.7105 130.267C87.3025 130.673 84.9002 130.931 82.5076 131.554C80.5036 132.075 78.7084 132.999 76.6256 133.525C76.3409 133.597 76.0287 133.523 75.7712 133.62C75.276 133.806 75.1928 134.31 74.1805 134.437C73.7384 134.492 73.6188 134.223 73.303 134.21C72.8388 134.189 72.3113 134.583 71.8991 134.188C71.675 133.178 71.0398 132.307 70.6208 131.338C69.9748 129.844 69.0289 127.656 68.6948 126.111C68.2031 123.834 67.5047 121.819 66.9282 119.539C65.9473 115.658 64.507 112.048 63.3808 108.213C62.9534 106.756 62.1606 104.511 62.0419 103.092C61.9089 101.502 61.7371 101.267 61.3764 99.782C61.0737 98.5353 61.1312 96.9348 60.7824 95.5949C60.3994 94.1246 59.0222 91.4041 59.3108 90.0072C59.4922 89.1293 59.6713 89.4755 60.071 89.1355C61.8801 87.5929 63.8038 86.1867 65.3769 84.4246C66.064 83.655 66.7236 82.4915 67.3324 81.819C67.56 81.5673 68.3157 81.1421 68.4499 80.9001C68.8972 80.093 69.4056 79.4826 70.0076 78.7204C71.5372 76.7818 73.3693 75.1652 74.8786 73.2558C75.542 72.4169 77.3982 69.9634 78.1992 69.5209C78.5799 69.3108 79.1934 69.3172 79.5295 69.0026C79.7044 68.8386 79.7302 68.273 79.9036 68.082C80.646 67.2655 81.861 66.4504 82.4802 65.6331C82.8949 65.0862 82.9004 64.5408 83.1368 64.1952C83.2692 64.0017 84.1164 62.8193 84.4279 62.4127C84.5894 61.7499 84.6654 61.0711 84.7674 60.3962C84.7999 60.1808 84.8332 59.9658 84.8671 59.7507C84.8295 59.5246 84.8086 59.3056 84.8218 59.1114C84.8395 58.8526 84.9862 58.6168 85.0913 58.3807C85.1416 58.0863 85.1926 57.7917 85.2451 57.498C85.2581 57.2123 85.2704 56.9498 85.3909 56.7C85.7098 54.9981 86.0748 53.3056 86.4967 51.6273C86.498 51.5559 86.4986 51.4841 86.5005 51.4126C86.5048 51.2303 86.5105 51.0484 86.5153 50.8659C86.3091 50.5334 86.0877 50.1941 86.0035 49.8058L85.9994 49.805ZM72.6111 139.549C72.6869 139.323 72.7796 139.101 72.8797 138.887L72.6364 137.979C72.549 137.653 72.5681 137.332 72.6685 137.043C72.1223 137.03 71.8151 137.431 71.7193 136.385C73.0473 135.854 74.3654 135.115 75.7635 134.838C76.1009 134.979 76.3489 135.332 76.7433 135.149L76.7572 134.651C76.9648 134.425 78.1352 134.528 78.5352 134.423C79.0325 134.292 79.6195 133.879 80.1337 133.723C81.8055 133.216 84.1485 132.859 85.7568 132.74C88.1916 132.56 89.3121 131.405 91.4324 130.952C93.3751 130.536 95.6766 130.79 97.325 131.934C97.5679 132.103 98.7465 133.06 98.7501 133.257C98.7586 133.752 97.3312 134.556 96.9252 134.939C96.3284 135.501 95.8504 136.008 95.4114 136.468C95.3554 136.787 95.2101 137.083 94.9658 137.289C93.6831 138.37 92.2535 139.096 90.7045 139.718C89.5207 140.193 88.3026 140.574 87.0984 140.992C86.7852 141.101 86.4735 141.213 86.1631 141.33C86.0265 141.381 85.8909 141.434 85.7557 141.488C85.7343 141.497 85.7124 141.506 85.6911 141.515C85.6762 141.521 85.6579 141.529 85.6356 141.539C84.8856 141.869 84.1267 142.18 83.3666 142.486C81.3202 143.31 79.2372 144.033 77.1233 144.66C76.5806 145.037 76.0229 145.392 75.4505 145.723C75.3154 145.823 75.1853 145.894 75.0585 145.944C74.5996 146.197 74.1316 146.435 73.6559 146.655C70.9805 147.898 68.1554 148.665 65.2796 149.279C62.4215 149.889 59.5458 150.42 56.7455 151.27C56.3099 151.402 55.8767 151.321 55.5188 151.105C54.6835 151.441 53.854 151.803 53.0627 152.11C52.2565 152.423 49.5545 153.129 49.4477 151.744C49.4176 151.355 50.0103 151.083 50.2632 150.797C50.7218 150.278 51.5937 149.243 51.9168 148.674C51.9978 148.532 51.9619 148.336 52.0294 148.149C52.003 147.682 52.1714 147.198 52.4906 146.849C53.447 145.802 54.528 144.845 55.7394 144.1C55.8724 143.808 56.0855 143.553 56.3756 143.405C56.8944 143.142 57.4304 142.945 57.9759 142.779C58.2195 142.652 58.4738 142.519 58.7058 142.348C59.5288 141.742 59.7245 141.25 60.8162 140.841C60.8425 140.832 60.8695 140.823 60.8957 140.813C61.0156 140.743 61.1443 140.688 61.2795 140.653C61.3297 140.639 61.3797 140.628 61.4302 140.615C61.6579 140.302 61.9681 140.132 62.3368 139.989C62.3426 139.987 62.3524 139.983 62.3641 139.979C62.3944 139.965 62.4221 139.954 62.433 139.949C62.5492 139.898 62.6647 139.847 62.7811 139.797C63.0668 139.673 63.355 139.546 63.6503 139.441C63.8873 139.306 64.1231 139.169 64.3662 139.044C64.8505 138.795 65.3743 138.558 65.908 138.441C66.3203 138.351 66.7415 138.323 67.152 138.224C67.2601 138.099 67.3874 137.992 67.633 137.984C68.2497 137.584 69.1876 137.648 69.6872 138.197C69.7607 138.278 69.8359 138.355 69.9159 138.429C69.9509 138.462 70.0069 138.502 70.0521 138.532C70.1695 138.605 70.1253 138.581 70.0521 138.532C70.0177 138.511 69.9701 138.481 69.9052 138.442C70.0794 138.547 70.2396 138.673 70.4178 138.774C70.5975 138.876 70.7827 138.966 70.9704 139.052C70.9918 139.061 71.0134 139.07 71.0354 139.078C71.1395 139.118 71.2442 139.155 71.3499 139.191C71.7636 139.333 72.1857 139.449 72.6109 139.548L72.6111 139.549ZM82.8921 56.4852C82.49 57.4325 82.5117 59.6222 81.9077 60.3581C81.7133 60.5951 81.2592 60.7347 81.0173 60.9543C80.9432 61.0216 80.4355 61.5819 80.387 61.6492C80.0562 62.1103 80.5072 62.5347 80.4721 62.6068C80.2782 62.7119 79.8333 62.8355 79.7094 62.975C79.6435 63.049 79.6667 63.2552 79.5946 63.3609C77.9927 65.7028 76.6246 67.929 74.4748 69.9961C73.1733 71.2477 71.3892 72.4777 70.2502 73.8151C69.922 74.1999 69.8344 74.7615 69.6536 74.9847C69.4942 75.1803 69.2245 75.2104 69.0789 75.3595C67.9126 76.5499 66.6637 78.0505 65.6056 79.4104C65.0004 80.1894 64.2232 81.2008 63.7746 81.9865C62.4039 84.3842 60.2109 85.9605 58.284 87.9019C57.5177 88.6742 57.6621 89.4546 56.3175 88.974C55.8469 88.8057 55.4438 88.4025 54.9237 88.2404C52.9744 87.6333 51.2146 88.357 49.3506 88.4526C48.4977 88.4962 47.689 88.48 46.9075 88.3074C46.6912 88.2597 46.0722 88.5312 45.7875 88.5339C45.6905 88.5349 45.6545 88.3622 45.4719 88.3471C44.7965 88.2913 44.4123 88.4454 43.8597 88.5398C43.5881 88.5863 43.1426 88.4715 42.9532 88.5286C42.8816 88.5504 42.9408 88.7642 42.8102 88.869C42.4532 89.156 42.2106 88.8236 41.8888 88.7882C41.5677 88.7527 41.2202 88.7025 40.8519 88.6392C40.5015 88.6499 40.1506 88.6512 39.8004 88.6388C38.5556 88.5954 37.3276 88.3972 36.1052 88.1718C34.2901 87.8365 32.5616 87.0672 30.9885 86.1161C29.5232 85.2302 28.1625 84.1857 26.731 83.2471C25.2567 82.2804 23.6008 81.6241 22.2443 80.4806C21.4061 79.7741 20.7729 78.863 20.1147 77.995C19.9565 77.7865 19.7987 77.5773 19.6388 77.3699C19.6181 77.3428 19.5588 77.2672 19.54 77.2422C19.4867 77.1746 19.4332 77.1064 19.3788 77.0397C19.2791 76.916 19.1784 76.7932 19.0761 76.6716C18.7627 76.3882 18.4429 76.1117 18.1128 75.8469C17.8129 75.6067 17.6064 75.0413 17.6255 74.6682C17.6402 74.384 17.7143 74.1114 17.8458 73.8592C17.8497 73.8524 17.8538 73.8462 17.8577 73.8394C17.5258 73.4509 16.8662 72.9212 17.3052 72.5201C18.0672 71.8245 20.3832 71.4573 21.8038 71.0632C22.0183 70.8131 22.3014 70.6227 22.6188 70.537C25.3496 69.8021 28.0171 68.8602 30.656 67.8472C35.3516 66.0438 39.9725 64.0211 44.799 62.582C46.3747 62.1124 47.9712 61.6533 49.5759 61.2943C50.4441 61.1001 51.3293 60.9435 52.2179 60.8827C52.6672 60.8519 53.129 60.8632 53.5748 60.9459C55.5703 60.4381 57.5707 59.9463 59.5651 59.4343C60.1948 59.1312 60.8168 58.8468 61.4347 58.6549C62.7064 58.2592 64.244 58.1012 65.5492 57.7777C67.5815 57.2735 69.5152 57.2231 71.501 56.5714C73.5696 55.8923 75.6434 54.5399 77.7826 54.2438C78.317 54.1697 78.8979 54.2361 79.4432 54.1649C80.2988 54.0527 81.7186 53.6173 82.4665 53.6479C82.6263 53.6544 82.6942 53.7264 82.743 53.8726C83.0007 54.6432 82.6747 55.693 82.8924 56.4864L82.8921 56.4852ZM68.3043 55.8851C68.9738 55.778 69.7417 55.4007 70.394 55.3251C70.533 55.309 70.8178 55.3709 70.7884 55.6028C70.0898 55.79 68.8481 56.6487 68.3043 55.8851ZM83.7841 46.2922C83.8665 46.6285 83.7645 47.0334 83.8133 47.378C83.701 47.4247 83.6218 47.4204 83.5626 47.3882C83.6935 48.2874 83.6309 49.1355 83.3318 49.9752C83.3579 50.1276 83.4032 50.2754 83.4774 50.4136L83.1078 50.5126C83.0824 50.561 83.0547 50.6081 83.025 50.6525C83.3874 52.2749 81.6398 52.5544 80.3472 52.774C78.7532 53.0443 77.1344 52.8657 75.5617 52.8475C75.0038 52.8408 73.236 53.2883 72.5793 53.4502C68.8467 54.3697 65.0734 55.4671 61.3911 56.5888C60.3735 56.8986 59.3461 57.5732 58.4105 57.8981C57.8666 58.0867 57.3027 58.0503 56.7107 58.2269C55.0046 58.7352 53.0861 59.8482 51.3793 60.3037C50.5601 60.5231 49.3333 60.2171 48.3434 60.4631C47.6936 60.6245 47.3672 61.0875 46.8946 61.2487C45.7737 61.6316 43.9374 61.7237 42.7668 62.0809C41.9469 62.3313 40.9536 63.0281 40.0377 63.3401C37.8985 64.0688 35.7012 64.7215 33.5659 65.4549C32.1983 65.925 31.2573 65.8905 29.8071 66.6157C28.2123 67.4129 27.8948 67.4557 26.138 67.8202C25.2051 68.0139 25.304 68.1634 24.3793 68.0701C23.0106 67.9319 19.3475 70.1926 17.8294 70.8035C17.5164 70.9296 15.9717 71.5438 15.7706 71.352C15.3691 70.7179 15.3982 70.0337 15.2368 69.4076C14.1778 65.3073 13.5823 61.635 13.5245 57.4168C13.4876 54.7263 13.4678 51.9607 13.5067 49.2307C13.5169 48.5093 13.4205 46.8336 13.6239 46.1692C13.696 45.9343 14.2446 45.3214 14.3444 45.0752C14.7295 44.1267 14.4803 43.4544 14.4975 42.5347C14.5221 41.1913 14.8244 39.0977 14.9437 37.6445C15.019 36.7336 15.4648 35.8706 15.3487 35.1293C15.2602 34.5649 15.0022 33.6095 15.0955 32.9856C15.1595 32.5557 15.2174 32.951 15.1888 32.2183C15.1738 31.8281 15.2096 31.0039 15.4737 30.6356C15.4229 29.3354 15.5227 28.0289 15.7813 26.7539C15.8738 26.2991 15.9961 25.8434 16.15 25.3977C16.0972 23.9208 16.6005 22.3123 16.8067 20.8537C17.1006 20.5343 17.4347 20.9119 17.7453 20.8031C17.9273 20.7396 18.4444 20.164 18.7684 19.969C20.3105 19.0394 22.7935 19.0902 24.618 18.7011C26.1645 18.3712 27.6635 17.8851 29.1242 17.3683C32.4527 16.1897 36.0493 14.6405 39.2864 13.2426C39.8261 13.0097 41.054 12.8682 41.3436 12.3107C41.5366 11.9396 41.3147 11.386 41.795 11.1582C42.8352 10.6651 44.4059 10.2845 45.5476 9.89285C45.9514 9.75456 46.4196 9.40513 46.8042 9.29761C47.5125 9.09888 48.5122 9.1068 49.2535 8.90946C49.8734 8.74399 50.4074 8.33918 50.9753 8.17549C51.7456 7.95308 52.7749 7.9614 53.5509 7.75988C54.2875 7.56891 56.2761 6.36416 56.8897 6.86077C57.063 7.0012 57.1477 7.31254 57.3327 7.49205C58.9979 9.10448 61.0558 11.9747 62.5003 13.9266C62.9355 14.5145 63.4271 15.5609 63.8811 16.0804C64.1116 16.3437 64.7336 16.5348 64.8285 16.7192C64.9611 16.9755 65.0976 17.3773 65.2615 17.7621C65.3091 17.8345 65.3507 17.911 65.3865 17.9897C65.5959 18.2171 65.8042 18.4454 66.0109 18.6747C66.153 18.7416 66.2792 18.8019 66.3103 18.8748C66.3279 18.9168 66.3232 18.9635 66.3081 19.0098C66.392 19.1057 66.4747 19.2019 66.5576 19.2987C66.8034 19.5234 67.0357 19.7504 67.2569 19.9906C67.2873 20.0061 67.3156 20.026 67.3395 20.0529C67.3696 20.0865 67.3936 20.1261 67.4158 20.1681C67.5495 20.3211 67.6798 20.4801 67.8069 20.6489C68.1229 21.0685 68.4075 21.5073 68.6694 21.9593C68.7157 21.9648 68.7584 21.9764 68.7923 22C69.053 22.1778 69.7411 23.5874 70.0216 23.9775C70.4081 24.5151 71.0295 25 71.3793 25.472C72.5402 27.0365 73.6453 28.799 74.7641 30.3928C74.947 30.4711 75.1117 30.5818 75.2383 30.7246C76.2816 31.9053 77.2454 33.1572 78.1575 34.4429C78.1923 34.422 78.2346 34.4081 78.2853 34.4016C78.4707 34.7135 78.9096 34.7898 79.1601 35.0727C80.09 36.1213 80.4897 38.4107 81.0222 39.734C81.7675 39.8863 81.2557 40.1975 81.3412 40.428C81.3814 40.5375 81.6697 40.5697 81.7444 40.7173C81.8097 40.8464 81.8207 41.4699 81.9375 41.8008C82.4582 43.2809 83.3778 44.6375 83.7836 46.293L83.7841 46.2922Z" fill="white"/>
</g>
<defs>
<clipPath id="clip0_96_280">
<rect width="76" height="144.027" fill="white" transform="translate(0 19.6703) rotate(-15)"/>
</clipPath>
</defs>
</svg>
